<!DOCTYPE svg PUBLIC "-//W3C//DTD SVG 1.1//EN" "http://www.w3.org/Graphics/SVG/1.1/DTD/svg11.dtd">

<!-- Uploaded to: SVG Repo, www.svgrepo.com, Transformed by: SVG Repo Mixer Tools -->
<svg width="800px" height="800px" viewBox="-3.36 -3.36 30.72 30.72" fill="none" xmlns="http://www.w3.org/2000/svg" stroke="#9209ed" transform="rotate(0)">

<g id="SVGRepo_bgCarrier" stroke-width="0"/>

<g id="SVGRepo_tracerCarrier" stroke-linecap="round" stroke-linejoin="round" stroke="#bef9bd" stroke-width="0.048"/>

<g id="SVGRepo_iconCarrier"> <path d="M2 8.5H13" stroke="#9209ed" stroke-width="0.6" stroke-miterlimit="10" stroke-linecap="round" stroke-linejoin="round"/> <path opacity="0.4" d="M6 16.5H8" stroke="#9209ed" stroke-width="0.6" stroke-miterlimit="10" stroke-linecap="round" stroke-linejoin="round"/> <path opacity="0.4" d="M10.5 16.5H14.5" stroke="#9209ed" stroke-width="0.6" stroke-miterlimit="10" stroke-linecap="round" stroke-linejoin="round"/> <path d="M22 11.33V16.11C22 19.62 21.11 20.5 17.56 20.5H6.44C2.89 20.5 2 19.62 2 16.11V7.89001C2 4.38001 2.89 3.5 6.44 3.5H13.28" stroke="#9209ed" stroke-width="0.6" stroke-linecap="round" stroke-linejoin="round"/> <g opacity="0.4"> <path d="M17 3.25H20.13C20.82 3.25 21.38 3.88 21.38 4.5C21.38 5.19 20.82 5.75 20.13 5.75H17V3.25Z" stroke="#9209ed" stroke-width="0.6" stroke-miterlimit="10" stroke-linecap="round" stroke-linejoin="round"/> <path d="M17 5.75H20.57C21.36 5.75 22 6.31 22 7C22 7.69 21.36 8.25 20.57 8.25H17V5.75Z" stroke="#9209ed" stroke-width="0.6" stroke-miterlimit="10" stroke-linecap="round" stroke-linejoin="round"/> <path d="M18.7598 8.25V9.5" stroke="#9209ed" stroke-width="0.6" stroke-miterlimit="10" stroke-linecap="round" stroke-linejoin="round"/> <path d="M18.7598 2V3.25" stroke="#9209ed" stroke-width="0.6" stroke-miterlimit="10" stroke-linecap="round" stroke-linejoin="round"/> <path d="M18.19 3.25H16" stroke="#9209ed" stroke-width="0.6" stroke-miterlimit="10" stroke-linecap="round" stroke-linejoin="round"/> <path d="M18.19 8.25H16" stroke="#9209ed" stroke-width="0.6" stroke-miterlimit="10" stroke-linecap="round" stroke-linejoin="round"/> </g> </g>

</svg>