<svg width="48" height="48" fill="none" xmlns="http://www.w3.org/2000/svg"><rect width="48" height="48" rx="24" fill="#2DB300"/><path fill-rule="evenodd" clip-rule="evenodd" d="M29.686 17.75c.587 1.654.274 3.007-.94 4.059 1.155-.009 2.09.27 2.803.835.713.565 1.17 1.51 1.369 2.836.098.678.09 1.298-.023 1.86a3.975 3.975 0 01-.594 1.467c-.282.416-.667.8-1.153 1.153a8.52 8.52 0 01-1.58.903c-.566.248-1.227.486-1.982.712l.882 3.565-2.153.532-.868-3.508c-.746.184-1.315.32-1.709.407l.871 3.523-2.153.532-.881-3.564c-.168.041-.42.101-.757.18-.337.078-.594.139-.77.182l-2.797.692-.199-2.666 1.552-.383c.466-.116.678-.42.634-.914l-1.39-5.62.225-.055a1.459 1.459 0 00-.228.041l-.992-4.012c-.277-.604-.77-.818-1.479-.643l-1.552.384-.567-2.293 2.968-.719a49.98 49.98 0 001.352-.35l-.87-3.522 2.152-.532.854 3.453c.76-.208 1.326-.358 1.698-.45l-.846-3.425 2.152-.532.872 3.522c.752-.116 1.43-.173 2.035-.169a6.55 6.55 0 011.735.239 3.299 3.299 0 011.423.805c.396.382.698.873.906 1.474zm-1.122 8.362a1.922 1.922 0 00-.43-.843 2.162 2.162 0 00-.677-.515 2.735 2.735 0 00-.91-.228 6.997 6.997 0 00-.979-.032 8.51 8.51 0 00-1.066.13c-.417.073-.742.139-.975.196-.233.058-.532.137-.898.237-.366.1-.586.16-.66.178l1.168 4.726c.075-.019.247-.06.519-.121a18.319 18.319 0 001.409-.363 10.407 10.407 0 001.572-.574c.288-.131.53-.26.726-.388a4.9 4.9 0 00.592-.458c.198-.177.348-.363.448-.556.101-.193.169-.407.205-.644a1.907 1.907 0 00-.044-.745zm-3.015-7.184c.175.209.301.467.377.775.065.26.081.509.05.744-.03.235-.112.445-.244.631a3.97 3.97 0 01-.424.506c-.15.15-.355.293-.614.426s-.486.244-.682.332a6.088 6.088 0 01-.75.267c-.304.09-.534.157-.692.2-.157.044-.374.098-.65.161l-.484.113-1.061-4.292c.065-.017.249-.064.55-.144.302-.08.553-.146.752-.2.2-.055.472-.11.82-.166a7.94 7.94 0 01.887-.1c.244-.012.52.002.826.04.306.038.562.113.767.225.206.112.397.273.572.482z" fill="#fff"/></svg>