<svg width="468" height="356" viewBox="0 0 468 356" fill="none" xmlns="http://www.w3.org/2000/svg">
<path d="M267.312 156.592L121.802 70.353L0.999815 136.551L277.462 300.399" stroke="url(#paint0_linear_302_13591)" stroke-width="0.926109" stroke-miterlimit="10"/>
<path d="M174.219 105.802L174.737 146.958L233.638 181.187L233.119 140.031L174.219 105.802Z" fill="url(#paint1_linear_302_13591)"/>
<path d="M233.12 140.031L233.638 181.187L292.909 146.958L292.354 105.802L233.12 140.031Z" fill="url(#paint2_linear_302_13591)"/>
<path d="M257.086 136.363V138.475C257.086 139.031 257.716 139.364 258.161 139.068L287.648 121.805C287.87 121.694 287.981 121.435 287.981 121.175V119.064C287.981 118.508 287.352 118.175 286.907 118.471L257.42 135.734C257.198 135.845 257.049 136.104 257.086 136.363Z" fill="url(#paint3_linear_302_13591)"/>
<path d="M257.086 143.957V146.068C257.086 146.624 257.716 146.957 258.161 146.661L287.648 129.398C287.87 129.287 287.981 129.028 287.981 128.768V126.657C287.981 126.101 287.352 125.768 286.907 126.064L257.42 143.327C257.198 143.438 257.049 143.697 257.086 143.957Z" fill="url(#paint4_linear_302_13591)"/>
<path d="M257.086 151.588V153.7C257.086 154.255 257.716 154.589 258.161 154.292L287.648 137.03C287.87 136.918 287.981 136.659 287.981 136.4V134.288C287.981 133.733 287.352 133.399 286.907 133.696L257.42 150.958C257.198 151.069 257.049 151.329 257.086 151.588Z" fill="url(#paint5_linear_302_13591)"/>
<mask id="mask0_302_13591" style="mask-type:luminance" maskUnits="userSpaceOnUse" x="174" y="105" width="60" height="77">
<path d="M174.219 105.802L174.737 146.958L233.638 181.187L233.119 140.031L174.219 105.802Z" fill="white"/>
</mask>
<g mask="url(#mask0_302_13591)">
<path d="M244.492 156.479V158.591C244.492 159.146 243.863 159.48 243.418 159.183L213.931 141.921C213.709 141.81 213.56 141.55 213.597 141.291V139.179C213.597 138.624 214.227 138.29 214.672 138.587L244.159 155.849C244.381 155.96 244.529 156.22 244.492 156.479Z" fill="url(#paint6_linear_302_13591)"/>
<path d="M244.492 164.11V166.222C244.492 166.778 243.863 167.111 243.418 166.815L213.931 149.552C213.709 149.441 213.56 149.182 213.597 148.922V146.811C213.597 146.255 214.227 145.922 214.672 146.218L244.159 163.481C244.381 163.592 244.529 163.851 244.492 164.11Z" fill="url(#paint7_linear_302_13591)"/>
<path d="M244.492 171.742V173.854C244.492 174.409 243.863 174.743 243.418 174.447L213.931 157.184C213.709 157.073 213.56 156.813 213.597 156.554V154.443C213.597 153.887 214.227 153.554 214.672 153.85L244.159 171.113C244.381 171.224 244.529 171.483 244.492 171.742Z" fill="url(#paint8_linear_302_13591)"/>
</g>
<mask id="mask1_302_13591" style="mask-type:luminance" maskUnits="userSpaceOnUse" x="233" y="105" width="60" height="77">
<path d="M233.12 140.031L233.638 181.187L292.909 146.958L292.354 105.802L233.12 140.031Z" fill="white"/>
</mask>
<g mask="url(#mask1_302_13591)">
<path d="M213.597 161.479V163.59C213.597 164.146 214.227 164.479 214.672 164.183L244.159 146.92C244.381 146.809 244.529 146.55 244.492 146.29V144.179C244.492 143.623 243.863 143.29 243.418 143.586L213.931 160.849C213.709 160.96 213.56 161.219 213.597 161.479Z" fill="url(#paint9_linear_302_13591)"/>
<path d="M213.597 169.11V171.222C213.597 171.777 214.227 172.111 214.672 171.814L244.159 154.552C244.381 154.44 244.529 154.181 244.492 153.922V151.81C244.492 151.255 243.863 150.921 243.418 151.218L213.931 168.48C213.709 168.591 213.56 168.851 213.597 169.11Z" fill="url(#paint10_linear_302_13591)"/>
<path d="M213.597 176.703V178.815C213.597 179.37 214.227 179.704 214.672 179.407L244.159 162.145C244.381 162.034 244.529 161.774 244.492 161.515V159.404C244.492 158.848 243.863 158.514 243.418 158.811L213.931 176.074C213.709 176.185 213.56 176.444 213.597 176.703Z" fill="url(#paint11_linear_302_13591)"/>
</g>
<path d="M292.354 105.803L233.12 140.032L174.219 105.803L233.638 74.1299L292.354 105.803Z" fill="url(#paint12_linear_302_13591)"/>
<path d="M174.219 56.8667L174.737 98.023L233.638 132.215L233.119 91.0957L174.219 56.8667Z" fill="url(#paint13_linear_302_13591)"/>
<path d="M233.12 91.0957L233.638 132.215L292.909 98.023L292.354 56.8667L233.12 91.0957Z" fill="url(#paint14_linear_302_13591)"/>
<path d="M257.086 87.3917V89.5033C257.086 90.0589 257.716 90.3923 258.161 90.0959L287.648 72.8333C287.87 72.7222 287.981 72.4628 287.981 72.2035V70.092C287.981 69.5364 287.352 69.2029 286.907 69.4993L257.42 86.762C257.198 86.8731 257.049 87.1324 257.086 87.3917Z" fill="url(#paint15_linear_302_13591)"/>
<path d="M257.086 95.0226V97.1341C257.086 97.6898 257.716 98.0232 258.161 97.7268L287.648 80.4642C287.87 80.353 287.981 80.0937 287.981 79.8344V77.7229C287.981 77.1672 287.352 76.8338 286.907 77.1302L257.42 94.3928C257.198 94.504 257.049 94.7633 257.086 95.0226Z" fill="url(#paint16_linear_302_13591)"/>
<path d="M257.086 102.654V104.766C257.086 105.322 257.716 105.655 258.161 105.359L287.648 88.096C287.87 87.9849 287.981 87.7256 287.981 87.4663V85.3547C287.981 84.799 287.352 84.4656 286.907 84.762L257.42 102.025C257.198 102.136 257.049 102.395 257.086 102.654Z" fill="url(#paint17_linear_302_13591)"/>
<mask id="mask2_302_13591" style="mask-type:luminance" maskUnits="userSpaceOnUse" x="174" y="56" width="60" height="77">
<path d="M174.219 56.8667L174.737 98.023L233.638 132.215L233.119 91.0957L174.219 56.8667Z" fill="white"/>
</mask>
<g mask="url(#mask2_302_13591)">
<path d="M244.492 107.544V109.655C244.492 110.211 243.863 110.544 243.418 110.248L213.931 92.9851C213.709 92.874 213.56 92.6147 213.597 92.3554V90.2439C213.597 89.6882 214.227 89.3548 214.672 89.6511L244.159 106.914C244.381 107.025 244.529 107.284 244.492 107.544Z" fill="url(#paint18_linear_302_13591)"/>
<path d="M244.492 115.175V117.286C244.492 117.842 243.863 118.176 243.418 117.879L213.931 100.617C213.709 100.505 213.56 100.246 213.597 99.9867V97.8752C213.597 97.3196 214.227 96.9861 214.672 97.2825L244.159 114.545C244.381 114.656 244.529 114.916 244.492 115.175Z" fill="url(#paint19_linear_302_13591)"/>
<path d="M244.492 122.768V124.88C244.492 125.435 243.863 125.769 243.418 125.472L213.931 108.21C213.709 108.099 213.56 107.839 213.597 107.58V105.468C213.597 104.913 214.227 104.579 214.672 104.876L244.159 122.138C244.381 122.25 244.529 122.509 244.492 122.768Z" fill="url(#paint20_linear_302_13591)"/>
</g>
<mask id="mask3_302_13591" style="mask-type:luminance" maskUnits="userSpaceOnUse" x="233" y="56" width="60" height="77">
<path d="M233.12 91.0957L233.638 132.215L292.909 98.023L292.354 56.8667L233.12 91.0957Z" fill="white"/>
</mask>
<g mask="url(#mask3_302_13591)">
<path d="M213.597 112.544V114.655C213.597 115.211 214.227 115.544 214.672 115.248L244.159 97.9851C244.381 97.874 244.529 97.6147 244.492 97.3554V95.2438C244.492 94.6882 243.863 94.3548 243.418 94.6512L213.931 111.914C213.709 112.025 213.56 112.284 213.597 112.544Z" fill="url(#paint21_linear_302_13591)"/>
<path d="M213.597 120.137V122.248C213.597 122.804 214.227 123.137 214.672 122.841L244.159 105.578C244.381 105.467 244.529 105.208 244.492 104.949V102.837C244.492 102.281 243.863 101.948 243.418 102.244L213.931 119.507C213.709 119.618 213.56 119.878 213.597 120.137Z" fill="url(#paint22_linear_302_13591)"/>
<path d="M213.597 127.768V129.88C213.597 130.435 214.227 130.769 214.672 130.472L244.159 113.21C244.381 113.099 244.529 112.839 244.492 112.58V110.468C244.492 109.913 243.863 109.579 243.418 109.876L213.931 127.138C213.709 127.25 213.56 127.509 213.597 127.768Z" fill="url(#paint23_linear_302_13591)"/>
</g>
<path d="M292.354 56.8672L233.12 91.0962L174.219 56.8672L233.638 25.1943L292.354 56.8672Z" fill="url(#paint24_linear_302_13591)"/>
<path d="M182.664 75.0192C181.664 74.4265 180.849 74.9081 180.812 76.0565C180.812 77.2048 181.627 78.6125 182.627 79.2052C183.627 79.7979 184.442 79.3163 184.479 78.168C184.479 77.0196 183.665 75.6119 182.664 75.0192Z" fill="url(#paint25_linear_302_13591)"/>
<path d="M182.664 82.7248C181.664 82.1321 180.849 82.6136 180.812 83.762C180.812 84.9104 181.627 86.318 182.627 86.9108C183.627 87.5035 184.442 87.0219 184.479 85.8735C184.479 84.7251 183.665 83.2804 182.664 82.7248Z" fill="url(#paint26_linear_302_13591)"/>
<path d="M182.664 90.3923C181.664 89.7996 180.849 90.2811 180.812 91.4295C180.812 92.5779 181.627 93.9856 182.627 94.5783C183.627 95.171 184.442 94.6894 184.479 93.5411C184.479 92.3927 183.665 90.985 182.664 90.3923Z" fill="url(#paint27_linear_302_13591)"/>
<path d="M61.9745 180.113L62.493 221.27L121.394 255.461L120.875 214.342L61.9745 180.113Z" fill="url(#paint28_linear_302_13591)"/>
<path d="M120.875 214.342L121.394 255.461L180.628 221.27L180.109 180.113L120.875 214.342Z" fill="url(#paint29_linear_302_13591)"/>
<path d="M144.843 210.638V212.75C144.843 213.305 145.472 213.639 145.917 213.343L175.404 196.08C175.626 195.969 175.775 195.709 175.737 195.45V193.339C175.737 192.783 175.108 192.45 174.663 192.746L145.176 210.009C144.954 210.12 144.805 210.379 144.843 210.638Z" fill="url(#paint30_linear_302_13591)"/>
<path d="M144.843 218.269V220.381C144.843 220.936 145.472 221.27 145.917 220.973L175.404 203.711C175.626 203.6 175.775 203.34 175.737 203.081V200.969C175.737 200.414 175.108 200.08 174.663 200.377L145.176 217.639C144.954 217.751 144.805 218.01 144.843 218.269Z" fill="url(#paint31_linear_302_13591)"/>
<path d="M144.843 225.901V228.013C144.843 228.568 145.472 228.902 145.917 228.605L175.404 211.343C175.626 211.231 175.775 210.972 175.737 210.713V208.601C175.737 208.046 175.108 207.712 174.663 208.009L145.176 225.271C144.954 225.382 144.805 225.642 144.843 225.901Z" fill="url(#paint32_linear_302_13591)"/>
<mask id="mask4_302_13591" style="mask-type:luminance" maskUnits="userSpaceOnUse" x="61" y="180" width="61" height="76">
<path d="M61.9735 180.113L62.4921 221.269L121.393 255.461L120.874 214.342L61.9735 180.113Z" fill="white"/>
</mask>
<g mask="url(#mask4_302_13591)">
<path d="M132.247 230.79V232.902C132.247 233.457 131.618 233.791 131.173 233.494L101.686 216.232C101.463 216.121 101.315 215.861 101.352 215.602V213.49C101.352 212.935 101.982 212.601 102.427 212.898L131.914 230.16C132.136 230.272 132.284 230.531 132.247 230.79Z" fill="url(#paint33_linear_302_13591)"/>
<path d="M132.247 238.422V240.533C132.247 241.089 131.618 241.422 131.173 241.126L101.686 223.863C101.463 223.752 101.315 223.493 101.352 223.233V221.122C101.352 220.566 101.982 220.233 102.427 220.529L131.914 237.792C132.136 237.903 132.284 238.162 132.247 238.422Z" fill="url(#paint34_linear_302_13591)"/>
<path d="M132.247 246.015V248.126C132.247 248.682 131.618 249.015 131.173 248.719L101.686 231.456C101.463 231.345 101.315 231.086 101.352 230.827V228.715C101.352 228.159 101.982 227.826 102.427 228.122L131.914 245.385C132.136 245.496 132.284 245.755 132.247 246.015Z" fill="url(#paint35_linear_302_13591)"/>
</g>
<mask id="mask5_302_13591" style="mask-type:luminance" maskUnits="userSpaceOnUse" x="120" y="180" width="61" height="76">
<path d="M120.875 214.342L121.394 255.461L180.628 221.27L180.109 180.113L120.875 214.342Z" fill="white"/>
</mask>
<g mask="url(#mask5_302_13591)">
<path d="M101.353 235.79V237.901C101.353 238.457 101.983 238.79 102.428 238.494L131.915 221.231C132.137 221.12 132.285 220.861 132.248 220.602V218.49C132.248 217.934 131.619 217.601 131.174 217.897L101.687 235.16C101.464 235.271 101.316 235.53 101.353 235.79Z" fill="url(#paint36_linear_302_13591)"/>
<path d="M101.353 243.383V245.494C101.353 246.05 101.983 246.384 102.428 246.087L131.915 228.824C132.137 228.713 132.285 228.454 132.248 228.195V226.083C132.248 225.528 131.619 225.194 131.174 225.491L101.687 242.753C101.464 242.864 101.316 243.124 101.353 243.383Z" fill="url(#paint37_linear_302_13591)"/>
<path d="M101.353 251.014V253.126C101.353 253.682 101.983 254.015 102.428 253.719L131.915 236.456C132.137 236.345 132.285 236.085 132.248 235.826V233.715C132.248 233.159 131.619 232.825 131.174 233.122L101.687 250.385C101.464 250.496 101.316 250.755 101.353 251.014Z" fill="url(#paint38_linear_302_13591)"/>
</g>
<path d="M180.108 180.114L120.875 214.343L61.974 180.114L121.393 148.441L180.108 180.114Z" fill="url(#paint39_linear_302_13591)"/>
<path d="M61.9745 131.178L62.493 172.297L121.394 206.526L120.875 165.37L61.9745 131.178Z" fill="url(#paint40_linear_302_13591)"/>
<path d="M120.875 165.37L121.394 206.526L180.628 172.334L180.109 131.178L120.875 165.37Z" fill="url(#paint41_linear_302_13591)"/>
<path d="M144.843 161.703V163.814C144.843 164.37 145.472 164.703 145.917 164.407L175.404 147.144C175.626 147.033 175.775 146.774 175.737 146.515V144.403C175.737 143.847 175.108 143.514 174.663 143.81L145.176 161.073C144.954 161.184 144.805 161.443 144.843 161.703Z" fill="url(#paint42_linear_302_13591)"/>
<path d="M144.843 169.334V171.446C144.843 172.001 145.472 172.335 145.917 172.038L175.404 154.776C175.626 154.665 175.775 154.405 175.737 154.146V152.034C175.737 151.479 175.108 151.145 174.663 151.442L145.176 168.704C144.954 168.815 144.805 169.075 144.843 169.334Z" fill="url(#paint43_linear_302_13591)"/>
<path d="M144.843 176.966V179.077C144.843 179.633 145.472 179.967 145.917 179.67L175.404 162.407C175.626 162.296 175.775 162.037 175.737 161.778V159.666C175.737 159.111 175.108 158.777 174.663 159.074L145.176 176.336C144.954 176.447 144.805 176.707 144.843 176.966Z" fill="url(#paint44_linear_302_13591)"/>
<mask id="mask6_302_13591" style="mask-type:luminance" maskUnits="userSpaceOnUse" x="61" y="131" width="61" height="76">
<path d="M61.9735 131.178L62.4921 172.297L121.393 206.526L120.874 165.37L61.9735 131.178Z" fill="white"/>
</mask>
<g mask="url(#mask6_302_13591)">
<path d="M132.247 181.855V183.967C132.247 184.522 131.618 184.856 131.173 184.559L101.686 167.297C101.463 167.186 101.315 166.926 101.352 166.667V164.555C101.352 164 101.982 163.666 102.427 163.963L131.914 181.225C132.136 181.336 132.284 181.596 132.247 181.855Z" fill="url(#paint45_linear_302_13591)"/>
<path d="M132.247 189.448V191.56C132.247 192.116 131.618 192.449 131.173 192.153L101.686 174.89C101.463 174.779 101.315 174.519 101.352 174.26V172.149C101.352 171.593 101.982 171.26 102.427 171.556L131.914 188.819C132.136 188.93 132.284 189.189 132.247 189.448Z" fill="url(#paint46_linear_302_13591)"/>
<path d="M132.247 197.08V199.191C132.247 199.747 131.618 200.08 131.173 199.784L101.686 182.521C101.463 182.41 101.315 182.151 101.352 181.892V179.78C101.352 179.224 101.982 178.891 102.427 179.187L131.914 196.45C132.136 196.561 132.284 196.82 132.247 197.08Z" fill="url(#paint47_linear_302_13591)"/>
</g>
<mask id="mask7_302_13591" style="mask-type:luminance" maskUnits="userSpaceOnUse" x="120" y="131" width="61" height="76">
<path d="M120.875 165.37L121.394 206.526L180.628 172.334L180.109 131.178L120.875 165.37Z" fill="white"/>
</mask>
<g mask="url(#mask7_302_13591)">
<path d="M101.353 186.818V188.93C101.353 189.486 101.983 189.819 102.428 189.523L131.915 172.26C132.137 172.149 132.285 171.89 132.248 171.63V169.519C132.248 168.963 131.619 168.63 131.174 168.926L101.687 186.189C101.464 186.3 101.316 186.559 101.353 186.818Z" fill="url(#paint48_linear_302_13591)"/>
<path d="M101.353 194.449V196.561C101.353 197.117 101.983 197.45 102.428 197.154L131.915 179.891C132.137 179.78 132.285 179.52 132.248 179.261V177.15C132.248 176.594 131.619 176.261 131.174 176.557L101.687 193.82C101.464 193.931 101.316 194.19 101.353 194.449Z" fill="url(#paint49_linear_302_13591)"/>
<path d="M101.353 202.081V204.193C101.353 204.748 101.983 205.082 102.428 204.785L131.915 187.523C132.137 187.412 132.285 187.152 132.248 186.893V184.781C132.248 184.226 131.619 183.892 131.174 184.189L101.687 201.451C101.464 201.563 101.316 201.822 101.353 202.081Z" fill="url(#paint50_linear_302_13591)"/>
</g>
<path d="M180.108 131.178L120.875 165.37L61.974 131.178L121.393 99.5054L180.108 131.178Z" fill="url(#paint51_linear_302_13591)"/>
<path d="M70.4222 149.33C69.422 148.738 68.607 149.219 68.5699 150.367C68.5699 151.516 69.3849 152.924 70.3851 153.516C71.3853 154.109 72.2003 153.627 72.2373 152.479C72.2373 151.331 71.4224 149.886 70.4222 149.33Z" fill="url(#paint52_linear_302_13591)"/>
<path d="M70.4222 157.036C69.422 156.443 68.607 156.925 68.5699 158.073C68.5699 159.221 69.3849 160.629 70.3851 161.222C71.3853 161.815 72.2003 161.333 72.2373 160.185C72.2373 159.036 71.4224 157.629 70.4222 157.036Z" fill="url(#paint53_linear_302_13591)"/>
<path d="M70.4222 164.703C69.422 164.111 68.607 164.592 68.5699 165.741C68.5699 166.889 69.3849 168.297 70.3851 168.889C71.3853 169.482 72.2003 169 72.2373 167.852C72.2373 166.704 71.4224 165.296 70.4222 164.703Z" fill="url(#paint54_linear_302_13591)"/>
<path d="M451.237 220.641C451.237 220.641 451.423 220.456 451.497 220.344C452.793 219.048 453.942 217.714 455.053 216.381C455.683 215.603 456.313 214.862 456.905 214.084C457.683 213.047 458.424 212.047 459.091 211.009C459.461 210.417 459.869 209.824 460.239 209.194C461.017 207.861 461.721 206.527 462.314 205.156C462.462 204.86 462.647 204.527 462.758 204.23C463.462 202.6 464.018 200.933 464.499 199.266C464.61 198.859 464.685 198.451 464.796 198.007C465.129 196.673 465.351 195.34 465.5 194.043C465.537 193.635 465.611 193.191 465.648 192.783C465.796 191.079 465.833 189.375 465.722 187.671L467.944 290.988C467.944 290.988 467.944 291.284 467.944 291.433C468.019 292.729 468.019 294.063 467.944 295.359C467.944 295.619 467.87 295.841 467.87 296.1C467.87 296.508 467.759 296.952 467.722 297.36C467.648 297.989 467.611 298.656 467.5 299.286C467.389 299.953 467.167 300.657 467.018 301.323C466.907 301.731 466.833 302.175 466.722 302.583C466.648 302.805 466.611 303.028 466.574 303.25C466.166 304.583 465.685 305.954 465.129 307.288C465.129 307.362 465.055 307.436 465.018 307.547C464.87 307.843 464.722 308.177 464.573 308.473C464.129 309.473 463.647 310.51 463.092 311.511C462.906 311.844 462.684 312.177 462.462 312.511C462.091 313.104 461.721 313.733 461.314 314.326C460.943 314.882 460.647 315.437 460.276 315.993C459.943 316.475 459.535 316.919 459.165 317.401C458.572 318.179 457.98 318.957 457.313 319.697C456.979 320.105 456.683 320.549 456.313 320.957C455.498 321.883 454.646 322.772 453.719 323.661C453.608 323.772 453.534 323.846 453.46 323.958C452.386 325.032 451.237 326.069 450.052 327.106C449.57 327.514 449.052 327.921 448.57 328.292C448.089 328.662 447.644 329.07 447.163 329.44C445.31 330.885 443.384 332.33 441.273 333.737C439.087 335.182 436.79 336.553 434.456 337.849C433.678 338.257 432.9 338.664 432.123 339.072C430.493 339.924 428.863 340.776 427.159 341.554C426.233 341.998 425.269 342.406 424.306 342.813C422.713 343.517 421.083 344.184 419.416 344.851C418.416 345.258 417.416 345.629 416.379 345.999C415.749 346.221 415.119 346.481 414.489 346.703C413.786 346.925 413.082 347.11 412.378 347.333C410.229 348.036 408.044 348.703 405.821 349.333C405.117 349.518 404.45 349.777 403.71 349.963C403.117 350.111 402.487 350.222 401.894 350.37C400.487 350.704 399.079 351.037 397.671 351.333C396.745 351.519 395.856 351.778 394.93 351.963C394.152 352.111 393.374 352.222 392.633 352.371C391.559 352.556 390.485 352.778 389.373 352.963C388.632 353.074 387.892 353.26 387.151 353.371C385.891 353.556 384.595 353.704 383.335 353.889C382.52 354.001 381.705 354.112 380.89 354.223C380.557 354.26 380.223 354.334 379.89 354.371C377.593 354.63 375.259 354.816 372.926 355.001C372.777 355.001 372.629 355.001 372.481 355.001C372 355.001 371.555 355.038 371.073 355.075C369.444 355.186 367.776 355.26 366.147 355.297C365.369 355.297 364.628 355.297 363.85 355.297C363.072 355.297 362.257 355.297 361.479 355.297C360.775 355.297 360.108 355.297 359.404 355.297C357.589 355.297 355.774 355.223 353.959 355.112C353.626 355.112 353.292 355.112 352.959 355.112C352.885 355.112 352.774 355.112 352.699 355.112C350.403 355.001 348.143 354.816 345.883 354.63C345.476 354.593 345.068 354.519 344.661 354.482C343.846 354.408 343.031 354.297 342.216 354.186C341.105 354.038 339.956 353.964 338.882 353.778C338.03 353.667 337.178 353.482 336.326 353.371C335.326 353.223 334.325 353.037 333.325 352.889C332.695 352.778 332.066 352.704 331.473 352.593C330.362 352.371 329.324 352.111 328.25 351.852C327.028 351.593 325.805 351.333 324.62 351.037C324.212 350.926 323.768 350.852 323.36 350.741C322.508 350.518 321.693 350.222 320.841 350C318.989 349.481 317.174 348.962 315.359 348.37C314.877 348.222 314.322 348.073 313.84 347.925C312.729 347.555 311.654 347.11 310.543 346.666C309.765 346.369 308.95 346.073 308.209 345.777C305.764 344.776 303.393 343.739 301.097 342.591C281.204 332.663 270.683 318.697 269.683 304.065L267.46 200.748C268.424 215.344 278.944 229.309 298.874 239.274C301.171 240.423 303.579 241.46 305.986 242.46C306.764 242.756 307.542 243.053 308.32 243.349C309.913 243.942 311.506 244.534 313.136 245.053C314.914 245.646 316.766 246.164 318.619 246.683C319.878 247.016 321.138 247.387 322.397 247.72C323.583 248.017 324.805 248.276 326.027 248.535C327.732 248.906 329.399 249.276 331.14 249.572C332.14 249.758 333.14 249.906 334.14 250.054C336.104 250.35 338.067 250.647 340.03 250.869C340.845 250.98 341.66 251.054 342.475 251.165C345.216 251.462 347.995 251.684 350.81 251.795C351.144 251.795 351.44 251.795 351.773 251.795C354.292 251.906 356.811 251.943 359.33 251.943C360.108 251.943 360.923 251.943 361.701 251.943C364.109 251.943 366.48 251.832 368.888 251.684C369.369 251.684 369.851 251.647 370.333 251.61C373.148 251.425 375.963 251.165 378.779 250.832C379.594 250.721 380.409 250.61 381.224 250.499C383.261 250.239 385.261 249.943 387.262 249.61C388.336 249.424 389.447 249.239 390.522 249.017C392.226 248.683 393.893 248.35 395.597 247.98C397.004 247.683 398.412 247.35 399.82 247.016C401.153 246.683 402.45 246.313 403.747 245.979C405.969 245.349 408.155 244.72 410.34 243.979C411.674 243.534 413.045 243.09 414.341 242.608C415.378 242.238 416.379 241.867 417.379 241.46C419.046 240.83 420.676 240.126 422.269 239.422C423.232 239.015 424.195 238.607 425.121 238.163C426.825 237.385 428.455 236.533 430.048 235.681C430.826 235.273 431.641 234.866 432.419 234.458C434.753 233.162 437.049 231.791 439.235 230.346C441.347 228.939 443.273 227.494 445.125 226.049C445.607 225.679 446.088 225.271 446.533 224.901C448.274 223.456 449.941 222.011 451.423 220.53L451.237 220.641Z" fill="url(#paint55_linear_302_13591)"/>
<path d="M439.051 230.458C476.465 205.564 474.354 169.149 434.346 149.183C394.264 129.179 331.474 133.179 294.059 158.11C256.644 183.004 258.682 219.419 298.764 239.386C338.809 259.353 401.636 255.389 439.051 230.458Z" fill="url(#paint56_linear_302_13591)"/>
<path d="M287.102 199.538C285.413 174.102 319.623 151.119 363.513 148.204C407.403 145.289 444.353 163.545 446.043 188.981C447.732 214.417 413.522 237.4 369.631 240.316C325.741 243.231 288.791 224.974 287.102 199.538Z" fill="url(#paint57_linear_302_13591)"/>
<path d="M367.701 170.039V147.256L405.523 125.548L367.701 170.039Z" fill="url(#paint58_linear_302_13591)"/>
<path d="M367.701 170.039V147.256L329.842 125.548L367.701 170.039Z" fill="url(#paint59_linear_302_13591)"/>
<path d="M367.701 50.978V145.515L405.523 123.992L367.701 50.978Z" fill="url(#paint60_linear_302_13591)"/>
<path d="M367.701 50.978V145.515L329.842 123.992L367.701 50.978Z" fill="url(#paint61_linear_302_13591)"/>
<path style="mix-blend-mode:screen" d="M465.722 187.709C465.833 189.413 465.796 191.117 465.647 192.821C465.647 193.228 465.536 193.673 465.499 194.08C465.351 195.414 465.092 196.747 464.795 198.044C464.684 198.451 464.61 198.859 464.499 199.303C464.055 200.97 463.462 202.6 462.758 204.267C462.61 204.564 462.462 204.897 462.313 205.194C461.684 206.527 461.017 207.898 460.239 209.231C459.868 209.824 459.498 210.454 459.091 211.047C458.424 212.084 457.683 213.121 456.905 214.121C456.312 214.899 455.72 215.677 455.053 216.418C453.941 217.752 452.793 219.085 451.496 220.382C451.385 220.493 451.311 220.567 451.237 220.678C449.755 222.16 448.088 223.605 446.347 225.049C445.903 225.42 445.421 225.827 444.94 226.198C443.087 227.679 441.161 229.124 439.05 230.495C436.864 231.94 434.604 233.31 432.233 234.607C431.455 235.051 430.678 235.422 429.863 235.829C428.233 236.681 426.603 237.533 424.936 238.311C424.01 238.756 423.046 239.163 422.083 239.571C420.49 240.275 418.86 240.941 417.193 241.608C416.193 242.016 415.156 242.386 414.156 242.757C412.822 243.238 411.489 243.683 410.155 244.127C408.006 244.831 405.784 245.498 403.561 246.128C402.265 246.498 400.968 246.868 399.634 247.165C398.227 247.498 396.819 247.832 395.411 248.128C393.744 248.498 392.04 248.869 390.336 249.165C389.262 249.35 388.188 249.573 387.076 249.758C385.076 250.091 383.038 250.388 381.038 250.647C380.223 250.758 379.408 250.869 378.593 250.98C375.778 251.314 372.999 251.573 370.147 251.758C369.665 251.758 369.184 251.795 368.702 251.832C366.294 251.981 363.924 252.055 361.516 252.092C360.738 252.092 359.923 252.092 359.145 252.092C356.626 252.092 354.107 252.055 351.588 251.944C351.254 251.944 350.958 251.944 350.625 251.944C347.846 251.795 345.068 251.573 342.29 251.314C341.475 251.24 340.66 251.129 339.845 251.017C337.881 250.795 335.918 250.499 333.955 250.202C332.954 250.054 331.954 249.869 330.954 249.721C329.25 249.425 327.546 249.054 325.842 248.684C324.62 248.424 323.397 248.165 322.212 247.869C320.915 247.535 319.693 247.165 318.433 246.831C316.581 246.313 314.766 245.794 312.951 245.201C311.321 244.683 309.728 244.09 308.135 243.497C307.357 243.201 306.579 242.942 305.801 242.608C303.356 241.608 300.985 240.571 298.688 239.422C279.314 229.754 268.831 216.233 267.423 202.045V-24H465.759V191.117L465.684 187.709H465.722Z" fill="url(#paint62_linear_302_13591)"/>
<path style="mix-blend-mode:screen" d="M446.014 189.079C446.088 190.449 446.051 191.82 445.94 193.19C445.94 193.524 445.866 193.857 445.829 194.191C445.68 195.265 445.495 196.302 445.236 197.377C445.162 197.71 445.088 198.043 445.014 198.377C444.643 199.71 444.199 201.044 443.643 202.34C443.532 202.6 443.384 202.822 443.273 203.081C442.791 204.156 442.235 205.23 441.606 206.304C441.309 206.786 441.013 207.267 440.717 207.749C440.198 208.564 439.605 209.416 438.975 210.231C438.494 210.861 438.012 211.453 437.494 212.083C436.605 213.157 435.679 214.232 434.641 215.269C434.567 215.343 434.493 215.417 434.419 215.491C433.234 216.677 431.9 217.862 430.492 219.01C430.122 219.307 429.751 219.64 429.344 219.937C427.862 221.122 426.306 222.27 424.639 223.382C422.898 224.53 421.083 225.641 419.194 226.679C418.564 227.012 417.934 227.345 417.305 227.679C416.008 228.346 414.711 229.049 413.341 229.679C412.6 230.013 411.822 230.346 411.044 230.716C409.747 231.272 408.451 231.828 407.117 232.346C406.302 232.643 405.487 232.976 404.672 233.273C403.635 233.643 402.524 234.013 401.45 234.347C399.708 234.902 397.967 235.458 396.189 235.94C395.152 236.236 394.115 236.532 393.04 236.792C391.929 237.051 390.781 237.31 389.669 237.57C388.336 237.866 386.965 238.162 385.632 238.422C384.78 238.57 383.891 238.755 383.038 238.866C381.446 239.126 379.816 239.385 378.186 239.57C377.519 239.644 376.889 239.755 376.222 239.829C373.963 240.089 371.74 240.311 369.48 240.459C369.11 240.459 368.702 240.459 368.332 240.533C366.406 240.644 364.479 240.718 362.59 240.755C361.96 240.755 361.331 240.755 360.701 240.755C358.663 240.755 356.663 240.755 354.625 240.644C354.366 240.644 354.107 240.644 353.848 240.644C351.625 240.533 349.402 240.348 347.18 240.126C346.513 240.052 345.883 239.978 345.216 239.903C343.623 239.718 342.067 239.496 340.512 239.237C339.697 239.126 338.919 238.977 338.104 238.829C336.733 238.57 335.362 238.311 334.029 238.014C333.066 237.792 332.103 237.607 331.139 237.384C330.102 237.125 329.102 236.829 328.102 236.569C326.62 236.162 325.138 235.717 323.73 235.273C322.434 234.828 321.137 234.384 319.878 233.902C319.248 233.68 318.618 233.458 318.026 233.198C316.062 232.42 314.173 231.568 312.321 230.642C296.799 222.9 288.427 212.083 287.279 200.71V19.6377H446.162V191.968L446.088 189.227L446.014 189.079Z" fill="url(#paint63_linear_302_13591)"/>
<defs>
<linearGradient id="paint0_linear_302_13591" x1="89.4988" y1="255.575" x2="251.049" y2="134.255" gradientUnits="userSpaceOnUse">
<stop stop-color="#85FFC4"/>
<stop offset="0.57" stop-color="#85FFC4"/>
<stop offset="0.87" stop-color="#85FFC4"/>
<stop offset="0.99" stop-color="#85FFC4"/>
</linearGradient>
<linearGradient id="paint1_linear_302_13591" x1="202.78" y1="56.0141" x2="205.039" y2="228.752" gradientUnits="userSpaceOnUse">
<stop stop-color="#85FFC4"/>
<stop offset="0.06" stop-color="#83F5C3"/>
<stop offset="0.16" stop-color="#7FDCC2"/>
<stop offset="0.29" stop-color="#78B2C1"/>
<stop offset="0.44" stop-color="#6F79BF"/>
<stop offset="0.57" stop-color="#6742BD"/>
<stop offset="0.87" stop-color="#411D87"/>
<stop offset="0.99" stop-color="#3C148A"/>
</linearGradient>
<linearGradient id="paint2_linear_302_13591" x1="263.311" y1="77.0183" x2="262.866" y2="168.592" gradientUnits="userSpaceOnUse">
<stop stop-color="#85FFC4"/>
<stop offset="0.06" stop-color="#83F5C3"/>
<stop offset="0.16" stop-color="#7FDCC2"/>
<stop offset="0.29" stop-color="#78B2C1"/>
<stop offset="0.44" stop-color="#6F79BF"/>
<stop offset="0.57" stop-color="#6742BD"/>
<stop offset="0.87" stop-color="#411D87"/>
<stop offset="0.99" stop-color="#3C148A"/>
</linearGradient>
<linearGradient id="paint3_linear_302_13591" x1="305.578" y1="135.845" x2="209.855" y2="115.322" gradientUnits="userSpaceOnUse">
<stop stop-color="#85FFC4"/>
<stop offset="0.06" stop-color="#83F5C3"/>
<stop offset="0.16" stop-color="#7FDCC2"/>
<stop offset="0.29" stop-color="#78B2C1"/>
<stop offset="0.44" stop-color="#6F79BF"/>
<stop offset="0.57" stop-color="#6742BD"/>
<stop offset="0.87" stop-color="#411D87"/>
<stop offset="0.99" stop-color="#3C148A"/>
</linearGradient>
<linearGradient id="paint4_linear_302_13591" x1="304.022" y1="143.142" x2="208.299" y2="122.619" gradientUnits="userSpaceOnUse">
<stop stop-color="#85FFC4"/>
<stop offset="0.06" stop-color="#83F5C3"/>
<stop offset="0.16" stop-color="#7FDCC2"/>
<stop offset="0.29" stop-color="#78B2C1"/>
<stop offset="0.44" stop-color="#6F79BF"/>
<stop offset="0.57" stop-color="#6742BD"/>
<stop offset="0.87" stop-color="#411D87"/>
<stop offset="0.99" stop-color="#3C148A"/>
</linearGradient>
<linearGradient id="paint5_linear_302_13591" x1="302.429" y1="150.403" x2="206.743" y2="129.917" gradientUnits="userSpaceOnUse">
<stop stop-color="#85FFC4"/>
<stop offset="0.06" stop-color="#83F5C3"/>
<stop offset="0.16" stop-color="#7FDCC2"/>
<stop offset="0.29" stop-color="#78B2C1"/>
<stop offset="0.44" stop-color="#6F79BF"/>
<stop offset="0.57" stop-color="#6742BD"/>
<stop offset="0.87" stop-color="#411D87"/>
<stop offset="0.99" stop-color="#3C148A"/>
</linearGradient>
<linearGradient id="paint6_linear_302_13591" x1="193.519" y1="120.657" x2="342.882" y2="239.384" gradientUnits="userSpaceOnUse">
<stop stop-color="#85FFC4"/>
<stop offset="0.06" stop-color="#83F5C3"/>
<stop offset="0.16" stop-color="#7FDCC2"/>
<stop offset="0.29" stop-color="#78B2C1"/>
<stop offset="0.44" stop-color="#6F79BF"/>
<stop offset="0.57" stop-color="#6742BD"/>
<stop offset="0.87" stop-color="#411D87"/>
<stop offset="0.99" stop-color="#3C148A"/>
</linearGradient>
<linearGradient id="paint7_linear_302_13591" x1="189.778" y1="125.325" x2="339.141" y2="244.052" gradientUnits="userSpaceOnUse">
<stop stop-color="#85FFC4"/>
<stop offset="0.06" stop-color="#83F5C3"/>
<stop offset="0.16" stop-color="#7FDCC2"/>
<stop offset="0.29" stop-color="#78B2C1"/>
<stop offset="0.44" stop-color="#6F79BF"/>
<stop offset="0.57" stop-color="#6742BD"/>
<stop offset="0.87" stop-color="#411D87"/>
<stop offset="0.99" stop-color="#3C148A"/>
</linearGradient>
<linearGradient id="paint8_linear_302_13591" x1="186.073" y1="129.993" x2="335.436" y2="248.72" gradientUnits="userSpaceOnUse">
<stop stop-color="#85FFC4"/>
<stop offset="0.06" stop-color="#83F5C3"/>
<stop offset="0.16" stop-color="#7FDCC2"/>
<stop offset="0.29" stop-color="#78B2C1"/>
<stop offset="0.44" stop-color="#6F79BF"/>
<stop offset="0.57" stop-color="#6742BD"/>
<stop offset="0.87" stop-color="#411D87"/>
<stop offset="0.99" stop-color="#3C148A"/>
</linearGradient>
<linearGradient id="paint9_linear_302_13591" x1="244.492" y1="153.885" x2="213.597" y2="153.885" gradientUnits="userSpaceOnUse">
<stop stop-color="#85FFC4"/>
<stop offset="0.06" stop-color="#83F5C3"/>
<stop offset="0.16" stop-color="#7FDCC2"/>
<stop offset="0.29" stop-color="#78B2C1"/>
<stop offset="0.44" stop-color="#6F79BF"/>
<stop offset="0.57" stop-color="#6742BD"/>
<stop offset="0.87" stop-color="#411D87"/>
<stop offset="0.99" stop-color="#3C148A"/>
</linearGradient>
<linearGradient id="paint10_linear_302_13591" x1="244.492" y1="161.516" x2="213.597" y2="161.516" gradientUnits="userSpaceOnUse">
<stop stop-color="#85FFC4"/>
<stop offset="0.06" stop-color="#83F5C3"/>
<stop offset="0.16" stop-color="#7FDCC2"/>
<stop offset="0.29" stop-color="#78B2C1"/>
<stop offset="0.44" stop-color="#6F79BF"/>
<stop offset="0.57" stop-color="#6742BD"/>
<stop offset="0.87" stop-color="#411D87"/>
<stop offset="0.99" stop-color="#3C148A"/>
</linearGradient>
<linearGradient id="paint11_linear_302_13591" x1="244.492" y1="169.146" x2="213.597" y2="169.146" gradientUnits="userSpaceOnUse">
<stop stop-color="#85FFC4"/>
<stop offset="0.06" stop-color="#83F5C3"/>
<stop offset="0.16" stop-color="#7FDCC2"/>
<stop offset="0.29" stop-color="#78B2C1"/>
<stop offset="0.44" stop-color="#6F79BF"/>
<stop offset="0.57" stop-color="#6742BD"/>
<stop offset="0.87" stop-color="#411D87"/>
<stop offset="0.99" stop-color="#3C148A"/>
</linearGradient>
<linearGradient id="paint12_linear_302_13591" x1="232.712" y1="7.22774" x2="235.49" y2="468.615" gradientUnits="userSpaceOnUse">
<stop stop-color="#85FFC4"/>
<stop offset="0.06" stop-color="#83F5C3"/>
<stop offset="0.16" stop-color="#7FDCC2"/>
<stop offset="0.29" stop-color="#78B2C1"/>
<stop offset="0.44" stop-color="#6F79BF"/>
<stop offset="0.57" stop-color="#6742BD"/>
<stop offset="0.87" stop-color="#411D87"/>
<stop offset="0.99" stop-color="#3C148A"/>
</linearGradient>
<linearGradient id="paint13_linear_302_13591" x1="202.78" y1="7.07905" x2="205.039" y2="179.817" gradientUnits="userSpaceOnUse">
<stop stop-color="#85FFC4"/>
<stop offset="0.06" stop-color="#83F5C3"/>
<stop offset="0.16" stop-color="#7FDCC2"/>
<stop offset="0.29" stop-color="#78B2C1"/>
<stop offset="0.44" stop-color="#6F79BF"/>
<stop offset="0.57" stop-color="#6742BD"/>
<stop offset="0.87" stop-color="#411D87"/>
<stop offset="0.99" stop-color="#3C148A"/>
</linearGradient>
<linearGradient id="paint14_linear_302_13591" x1="263.311" y1="28.0832" x2="262.866" y2="119.657" gradientUnits="userSpaceOnUse">
<stop stop-color="#85FFC4"/>
<stop offset="0.06" stop-color="#83F5C3"/>
<stop offset="0.16" stop-color="#7FDCC2"/>
<stop offset="0.29" stop-color="#78B2C1"/>
<stop offset="0.44" stop-color="#6F79BF"/>
<stop offset="0.57" stop-color="#6742BD"/>
<stop offset="0.87" stop-color="#411D87"/>
<stop offset="0.99" stop-color="#3C148A"/>
</linearGradient>
<linearGradient id="paint15_linear_302_13591" x1="305.578" y1="86.9101" x2="209.855" y2="66.3876" gradientUnits="userSpaceOnUse">
<stop stop-color="#85FFC4"/>
<stop offset="0.06" stop-color="#83F5C3"/>
<stop offset="0.16" stop-color="#7FDCC2"/>
<stop offset="0.29" stop-color="#78B2C1"/>
<stop offset="0.44" stop-color="#6F79BF"/>
<stop offset="0.57" stop-color="#6742BD"/>
<stop offset="0.87" stop-color="#411D87"/>
<stop offset="0.99" stop-color="#3C148A"/>
</linearGradient>
<linearGradient id="paint16_linear_302_13591" x1="304.022" y1="94.1706" x2="208.299" y2="73.685" gradientUnits="userSpaceOnUse">
<stop stop-color="#85FFC4"/>
<stop offset="0.06" stop-color="#83F5C3"/>
<stop offset="0.16" stop-color="#7FDCC2"/>
<stop offset="0.29" stop-color="#78B2C1"/>
<stop offset="0.44" stop-color="#6F79BF"/>
<stop offset="0.57" stop-color="#6742BD"/>
<stop offset="0.87" stop-color="#411D87"/>
<stop offset="0.99" stop-color="#3C148A"/>
</linearGradient>
<linearGradient id="paint17_linear_302_13591" x1="302.429" y1="101.469" x2="206.743" y2="80.9465" gradientUnits="userSpaceOnUse">
<stop stop-color="#85FFC4"/>
<stop offset="0.06" stop-color="#83F5C3"/>
<stop offset="0.16" stop-color="#7FDCC2"/>
<stop offset="0.29" stop-color="#78B2C1"/>
<stop offset="0.44" stop-color="#6F79BF"/>
<stop offset="0.57" stop-color="#6742BD"/>
<stop offset="0.87" stop-color="#411D87"/>
<stop offset="0.99" stop-color="#3C148A"/>
</linearGradient>
<linearGradient id="paint18_linear_302_13591" x1="193.519" y1="71.7217" x2="342.882" y2="190.449" gradientUnits="userSpaceOnUse">
<stop stop-color="#85FFC4"/>
<stop offset="0.06" stop-color="#83F5C3"/>
<stop offset="0.16" stop-color="#7FDCC2"/>
<stop offset="0.29" stop-color="#78B2C1"/>
<stop offset="0.44" stop-color="#6F79BF"/>
<stop offset="0.57" stop-color="#6742BD"/>
<stop offset="0.87" stop-color="#411D87"/>
<stop offset="0.99" stop-color="#3C148A"/>
</linearGradient>
<linearGradient id="paint19_linear_302_13591" x1="189.778" y1="76.3895" x2="339.141" y2="195.117" gradientUnits="userSpaceOnUse">
<stop stop-color="#85FFC4"/>
<stop offset="0.06" stop-color="#83F5C3"/>
<stop offset="0.16" stop-color="#7FDCC2"/>
<stop offset="0.29" stop-color="#78B2C1"/>
<stop offset="0.44" stop-color="#6F79BF"/>
<stop offset="0.57" stop-color="#6742BD"/>
<stop offset="0.87" stop-color="#411D87"/>
<stop offset="0.99" stop-color="#3C148A"/>
</linearGradient>
<linearGradient id="paint20_linear_302_13591" x1="186.073" y1="81.0562" x2="335.436" y2="199.783" gradientUnits="userSpaceOnUse">
<stop stop-color="#85FFC4"/>
<stop offset="0.06" stop-color="#83F5C3"/>
<stop offset="0.16" stop-color="#7FDCC2"/>
<stop offset="0.29" stop-color="#78B2C1"/>
<stop offset="0.44" stop-color="#6F79BF"/>
<stop offset="0.57" stop-color="#6742BD"/>
<stop offset="0.87" stop-color="#411D87"/>
<stop offset="0.99" stop-color="#3C148A"/>
</linearGradient>
<linearGradient id="paint21_linear_302_13591" x1="244.492" y1="104.949" x2="213.597" y2="104.949" gradientUnits="userSpaceOnUse">
<stop stop-color="#85FFC4"/>
<stop offset="0.06" stop-color="#83F5C3"/>
<stop offset="0.16" stop-color="#7FDCC2"/>
<stop offset="0.29" stop-color="#78B2C1"/>
<stop offset="0.44" stop-color="#6F79BF"/>
<stop offset="0.57" stop-color="#6742BD"/>
<stop offset="0.87" stop-color="#411D87"/>
<stop offset="0.99" stop-color="#3C148A"/>
</linearGradient>
<linearGradient id="paint22_linear_302_13591" x1="244.492" y1="112.58" x2="213.597" y2="112.58" gradientUnits="userSpaceOnUse">
<stop stop-color="#85FFC4"/>
<stop offset="0.06" stop-color="#83F5C3"/>
<stop offset="0.16" stop-color="#7FDCC2"/>
<stop offset="0.29" stop-color="#78B2C1"/>
<stop offset="0.44" stop-color="#6F79BF"/>
<stop offset="0.57" stop-color="#6742BD"/>
<stop offset="0.87" stop-color="#411D87"/>
<stop offset="0.99" stop-color="#3C148A"/>
</linearGradient>
<linearGradient id="paint23_linear_302_13591" x1="244.492" y1="120.174" x2="213.597" y2="120.174" gradientUnits="userSpaceOnUse">
<stop stop-color="#85FFC4"/>
<stop offset="0.06" stop-color="#83F5C3"/>
<stop offset="0.16" stop-color="#7FDCC2"/>
<stop offset="0.29" stop-color="#78B2C1"/>
<stop offset="0.44" stop-color="#6F79BF"/>
<stop offset="0.57" stop-color="#6742BD"/>
<stop offset="0.87" stop-color="#411D87"/>
<stop offset="0.99" stop-color="#3C148A"/>
</linearGradient>
<linearGradient id="paint24_linear_302_13591" x1="232.712" y1="-41.7077" x2="235.49" y2="419.68" gradientUnits="userSpaceOnUse">
<stop stop-color="#85FFC4"/>
<stop offset="0.06" stop-color="#83F5C3"/>
<stop offset="0.16" stop-color="#7FDCC2"/>
<stop offset="0.29" stop-color="#78B2C1"/>
<stop offset="0.44" stop-color="#6F79BF"/>
<stop offset="0.57" stop-color="#6742BD"/>
<stop offset="0.87" stop-color="#411D87"/>
<stop offset="0.99" stop-color="#3C148A"/>
</linearGradient>
<linearGradient id="paint25_linear_302_13591" x1="181.368" y1="70.9814" x2="186.035" y2="93.0597" gradientUnits="userSpaceOnUse">
<stop stop-color="#85FFC4"/>
<stop offset="0.1" stop-color="#84FBC3"/>
<stop offset="0.18" stop-color="#82F1C3"/>
<stop offset="0.26" stop-color="#80E0C2"/>
<stop offset="0.34" stop-color="#7CC7C1"/>
<stop offset="0.41" stop-color="#77A8C0"/>
<stop offset="0.48" stop-color="#7181BF"/>
<stop offset="0.54" stop-color="#6954BD"/>
<stop offset="0.57" stop-color="#6742BD"/>
<stop offset="0.87" stop-color="#411D87"/>
<stop offset="0.99" stop-color="#3C148A"/>
</linearGradient>
<linearGradient id="paint26_linear_302_13591" x1="181.368" y1="78.6499" x2="186.035" y2="100.728" gradientUnits="userSpaceOnUse">
<stop stop-color="#85FFC4"/>
<stop offset="0.1" stop-color="#84FBC3"/>
<stop offset="0.18" stop-color="#82F1C3"/>
<stop offset="0.26" stop-color="#80E0C2"/>
<stop offset="0.34" stop-color="#7CC7C1"/>
<stop offset="0.41" stop-color="#77A8C0"/>
<stop offset="0.48" stop-color="#7181BF"/>
<stop offset="0.54" stop-color="#6954BD"/>
<stop offset="0.57" stop-color="#6742BD"/>
<stop offset="0.87" stop-color="#411D87"/>
<stop offset="0.99" stop-color="#3C148A"/>
</linearGradient>
<linearGradient id="paint27_linear_302_13591" x1="181.368" y1="86.3174" x2="186.035" y2="108.396" gradientUnits="userSpaceOnUse">
<stop stop-color="#85FFC4"/>
<stop offset="0.1" stop-color="#84FBC3"/>
<stop offset="0.18" stop-color="#82F1C3"/>
<stop offset="0.26" stop-color="#80E0C2"/>
<stop offset="0.34" stop-color="#7CC7C1"/>
<stop offset="0.41" stop-color="#77A8C0"/>
<stop offset="0.48" stop-color="#7181BF"/>
<stop offset="0.54" stop-color="#6954BD"/>
<stop offset="0.57" stop-color="#6742BD"/>
<stop offset="0.87" stop-color="#411D87"/>
<stop offset="0.99" stop-color="#3C148A"/>
</linearGradient>
<linearGradient id="paint28_linear_302_13591" x1="90.5356" y1="130.326" x2="92.7953" y2="303.063" gradientUnits="userSpaceOnUse">
<stop stop-color="#85FFC4"/>
<stop offset="0.06" stop-color="#83F5C3"/>
<stop offset="0.16" stop-color="#7FDCC2"/>
<stop offset="0.29" stop-color="#78B2C1"/>
<stop offset="0.44" stop-color="#6F79BF"/>
<stop offset="0.57" stop-color="#6742BD"/>
<stop offset="0.87" stop-color="#411D87"/>
<stop offset="0.99" stop-color="#3C148A"/>
</linearGradient>
<linearGradient id="paint29_linear_302_13591" x1="151.067" y1="151.33" x2="150.622" y2="242.903" gradientUnits="userSpaceOnUse">
<stop stop-color="#85FFC4"/>
<stop offset="0.06" stop-color="#83F5C3"/>
<stop offset="0.16" stop-color="#7FDCC2"/>
<stop offset="0.29" stop-color="#78B2C1"/>
<stop offset="0.44" stop-color="#6F79BF"/>
<stop offset="0.57" stop-color="#6742BD"/>
<stop offset="0.87" stop-color="#411D87"/>
<stop offset="0.99" stop-color="#3C148A"/>
</linearGradient>
<linearGradient id="paint30_linear_302_13591" x1="193.334" y1="210.157" x2="97.611" y2="189.634" gradientUnits="userSpaceOnUse">
<stop stop-color="#85FFC4"/>
<stop offset="0.06" stop-color="#83F5C3"/>
<stop offset="0.16" stop-color="#7FDCC2"/>
<stop offset="0.29" stop-color="#78B2C1"/>
<stop offset="0.44" stop-color="#6F79BF"/>
<stop offset="0.57" stop-color="#6742BD"/>
<stop offset="0.87" stop-color="#411D87"/>
<stop offset="0.99" stop-color="#3C148A"/>
</linearGradient>
<linearGradient id="paint31_linear_302_13591" x1="191.741" y1="217.417" x2="96.0551" y2="196.932" gradientUnits="userSpaceOnUse">
<stop stop-color="#85FFC4"/>
<stop offset="0.06" stop-color="#83F5C3"/>
<stop offset="0.16" stop-color="#7FDCC2"/>
<stop offset="0.29" stop-color="#78B2C1"/>
<stop offset="0.44" stop-color="#6F79BF"/>
<stop offset="0.57" stop-color="#6742BD"/>
<stop offset="0.87" stop-color="#411D87"/>
<stop offset="0.99" stop-color="#3C148A"/>
</linearGradient>
<linearGradient id="paint32_linear_302_13591" x1="190.185" y1="224.716" x2="94.4622" y2="204.193" gradientUnits="userSpaceOnUse">
<stop stop-color="#85FFC4"/>
<stop offset="0.06" stop-color="#83F5C3"/>
<stop offset="0.16" stop-color="#7FDCC2"/>
<stop offset="0.29" stop-color="#78B2C1"/>
<stop offset="0.44" stop-color="#6F79BF"/>
<stop offset="0.57" stop-color="#6742BD"/>
<stop offset="0.87" stop-color="#411D87"/>
<stop offset="0.99" stop-color="#3C148A"/>
</linearGradient>
<linearGradient id="paint33_linear_302_13591" x1="81.2742" y1="194.968" x2="230.637" y2="313.695" gradientUnits="userSpaceOnUse">
<stop stop-color="#85FFC4"/>
<stop offset="0.06" stop-color="#83F5C3"/>
<stop offset="0.16" stop-color="#7FDCC2"/>
<stop offset="0.29" stop-color="#78B2C1"/>
<stop offset="0.44" stop-color="#6F79BF"/>
<stop offset="0.57" stop-color="#6742BD"/>
<stop offset="0.87" stop-color="#411D87"/>
<stop offset="0.99" stop-color="#3C148A"/>
</linearGradient>
<linearGradient id="paint34_linear_302_13591" x1="77.5328" y1="199.636" x2="226.896" y2="318.363" gradientUnits="userSpaceOnUse">
<stop stop-color="#85FFC4"/>
<stop offset="0.06" stop-color="#83F5C3"/>
<stop offset="0.16" stop-color="#7FDCC2"/>
<stop offset="0.29" stop-color="#78B2C1"/>
<stop offset="0.44" stop-color="#6F79BF"/>
<stop offset="0.57" stop-color="#6742BD"/>
<stop offset="0.87" stop-color="#411D87"/>
<stop offset="0.99" stop-color="#3C148A"/>
</linearGradient>
<linearGradient id="paint35_linear_302_13591" x1="73.8283" y1="204.303" x2="223.191" y2="323.03" gradientUnits="userSpaceOnUse">
<stop stop-color="#85FFC4"/>
<stop offset="0.06" stop-color="#83F5C3"/>
<stop offset="0.16" stop-color="#7FDCC2"/>
<stop offset="0.29" stop-color="#78B2C1"/>
<stop offset="0.44" stop-color="#6F79BF"/>
<stop offset="0.57" stop-color="#6742BD"/>
<stop offset="0.87" stop-color="#411D87"/>
<stop offset="0.99" stop-color="#3C148A"/>
</linearGradient>
<linearGradient id="paint36_linear_302_13591" x1="132.248" y1="228.196" x2="101.353" y2="228.196" gradientUnits="userSpaceOnUse">
<stop stop-color="#85FFC4"/>
<stop offset="0.06" stop-color="#83F5C3"/>
<stop offset="0.16" stop-color="#7FDCC2"/>
<stop offset="0.29" stop-color="#78B2C1"/>
<stop offset="0.44" stop-color="#6F79BF"/>
<stop offset="0.57" stop-color="#6742BD"/>
<stop offset="0.87" stop-color="#411D87"/>
<stop offset="0.99" stop-color="#3C148A"/>
</linearGradient>
<linearGradient id="paint37_linear_302_13591" x1="132.248" y1="235.826" x2="101.353" y2="235.826" gradientUnits="userSpaceOnUse">
<stop stop-color="#85FFC4"/>
<stop offset="0.06" stop-color="#83F5C3"/>
<stop offset="0.16" stop-color="#7FDCC2"/>
<stop offset="0.29" stop-color="#78B2C1"/>
<stop offset="0.44" stop-color="#6F79BF"/>
<stop offset="0.57" stop-color="#6742BD"/>
<stop offset="0.87" stop-color="#411D87"/>
<stop offset="0.99" stop-color="#3C148A"/>
</linearGradient>
<linearGradient id="paint38_linear_302_13591" x1="132.248" y1="243.42" x2="101.353" y2="243.42" gradientUnits="userSpaceOnUse">
<stop stop-color="#85FFC4"/>
<stop offset="0.06" stop-color="#83F5C3"/>
<stop offset="0.16" stop-color="#7FDCC2"/>
<stop offset="0.29" stop-color="#78B2C1"/>
<stop offset="0.44" stop-color="#6F79BF"/>
<stop offset="0.57" stop-color="#6742BD"/>
<stop offset="0.87" stop-color="#411D87"/>
<stop offset="0.99" stop-color="#3C148A"/>
</linearGradient>
<linearGradient id="paint39_linear_302_13591" x1="120.467" y1="81.5388" x2="123.245" y2="542.926" gradientUnits="userSpaceOnUse">
<stop stop-color="#85FFC4"/>
<stop offset="0.06" stop-color="#83F5C3"/>
<stop offset="0.16" stop-color="#7FDCC2"/>
<stop offset="0.29" stop-color="#78B2C1"/>
<stop offset="0.44" stop-color="#6F79BF"/>
<stop offset="0.57" stop-color="#6742BD"/>
<stop offset="0.87" stop-color="#411D87"/>
<stop offset="0.99" stop-color="#3C148A"/>
</linearGradient>
<linearGradient id="paint40_linear_302_13591" x1="90.5356" y1="81.3901" x2="92.7953" y2="254.128" gradientUnits="userSpaceOnUse">
<stop stop-color="#85FFC4"/>
<stop offset="0.06" stop-color="#83F5C3"/>
<stop offset="0.16" stop-color="#7FDCC2"/>
<stop offset="0.29" stop-color="#78B2C1"/>
<stop offset="0.44" stop-color="#6F79BF"/>
<stop offset="0.57" stop-color="#6742BD"/>
<stop offset="0.87" stop-color="#411D87"/>
<stop offset="0.99" stop-color="#3C148A"/>
</linearGradient>
<linearGradient id="paint41_linear_302_13591" x1="151.067" y1="102.394" x2="150.622" y2="193.968" gradientUnits="userSpaceOnUse">
<stop stop-color="#85FFC4"/>
<stop offset="0.06" stop-color="#83F5C3"/>
<stop offset="0.16" stop-color="#7FDCC2"/>
<stop offset="0.29" stop-color="#78B2C1"/>
<stop offset="0.44" stop-color="#6F79BF"/>
<stop offset="0.57" stop-color="#6742BD"/>
<stop offset="0.87" stop-color="#411D87"/>
<stop offset="0.99" stop-color="#3C148A"/>
</linearGradient>
<linearGradient id="paint42_linear_302_13591" x1="193.334" y1="161.184" x2="97.611" y2="140.699" gradientUnits="userSpaceOnUse">
<stop stop-color="#85FFC4"/>
<stop offset="0.06" stop-color="#83F5C3"/>
<stop offset="0.16" stop-color="#7FDCC2"/>
<stop offset="0.29" stop-color="#78B2C1"/>
<stop offset="0.44" stop-color="#6F79BF"/>
<stop offset="0.57" stop-color="#6742BD"/>
<stop offset="0.87" stop-color="#411D87"/>
<stop offset="0.99" stop-color="#3C148A"/>
</linearGradient>
<linearGradient id="paint43_linear_302_13591" x1="191.741" y1="168.482" x2="96.0551" y2="147.96" gradientUnits="userSpaceOnUse">
<stop stop-color="#85FFC4"/>
<stop offset="0.06" stop-color="#83F5C3"/>
<stop offset="0.16" stop-color="#7FDCC2"/>
<stop offset="0.29" stop-color="#78B2C1"/>
<stop offset="0.44" stop-color="#6F79BF"/>
<stop offset="0.57" stop-color="#6742BD"/>
<stop offset="0.87" stop-color="#411D87"/>
<stop offset="0.99" stop-color="#3C148A"/>
</linearGradient>
<linearGradient id="paint44_linear_302_13591" x1="190.185" y1="175.781" x2="94.4622" y2="155.258" gradientUnits="userSpaceOnUse">
<stop stop-color="#85FFC4"/>
<stop offset="0.06" stop-color="#83F5C3"/>
<stop offset="0.16" stop-color="#7FDCC2"/>
<stop offset="0.29" stop-color="#78B2C1"/>
<stop offset="0.44" stop-color="#6F79BF"/>
<stop offset="0.57" stop-color="#6742BD"/>
<stop offset="0.87" stop-color="#411D87"/>
<stop offset="0.99" stop-color="#3C148A"/>
</linearGradient>
<linearGradient id="paint45_linear_302_13591" x1="81.2742" y1="145.996" x2="230.637" y2="264.76" gradientUnits="userSpaceOnUse">
<stop stop-color="#85FFC4"/>
<stop offset="0.06" stop-color="#83F5C3"/>
<stop offset="0.16" stop-color="#7FDCC2"/>
<stop offset="0.29" stop-color="#78B2C1"/>
<stop offset="0.44" stop-color="#6F79BF"/>
<stop offset="0.57" stop-color="#6742BD"/>
<stop offset="0.87" stop-color="#411D87"/>
<stop offset="0.99" stop-color="#3C148A"/>
</linearGradient>
<linearGradient id="paint46_linear_302_13591" x1="77.5328" y1="150.663" x2="226.896" y2="269.427" gradientUnits="userSpaceOnUse">
<stop stop-color="#85FFC4"/>
<stop offset="0.06" stop-color="#83F5C3"/>
<stop offset="0.16" stop-color="#7FDCC2"/>
<stop offset="0.29" stop-color="#78B2C1"/>
<stop offset="0.44" stop-color="#6F79BF"/>
<stop offset="0.57" stop-color="#6742BD"/>
<stop offset="0.87" stop-color="#411D87"/>
<stop offset="0.99" stop-color="#3C148A"/>
</linearGradient>
<linearGradient id="paint47_linear_302_13591" x1="73.8283" y1="155.331" x2="223.191" y2="274.095" gradientUnits="userSpaceOnUse">
<stop stop-color="#85FFC4"/>
<stop offset="0.06" stop-color="#83F5C3"/>
<stop offset="0.16" stop-color="#7FDCC2"/>
<stop offset="0.29" stop-color="#78B2C1"/>
<stop offset="0.44" stop-color="#6F79BF"/>
<stop offset="0.57" stop-color="#6742BD"/>
<stop offset="0.87" stop-color="#411D87"/>
<stop offset="0.99" stop-color="#3C148A"/>
</linearGradient>
<linearGradient id="paint48_linear_302_13591" x1="132.248" y1="179.261" x2="101.353" y2="179.261" gradientUnits="userSpaceOnUse">
<stop stop-color="#85FFC4"/>
<stop offset="0.06" stop-color="#83F5C3"/>
<stop offset="0.16" stop-color="#7FDCC2"/>
<stop offset="0.29" stop-color="#78B2C1"/>
<stop offset="0.44" stop-color="#6F79BF"/>
<stop offset="0.57" stop-color="#6742BD"/>
<stop offset="0.87" stop-color="#411D87"/>
<stop offset="0.99" stop-color="#3C148A"/>
</linearGradient>
<linearGradient id="paint49_linear_302_13591" x1="132.248" y1="186.855" x2="101.353" y2="186.855" gradientUnits="userSpaceOnUse">
<stop stop-color="#85FFC4"/>
<stop offset="0.06" stop-color="#83F5C3"/>
<stop offset="0.16" stop-color="#7FDCC2"/>
<stop offset="0.29" stop-color="#78B2C1"/>
<stop offset="0.44" stop-color="#6F79BF"/>
<stop offset="0.57" stop-color="#6742BD"/>
<stop offset="0.87" stop-color="#411D87"/>
<stop offset="0.99" stop-color="#3C148A"/>
</linearGradient>
<linearGradient id="paint50_linear_302_13591" x1="132.248" y1="194.487" x2="101.353" y2="194.487" gradientUnits="userSpaceOnUse">
<stop stop-color="#85FFC4"/>
<stop offset="0.06" stop-color="#83F5C3"/>
<stop offset="0.16" stop-color="#7FDCC2"/>
<stop offset="0.29" stop-color="#78B2C1"/>
<stop offset="0.44" stop-color="#6F79BF"/>
<stop offset="0.57" stop-color="#6742BD"/>
<stop offset="0.87" stop-color="#411D87"/>
<stop offset="0.99" stop-color="#3C148A"/>
</linearGradient>
<linearGradient id="paint51_linear_302_13591" x1="120.467" y1="32.5662" x2="123.245" y2="493.991" gradientUnits="userSpaceOnUse">
<stop stop-color="#85FFC4"/>
<stop offset="0.06" stop-color="#83F5C3"/>
<stop offset="0.16" stop-color="#7FDCC2"/>
<stop offset="0.29" stop-color="#78B2C1"/>
<stop offset="0.44" stop-color="#6F79BF"/>
<stop offset="0.57" stop-color="#6742BD"/>
<stop offset="0.87" stop-color="#411D87"/>
<stop offset="0.99" stop-color="#3C148A"/>
</linearGradient>
<linearGradient id="paint52_linear_302_13591" x1="69.1256" y1="145.255" x2="73.7933" y2="167.334" gradientUnits="userSpaceOnUse">
<stop stop-color="#85FFC4"/>
<stop offset="0.1" stop-color="#84FBC3"/>
<stop offset="0.18" stop-color="#82F1C3"/>
<stop offset="0.26" stop-color="#80E0C2"/>
<stop offset="0.34" stop-color="#7CC7C1"/>
<stop offset="0.41" stop-color="#77A8C0"/>
<stop offset="0.48" stop-color="#7181BF"/>
<stop offset="0.54" stop-color="#6954BD"/>
<stop offset="0.57" stop-color="#6742BD"/>
<stop offset="0.87" stop-color="#411D87"/>
<stop offset="0.99" stop-color="#3C148A"/>
</linearGradient>
<linearGradient id="paint53_linear_302_13591" x1="69.1256" y1="152.961" x2="73.7932" y2="175.039" gradientUnits="userSpaceOnUse">
<stop stop-color="#85FFC4"/>
<stop offset="0.1" stop-color="#84FBC3"/>
<stop offset="0.18" stop-color="#82F1C3"/>
<stop offset="0.26" stop-color="#80E0C2"/>
<stop offset="0.34" stop-color="#7CC7C1"/>
<stop offset="0.41" stop-color="#77A8C0"/>
<stop offset="0.48" stop-color="#7181BF"/>
<stop offset="0.54" stop-color="#6954BD"/>
<stop offset="0.57" stop-color="#6742BD"/>
<stop offset="0.87" stop-color="#411D87"/>
<stop offset="0.99" stop-color="#3C148A"/>
</linearGradient>
<linearGradient id="paint54_linear_302_13591" x1="69.1256" y1="160.628" x2="73.7933" y2="182.707" gradientUnits="userSpaceOnUse">
<stop stop-color="#85FFC4"/>
<stop offset="0.1" stop-color="#84FBC3"/>
<stop offset="0.18" stop-color="#82F1C3"/>
<stop offset="0.26" stop-color="#80E0C2"/>
<stop offset="0.34" stop-color="#7CC7C1"/>
<stop offset="0.41" stop-color="#77A8C0"/>
<stop offset="0.48" stop-color="#7181BF"/>
<stop offset="0.54" stop-color="#6954BD"/>
<stop offset="0.57" stop-color="#6742BD"/>
<stop offset="0.87" stop-color="#411D87"/>
<stop offset="0.99" stop-color="#3C148A"/>
</linearGradient>
<linearGradient id="paint55_linear_302_13591" x1="460.676" y1="272.563" x2="126.929" y2="265.689" gradientUnits="userSpaceOnUse">
<stop stop-color="#85FFC4"/>
<stop offset="0.06" stop-color="#83F5C3"/>
<stop offset="0.16" stop-color="#7FDCC2"/>
<stop offset="0.29" stop-color="#78B2C1"/>
<stop offset="0.44" stop-color="#6F79BF"/>
<stop offset="0.57" stop-color="#6742BD"/>
<stop offset="0.87" stop-color="#411D87"/>
<stop offset="0.99" stop-color="#3C148A"/>
</linearGradient>
<linearGradient id="paint56_linear_302_13591" x1="351.655" y1="324.874" x2="412.506" y2="-211.911" gradientUnits="userSpaceOnUse">
<stop stop-color="#85FFC4"/>
<stop offset="0.06" stop-color="#83F5C3"/>
<stop offset="0.16" stop-color="#7FDCC2"/>
<stop offset="0.29" stop-color="#78B2C1"/>
<stop offset="0.44" stop-color="#6F79BF"/>
<stop offset="0.57" stop-color="#6742BD"/>
<stop offset="0.87" stop-color="#411D87"/>
<stop offset="0.99" stop-color="#3C148A"/>
</linearGradient>
<linearGradient id="paint57_linear_302_13591" x1="263.996" y1="245.851" x2="561.234" y2="96.3815" gradientUnits="userSpaceOnUse">
<stop stop-color="#85FFC4"/>
<stop offset="0.06" stop-color="#83F5C3"/>
<stop offset="0.16" stop-color="#7FDCC2"/>
<stop offset="0.29" stop-color="#78B2C1"/>
<stop offset="0.44" stop-color="#6F79BF"/>
<stop offset="0.57" stop-color="#6742BD"/>
<stop offset="0.87" stop-color="#411D87"/>
<stop offset="0.99" stop-color="#3C148A"/>
</linearGradient>
<linearGradient id="paint58_linear_302_13591" x1="349.735" y1="110.916" x2="407.19" y2="168.372" gradientUnits="userSpaceOnUse">
<stop stop-color="#85FFC4"/>
<stop offset="0.06" stop-color="#83F5C3"/>
<stop offset="0.16" stop-color="#7FDCC2"/>
<stop offset="0.29" stop-color="#78B2C1"/>
<stop offset="0.44" stop-color="#6F79BF"/>
<stop offset="0.57" stop-color="#6742BD"/>
<stop offset="0.87" stop-color="#411D87"/>
<stop offset="0.99" stop-color="#3C148A"/>
</linearGradient>
<linearGradient id="paint59_linear_302_13591" x1="326.915" y1="70.0559" x2="359.403" y2="168.594" gradientUnits="userSpaceOnUse">
<stop stop-color="#85FFC4"/>
<stop offset="0.06" stop-color="#83F5C3"/>
<stop offset="0.16" stop-color="#7FDCC2"/>
<stop offset="0.29" stop-color="#78B2C1"/>
<stop offset="0.44" stop-color="#6F79BF"/>
<stop offset="0.57" stop-color="#6742BD"/>
<stop offset="0.87" stop-color="#411D87"/>
<stop offset="0.99" stop-color="#3C148A"/>
</linearGradient>
<linearGradient id="paint60_linear_302_13591" x1="352.735" y1="91.9491" x2="433.418" y2="125.845" gradientUnits="userSpaceOnUse">
<stop stop-color="#85FFC4"/>
<stop offset="0.06" stop-color="#83F5C3"/>
<stop offset="0.16" stop-color="#7FDCC2"/>
<stop offset="0.29" stop-color="#78B2C1"/>
<stop offset="0.44" stop-color="#6F79BF"/>
<stop offset="0.57" stop-color="#6742BD"/>
<stop offset="0.87" stop-color="#411D87"/>
<stop offset="0.99" stop-color="#3C148A"/>
</linearGradient>
<linearGradient id="paint61_linear_302_13591" x1="327.545" y1="58.3869" x2="393.966" y2="149.442" gradientUnits="userSpaceOnUse">
<stop stop-color="#85FFC4"/>
<stop offset="0.06" stop-color="#83F5C3"/>
<stop offset="0.16" stop-color="#7FDCC2"/>
<stop offset="0.29" stop-color="#78B2C1"/>
<stop offset="0.44" stop-color="#6F79BF"/>
<stop offset="0.57" stop-color="#6742BD"/>
<stop offset="0.87" stop-color="#411D87"/>
<stop offset="0.99" stop-color="#3C148A"/>
</linearGradient>
<linearGradient id="paint62_linear_302_13591" x1="366.665" y1="248.35" x2="366.665" y2="-570.812" gradientUnits="userSpaceOnUse">
<stop offset="0.04" stop-color="#85FFC4" stop-opacity="0.6"/>
<stop offset="0.09" stop-color="#AAFFD6" stop-opacity="0.41"/>
<stop offset="0.16" stop-color="#D8FFEC" stop-opacity="0.19"/>
<stop offset="0.21" stop-color="#F4FFF9" stop-opacity="0.05"/>
<stop offset="0.23" stop-color="white" stop-opacity="0"/>
</linearGradient>
<linearGradient id="paint63_linear_302_13591" x1="366.665" y1="237.644" x2="366.665" y2="-418.56" gradientUnits="userSpaceOnUse">
<stop offset="0.04" stop-color="#85FFC4" stop-opacity="0.8"/>
<stop offset="0.08" stop-color="#A7FFD4" stop-opacity="0.57"/>
<stop offset="0.15" stop-color="#D6FFEB" stop-opacity="0.27"/>
<stop offset="0.2" stop-color="#F3FFF9" stop-opacity="0.07"/>
<stop offset="0.22" stop-color="white" stop-opacity="0"/>
</linearGradient>
</defs>
</svg>
