<svg width="519" height="427" viewBox="0 0 519 427" fill="none" xmlns="http://www.w3.org/2000/svg">
<g opacity="0.8">
<path d="M23.3014 463.289L213.617 573.821L403.297 464.27L212.463 361.93L23.3014 463.289Z" stroke="url(#paint0_linear_302_17886)" stroke-width="1.44222" stroke-miterlimit="10"/>
<path d="M82.7789 453.368L213.559 529.344L343.878 454.06L212.752 383.738L82.7789 453.368Z" fill="url(#paint1_linear_302_17886)"/>
<path d="M152.179 402.715C152.179 402.715 152.064 402.6 152.006 402.485C151.083 401.562 150.218 400.581 149.41 399.6C148.949 399.023 148.487 398.504 148.083 397.927C147.506 397.177 146.987 396.427 146.526 395.677C146.237 395.216 145.949 394.812 145.718 394.351C145.141 393.37 144.622 392.389 144.218 391.408C144.103 391.178 143.987 390.947 143.872 390.716C143.353 389.505 142.949 388.293 142.603 387.082C142.545 386.793 142.487 386.505 142.372 386.159C142.141 385.178 141.968 384.255 141.853 383.274C141.853 382.986 141.795 382.64 141.737 382.351C141.622 381.082 141.622 379.871 141.737 378.659L139.949 453.712C139.949 453.712 139.949 453.943 139.949 454.058C139.949 455.039 139.949 455.962 139.949 456.943C139.949 457.116 139.949 457.289 140.007 457.462C140.007 457.75 140.064 458.097 140.122 458.385C140.122 458.847 140.18 459.308 140.295 459.77C140.353 460.289 140.526 460.75 140.641 461.27C140.699 461.558 140.757 461.904 140.872 462.193C140.872 462.366 140.93 462.539 140.987 462.654C141.276 463.635 141.622 464.615 142.026 465.596C142.026 465.654 142.084 465.712 142.084 465.769C142.199 466 142.314 466.231 142.43 466.462C142.776 467.211 143.064 467.904 143.468 468.654C143.583 468.884 143.757 469.115 143.93 469.346C144.16 469.807 144.449 470.211 144.737 470.673C145.026 471.077 145.199 471.48 145.487 471.884C145.718 472.23 146.064 472.576 146.295 472.923C146.699 473.5 147.16 474.076 147.622 474.596C147.852 474.884 148.083 475.23 148.314 475.519C148.891 476.211 149.525 476.845 150.16 477.48C150.218 477.538 150.275 477.595 150.333 477.711C151.141 478.461 151.948 479.268 152.814 480.018C153.16 480.307 153.564 480.595 153.91 480.884C154.256 481.172 154.602 481.461 154.948 481.749C156.275 482.787 157.66 483.883 159.217 484.864C160.775 485.903 162.448 486.941 164.178 487.864C164.755 488.152 165.332 488.441 165.851 488.729C167.005 489.364 168.217 489.999 169.428 490.575C170.12 490.922 170.813 491.21 171.505 491.498C172.659 492.018 173.87 492.537 175.082 492.998C175.831 493.287 176.524 493.575 177.274 493.864C177.735 494.037 178.197 494.21 178.658 494.383C179.177 494.556 179.697 494.671 180.216 494.844C181.773 495.364 183.389 495.825 185.004 496.287C185.523 496.46 185.985 496.633 186.504 496.748C186.965 496.864 187.369 496.921 187.831 497.037C188.869 497.267 189.85 497.498 190.888 497.729C191.581 497.902 192.215 498.075 192.907 498.19C193.484 498.306 194.003 498.363 194.58 498.479C195.388 498.652 196.138 498.767 196.946 498.883C197.465 498.998 198.042 499.113 198.561 499.171C199.484 499.286 200.407 499.402 201.33 499.517C201.907 499.575 202.484 499.69 203.118 499.748C203.349 499.748 203.638 499.806 203.868 499.863C205.541 500.036 207.214 500.209 208.945 500.325C209.06 500.325 209.176 500.325 209.291 500.325C209.637 500.325 209.983 500.325 210.329 500.325C211.541 500.382 212.695 500.498 213.906 500.498C214.483 500.498 215.002 500.498 215.579 500.498C216.156 500.498 216.733 500.498 217.31 500.498C217.829 500.498 218.29 500.498 218.81 500.498C220.136 500.498 221.463 500.44 222.79 500.383C223.021 500.383 223.252 500.383 223.54 500.383C223.598 500.383 223.656 500.383 223.713 500.383C225.386 500.325 227.001 500.209 228.674 500.036C228.963 500.036 229.251 499.979 229.597 499.921C230.174 499.863 230.751 499.806 231.386 499.748C232.193 499.633 233.001 499.575 233.809 499.459C234.443 499.402 235.02 499.229 235.655 499.171C236.405 499.056 237.097 498.94 237.847 498.825C238.308 498.767 238.77 498.71 239.174 498.594C239.981 498.421 240.731 498.248 241.539 498.075C242.404 497.902 243.327 497.729 244.193 497.498C244.481 497.44 244.827 497.383 245.116 497.267C245.75 497.094 246.327 496.921 246.962 496.748C248.289 496.402 249.616 495.998 250.942 495.594C251.288 495.479 251.692 495.364 252.038 495.248C252.846 494.96 253.654 494.671 254.404 494.325C254.98 494.094 255.557 493.921 256.134 493.691C257.923 492.998 259.653 492.248 261.326 491.383C275.806 484.23 283.479 474.076 284.229 463.462L286.017 388.409C285.267 399.023 277.594 409.177 263.115 416.33C261.442 417.138 259.711 417.888 257.923 418.638C257.346 418.868 256.769 419.041 256.25 419.272C255.096 419.676 253.942 420.137 252.731 420.484C251.404 420.887 250.077 421.291 248.75 421.637C247.827 421.868 246.904 422.157 245.981 422.387C245.116 422.618 244.25 422.791 243.327 422.964C242.116 423.253 240.847 423.483 239.635 423.714C238.885 423.829 238.193 423.945 237.443 424.06C236.001 424.291 234.616 424.464 233.174 424.637C232.597 424.695 231.963 424.753 231.386 424.81C229.367 424.983 227.348 425.156 225.329 425.272C225.098 425.272 224.867 425.272 224.636 425.272C222.79 425.329 221.002 425.387 219.156 425.387C218.579 425.387 218.002 425.387 217.425 425.387C215.694 425.387 213.964 425.272 212.233 425.214C211.887 425.214 211.541 425.214 211.195 425.214C209.176 425.099 207.099 424.868 205.08 424.637C204.503 424.579 203.868 424.464 203.291 424.406C201.791 424.233 200.349 424.003 198.907 423.772C198.099 423.656 197.349 423.483 196.542 423.368C195.33 423.137 194.061 422.849 192.85 422.618C191.811 422.387 190.831 422.157 189.792 421.926C188.811 421.695 187.888 421.407 186.965 421.176C185.35 420.714 183.735 420.253 182.177 419.734C181.197 419.387 180.216 419.099 179.293 418.753C178.543 418.464 177.793 418.176 177.101 417.888C175.889 417.426 174.735 416.907 173.524 416.388C172.832 416.099 172.139 415.753 171.447 415.465C170.236 414.888 169.024 414.253 167.87 413.676C167.294 413.388 166.717 413.099 166.14 412.753C164.467 411.773 162.794 410.792 161.179 409.753C159.679 408.715 158.236 407.677 156.91 406.638C156.563 406.35 156.217 406.061 155.871 405.773C154.602 404.734 153.391 403.696 152.352 402.6L152.179 402.715Z" fill="url(#paint2_linear_302_17886)"/>
<path d="M161.004 409.869C133.833 391.697 135.448 365.218 164.581 350.796C193.714 336.316 239.345 339.374 266.517 357.546C293.688 375.718 292.073 402.139 262.94 416.619C233.807 431.041 188.175 428.041 161.004 409.869Z" fill="url(#paint3_linear_302_17886)"/>
<path d="M171.505 404.677C149.756 390.139 151.025 368.91 174.389 357.372C197.753 345.777 234.328 348.2 256.076 362.795C277.825 377.333 276.556 398.562 253.192 410.1C229.828 421.695 193.253 419.272 171.505 404.677Z" fill="url(#paint4_linear_302_17886)"/>
<path style="mix-blend-mode:screen" d="M141.68 378.776C141.622 379.987 141.68 381.257 141.68 382.468C141.68 382.757 141.738 383.103 141.795 383.391C141.911 384.372 142.084 385.295 142.315 386.276C142.372 386.564 142.43 386.852 142.545 387.199C142.892 388.41 143.295 389.621 143.815 390.833C143.93 391.064 144.045 391.294 144.161 391.525C144.622 392.506 145.084 393.487 145.661 394.467C145.891 394.929 146.18 395.333 146.468 395.794C146.93 396.544 147.507 397.294 148.026 398.044C148.43 398.621 148.891 399.198 149.353 399.717C150.16 400.698 151.026 401.678 151.949 402.601C152.006 402.659 152.064 402.717 152.122 402.832C153.218 403.928 154.429 404.967 155.641 406.005C155.987 406.294 156.333 406.582 156.679 406.87C158.006 407.909 159.448 409.005 160.948 409.986C162.506 411.024 164.179 412.062 165.909 412.985C166.486 413.274 167.063 413.562 167.64 413.908C168.794 414.543 170.005 415.12 171.217 415.697C171.909 416.043 172.601 416.331 173.294 416.62C174.447 417.139 175.659 417.658 176.87 418.12C177.62 418.408 178.313 418.697 179.062 418.985C180.043 419.331 181.024 419.677 181.947 419.966C183.505 420.485 185.12 420.946 186.735 421.408C187.658 421.696 188.639 421.927 189.562 422.158C190.6 422.389 191.581 422.619 192.619 422.85C193.831 423.139 195.042 423.369 196.311 423.6C197.119 423.773 197.869 423.889 198.677 424.004C200.119 424.235 201.619 424.465 203.061 424.639C203.638 424.696 204.272 424.812 204.849 424.869C206.868 425.1 208.945 425.331 210.964 425.446C211.311 425.446 211.657 425.446 212.003 425.446C213.733 425.562 215.464 425.619 217.195 425.619C217.772 425.619 218.349 425.619 218.925 425.619C220.771 425.619 222.618 425.619 224.406 425.504C224.637 425.504 224.867 425.504 225.098 425.504C227.117 425.388 229.136 425.273 231.155 425.042C231.732 424.985 232.367 424.927 232.944 424.869C234.386 424.696 235.828 424.523 237.213 424.292C237.963 424.177 238.655 424.062 239.405 423.946C240.674 423.716 241.886 423.485 243.097 423.196C243.962 423.023 244.885 422.85 245.751 422.619C246.674 422.389 247.597 422.1 248.52 421.869C249.847 421.523 251.173 421.12 252.5 420.716C253.712 420.312 254.866 419.908 256.019 419.504C256.596 419.274 257.173 419.1 257.692 418.87C259.481 418.177 261.211 417.427 262.884 416.562C276.96 409.582 284.633 399.775 285.671 389.448L286.133 225.208L142.026 224.862L141.622 381.199V378.718L141.68 378.776Z" fill="url(#paint5_linear_302_17886)"/>
<path style="mix-blend-mode:screen" d="M156.044 379.814C155.987 380.795 156.044 381.776 156.044 382.814C156.044 383.045 156.045 383.275 156.102 383.564C156.218 384.314 156.333 385.122 156.506 385.871C156.506 386.102 156.621 386.333 156.679 386.621C156.967 387.602 157.256 388.525 157.66 389.506C157.717 389.679 157.833 389.852 157.891 390.025C158.237 390.833 158.64 391.583 159.102 392.39C159.333 392.736 159.506 393.083 159.737 393.429C160.14 394.006 160.544 394.64 161.006 395.217C161.352 395.679 161.698 396.14 162.044 396.544C162.679 397.352 163.371 398.102 164.121 398.851C164.121 398.851 164.236 398.967 164.294 399.025C165.159 399.89 166.14 400.755 167.121 401.563C167.409 401.794 167.64 402.024 167.928 402.255C169.024 403.12 170.121 403.928 171.332 404.793C172.601 405.659 173.928 406.466 175.313 407.216C175.774 407.447 176.236 407.678 176.697 407.909C177.62 408.428 178.601 408.889 179.581 409.351C180.101 409.582 180.678 409.87 181.255 410.101C182.178 410.505 183.158 410.908 184.081 411.312C184.658 411.543 185.235 411.774 185.87 412.004C186.619 412.293 187.427 412.524 188.177 412.812C189.446 413.216 190.715 413.62 191.985 413.966C192.735 414.197 193.484 414.37 194.292 414.6C195.1 414.831 195.907 415.004 196.715 415.177C197.696 415.408 198.676 415.581 199.657 415.812C200.292 415.927 200.926 416.043 201.561 416.158C202.715 416.331 203.926 416.504 205.08 416.677C205.541 416.735 206.003 416.793 206.522 416.85C208.137 417.023 209.81 417.196 211.426 417.312C211.714 417.312 212.003 417.312 212.233 417.312C213.618 417.37 215.002 417.427 216.387 417.485C216.848 417.485 217.31 417.485 217.772 417.485C219.214 417.485 220.714 417.485 222.156 417.427C222.329 417.427 222.502 417.427 222.733 417.427C224.348 417.37 225.963 417.196 227.579 417.081C228.04 417.081 228.559 416.966 229.021 416.908C230.175 416.793 231.328 416.62 232.424 416.447C233.001 416.331 233.578 416.273 234.155 416.158C235.136 415.985 236.116 415.754 237.155 415.581C237.847 415.408 238.597 415.293 239.289 415.12C240.039 414.947 240.789 414.716 241.482 414.543C242.578 414.254 243.616 413.966 244.654 413.62C245.577 413.331 246.558 412.985 247.481 412.639C247.943 412.466 248.404 412.293 248.866 412.12C250.308 411.543 251.692 410.966 253.019 410.274C264.326 404.678 270.441 396.832 271.307 388.583L272.057 118.311L156.621 118.022L155.929 381.891V379.93L156.044 379.814Z" fill="url(#paint6_linear_302_17886)"/>
<path d="M248.861 109.513C248.861 109.513 249.092 109.455 249.265 109.397C250.996 108.821 252.726 108.359 254.399 107.955C255.38 107.724 256.361 107.494 257.284 107.321C258.553 107.09 259.764 106.859 261.034 106.744C261.726 106.686 262.476 106.571 263.168 106.513C264.726 106.398 266.225 106.398 267.725 106.398C268.071 106.398 268.418 106.398 268.764 106.398C270.552 106.513 272.283 106.744 273.956 107.032C274.36 107.09 274.763 107.205 275.225 107.321C276.552 107.609 277.821 108.013 279.09 108.417C279.494 108.532 279.898 108.705 280.302 108.821C281.917 109.455 283.474 110.147 284.917 111.013L256.015 94.2253C256.015 94.2253 255.784 94.0522 255.611 93.9945C254.457 93.36 253.303 92.7831 252.092 92.2639C251.861 92.1485 251.63 92.0908 251.399 92.0331C250.996 91.86 250.592 91.7447 250.188 91.6293C249.553 91.3985 248.977 91.1678 248.342 90.9947C247.707 90.8216 246.957 90.7063 246.323 90.5332C245.919 90.4178 245.515 90.3024 245.054 90.2448C244.823 90.2448 244.592 90.1294 244.361 90.0717C242.977 89.8409 241.535 89.6679 240.092 89.5525C239.977 89.5525 239.919 89.5525 239.804 89.5525C239.458 89.5525 239.112 89.5525 238.766 89.5525C237.67 89.5525 236.573 89.4948 235.42 89.5525C235.016 89.5525 234.67 89.6679 234.266 89.6679C233.574 89.6679 232.881 89.7833 232.131 89.8986C231.497 89.9563 230.805 90.014 230.17 90.0717C229.593 90.1871 229.016 90.3601 228.439 90.4755C227.459 90.6486 226.536 90.8793 225.555 91.1101C225.036 91.2255 224.516 91.2832 223.997 91.4562C222.843 91.8024 221.632 92.1485 220.421 92.5523C220.305 92.5523 220.19 92.61 220.017 92.6677C218.575 93.1869 217.132 93.7061 215.69 94.283C215.113 94.5137 214.536 94.8022 213.959 95.0906C213.383 95.3214 212.863 95.6098 212.286 95.8406C210.152 96.8213 208.018 97.9174 205.825 99.1865C203.575 100.513 201.326 101.956 199.076 103.455C198.383 103.975 197.634 104.494 196.941 105.013C195.441 106.109 193.941 107.205 192.499 108.359C191.692 108.994 190.884 109.686 190.076 110.378C188.749 111.532 187.423 112.686 186.096 113.897C185.288 114.647 184.48 115.339 183.731 116.089C183.211 116.551 182.75 117.012 182.231 117.474C181.711 117.993 181.25 118.57 180.731 119.089C179.115 120.704 177.558 122.377 176 124.108C175.539 124.627 174.962 125.146 174.5 125.723C174.097 126.185 173.693 126.704 173.289 127.166C172.366 128.262 171.443 129.358 170.52 130.512C169.943 131.261 169.308 131.954 168.731 132.704C168.27 133.338 167.808 133.973 167.347 134.607C166.712 135.473 166.02 136.396 165.386 137.261C164.924 137.896 164.462 138.473 164.059 139.107C163.309 140.146 162.616 141.242 161.924 142.338C161.463 143.03 161.001 143.665 160.54 144.357C160.367 144.645 160.136 144.934 159.963 145.222C158.694 147.184 157.482 149.203 156.328 151.222C156.271 151.337 156.155 151.51 156.098 151.626C155.867 152.029 155.636 152.433 155.405 152.837C154.598 154.279 153.79 155.722 152.982 157.164C152.636 157.856 152.29 158.548 151.944 159.183C151.598 159.875 151.252 160.567 150.848 161.317C150.559 161.952 150.213 162.529 149.925 163.163C149.117 164.836 148.367 166.452 147.675 168.125C147.56 168.413 147.387 168.759 147.271 169.048C147.271 169.105 147.214 169.221 147.156 169.278C146.233 171.355 145.368 173.49 144.56 175.624C144.387 176.028 144.271 176.432 144.156 176.778C143.868 177.528 143.579 178.336 143.348 179.085C142.945 180.124 142.541 181.22 142.195 182.258C141.906 183.066 141.675 183.931 141.445 184.739C141.156 185.72 140.81 186.7 140.579 187.681C140.406 188.258 140.175 188.893 140.002 189.469C139.714 190.566 139.483 191.604 139.195 192.7C138.906 193.911 138.56 195.123 138.329 196.334C138.214 196.738 138.099 197.2 138.041 197.604C137.868 198.469 137.753 199.334 137.579 200.2C137.233 202.103 136.887 203.949 136.599 205.853C136.541 206.372 136.426 206.891 136.31 207.411C136.137 208.564 136.08 209.776 135.964 210.93C135.907 211.737 135.791 212.603 135.733 213.41C135.56 216.006 135.387 218.66 135.445 221.198C135.503 243.466 143.348 259.1 156.04 266.484L184.942 283.271C172.25 275.887 164.405 260.254 164.347 237.986C164.347 235.39 164.462 232.794 164.636 230.198C164.693 229.39 164.809 228.525 164.866 227.717C165.039 226.044 165.212 224.313 165.501 222.641C165.789 220.794 166.135 218.891 166.482 216.987C166.712 215.718 166.943 214.449 167.232 213.122C167.52 211.91 167.808 210.699 168.097 209.487C168.501 207.814 168.962 206.142 169.424 204.469C169.712 203.488 170.001 202.507 170.289 201.526C170.866 199.623 171.5 197.777 172.193 195.873C172.481 195.123 172.712 194.315 173 193.565C173.981 190.969 175.02 188.373 176.116 185.835C176.231 185.547 176.404 185.258 176.519 184.97C177.558 182.662 178.596 180.412 179.75 178.105C180.096 177.412 180.442 176.663 180.846 175.97C181.942 173.836 183.096 171.701 184.25 169.625C184.48 169.221 184.711 168.759 184.942 168.355C186.384 165.932 187.826 163.51 189.384 161.144C189.846 160.452 190.307 159.76 190.769 159.067C191.922 157.337 193.076 155.664 194.288 154.049C194.922 153.183 195.614 152.26 196.249 151.395C197.287 150.01 198.383 148.683 199.422 147.299C200.345 146.145 201.21 145.049 202.191 143.953C203.056 142.915 203.979 141.934 204.902 140.896C206.46 139.165 208.018 137.492 209.633 135.877C210.614 134.896 211.594 133.857 212.633 132.877C213.44 132.127 214.19 131.377 214.998 130.627C216.325 129.415 217.652 128.262 218.978 127.166C219.786 126.473 220.594 125.839 221.401 125.146C222.843 123.993 224.343 122.897 225.843 121.801C226.536 121.281 227.286 120.762 227.978 120.243C230.17 118.743 232.42 117.301 234.727 115.974C236.92 114.705 239.054 113.609 241.189 112.628C241.765 112.34 242.285 112.109 242.862 111.878C244.938 110.955 246.957 110.147 248.977 109.455L248.861 109.513Z" fill="url(#paint7_linear_302_17886)"/>
<path d="M234.67 116.089C273.668 93.5899 305.339 111.646 305.512 156.471C305.627 201.295 274.129 255.868 235.132 278.367C196.134 300.866 164.463 282.867 164.29 237.985C164.174 193.218 195.672 138.587 234.67 116.089Z" fill="url(#paint8_linear_302_17886)"/>
<path d="M234.727 132.184C265.937 114.127 291.378 128.607 291.493 164.547C291.609 200.487 266.341 244.158 235.131 262.214C203.922 280.271 178.481 265.791 178.366 229.851C178.25 193.969 203.518 150.24 234.727 132.184Z" fill="url(#paint9_linear_302_17886)"/>
<path d="M271.628 218.65C292.021 183.554 292.073 145.527 271.743 133.714C251.413 121.9 218.4 140.774 198.006 175.87C177.613 210.966 177.562 248.993 197.892 260.806C218.222 272.619 251.235 253.746 271.628 218.65Z" fill="url(#paint10_linear_302_17886)"/>
<path d="M250.073 186.47C256.419 185.085 259.822 189.758 259.822 197.373C259.822 206.257 255.15 215.718 249.035 221.602C247.535 222.987 246.035 224.141 244.535 225.237V233.14L238.593 236.602V228.871L233.459 231.813V239.544L227.517 243.005V235.275L212.402 243.986V236.486L219.729 232.275L219.556 179.605L212.229 183.816V176.49L227.286 167.779V159.933L233.228 156.472V164.317L238.362 161.375V153.53L244.304 150.068V158.318C246.092 157.568 247.765 157.164 249.265 157.049C253.938 156.76 257.342 160.337 257.342 167.606C257.342 174.182 254.515 181.105 250.015 186.412L250.073 186.47ZM245.804 215.949C249.208 212.372 251.342 206.892 251.342 201.815C251.342 194.835 247.304 192.585 241.189 196.104L228.036 203.719V227.141L240.554 219.929C242.227 219.006 244.189 217.622 245.804 215.949ZM227.921 175.336V195.873L240.324 188.778C245.631 185.72 248.919 179.605 248.919 173.432C248.919 169.509 247.592 166.913 245.054 166.74C243.381 166.74 241.477 167.49 238.997 168.933L227.921 175.336Z" fill="url(#paint11_linear_302_17886)"/>
<path d="M248.862 186.642C255.207 185.258 258.611 189.931 258.611 197.546C258.611 206.43 253.938 215.891 247.823 221.775C246.323 223.159 244.823 224.313 243.324 225.409V233.313L237.382 236.774V229.044L232.247 231.986V239.716L226.305 243.177V235.447L211.191 244.158V236.659L218.517 232.447L218.344 179.777L211.018 183.989V176.662L226.075 167.951V160.106L232.017 156.644V164.49L237.151 161.548V153.702L243.093 150.241V158.49C244.881 157.74 246.554 157.336 248.054 157.221C252.727 156.933 256.13 160.509 256.13 167.778C256.13 174.355 253.304 181.277 248.804 186.585L248.862 186.642ZM244.593 216.121C247.996 212.545 250.131 207.064 250.131 201.988C250.131 195.007 246.093 192.757 239.978 196.276L226.825 203.891V227.313L239.343 220.102C241.016 219.179 242.977 217.794 244.593 216.121ZM226.709 175.508V196.046L239.112 188.95C244.42 185.892 247.708 179.777 247.708 173.605C247.708 169.682 246.381 167.086 243.843 166.913C242.17 166.913 240.266 167.663 237.785 169.105L226.709 175.508Z" fill="url(#paint12_linear_302_17886)"/>
<path d="M306.153 232.215C351.475 156.487 352.646 73.8095 308.767 47.5489C264.889 21.2883 192.578 61.3892 147.256 137.117C101.934 212.844 100.763 295.522 144.642 321.783C188.52 348.044 260.831 307.943 306.153 232.215Z" stroke="url(#paint13_linear_302_17886)" stroke-width="1.44222" stroke-miterlimit="10"/>
<path d="M308.872 321.924C352.75 295.663 351.58 212.985 306.258 137.258C260.935 61.5301 188.624 21.4291 144.746 47.6897C100.868 73.9503 102.038 156.628 147.36 232.356C192.682 308.083 264.993 348.184 308.872 321.924Z" stroke="url(#paint14_linear_302_17886)" stroke-width="1.44222" stroke-miterlimit="10"/>
<path d="M133.717 93.5317C64.1439 113.146 49.3755 169.912 100.776 220.216C152.177 270.636 250.248 295.5 319.821 275.886C389.393 256.272 404.219 199.564 352.761 149.201C301.36 98.839 203.289 73.9175 133.717 93.5317Z" stroke="url(#paint15_linear_302_17886)" stroke-width="1.44222" stroke-miterlimit="10"/>
<path d="M475.351 336.723L474.659 346.184L403.298 387.373L403.99 377.912L475.351 336.723Z" fill="url(#paint16_linear_302_17886)"/>
<path d="M403.989 377.91L403.297 387.371L331.705 345.777L332.397 336.316L403.989 377.91Z" fill="url(#paint17_linear_302_17886)"/>
<path d="M332.398 336.317L403.99 377.911L475.351 336.721L403.528 298.185L332.398 336.317Z" fill="url(#paint18_linear_302_17886)"/>
<path d="M297.554 341.681L403.471 403.235L509.041 342.2L402.836 285.261L297.554 341.681Z" stroke="url(#paint19_linear_302_17886)" stroke-width="1.44222" stroke-miterlimit="10"/>
<path d="M293.861 406.003L353.396 374.102" stroke="url(#paint20_linear_302_17886)" stroke-width="1.44222" stroke-miterlimit="10"/>
<path d="M-48.7533 333.606L-48.061 343.067L23.3 384.314L22.6078 374.796L-48.7533 333.606Z" fill="url(#paint21_linear_302_17886)"/>
<path d="M22.6083 374.794L23.3006 384.313L94.8924 342.719L94.2578 333.201L22.6083 374.794Z" fill="url(#paint22_linear_302_17886)"/>
<path d="M94.2574 333.202L22.6079 374.795L-48.7532 333.605L23.0694 295.069L94.2574 333.202Z" fill="url(#paint23_linear_302_17886)"/>
<path d="M129.044 338.565L23.1278 400.119L-82.4427 339.084L23.7624 282.146L129.044 338.565Z" stroke="url(#paint24_linear_302_17886)" stroke-width="1.44222" stroke-miterlimit="10"/>
<path d="M128.639 406.812L67.489 374.045" stroke="url(#paint25_linear_302_17886)" stroke-width="1.44222" stroke-miterlimit="10"/>
</g>
<defs>
<linearGradient id="paint0_linear_302_17886" x1="214.182" y1="360.983" x2="212.354" y2="574.543" gradientUnits="userSpaceOnUse">
<stop stop-color="#6742BD"/>
<stop offset="0.57" stop-color="#6742BD"/>
<stop offset="0.87" stop-color="#6742BD"/>
<stop offset="0.99" stop-color="#6742BD"/>
</linearGradient>
<linearGradient id="paint1_linear_302_17886" x1="215.203" y1="235.745" x2="206.36" y2="1255.49" gradientUnits="userSpaceOnUse">
<stop stop-color="#85FFC4"/>
<stop offset="0.06" stop-color="#83F5C3"/>
<stop offset="0.16" stop-color="#7FDCC2"/>
<stop offset="0.29" stop-color="#78B2C1"/>
<stop offset="0.44" stop-color="#6F79BF"/>
<stop offset="0.57" stop-color="#6742BD"/>
<stop offset="0.87" stop-color="#411D87"/>
<stop offset="0.99" stop-color="#3C148A"/>
</linearGradient>
<linearGradient id="paint2_linear_302_17886" x1="145.164" y1="440.072" x2="387.76" y2="435.744" gradientUnits="userSpaceOnUse">
<stop stop-color="#85FFC4"/>
<stop offset="0.06" stop-color="#83F5C3"/>
<stop offset="0.16" stop-color="#7FDCC2"/>
<stop offset="0.29" stop-color="#78B2C1"/>
<stop offset="0.44" stop-color="#6F79BF"/>
<stop offset="0.57" stop-color="#6742BD"/>
<stop offset="0.87" stop-color="#411D87"/>
<stop offset="0.99" stop-color="#3C148A"/>
</linearGradient>
<linearGradient id="paint3_linear_302_17886" x1="224.311" y1="478.334" x2="181.141" y2="88.1295" gradientUnits="userSpaceOnUse">
<stop stop-color="#85FFC4"/>
<stop offset="0.06" stop-color="#83F5C3"/>
<stop offset="0.16" stop-color="#7FDCC2"/>
<stop offset="0.29" stop-color="#78B2C1"/>
<stop offset="0.44" stop-color="#6F79BF"/>
<stop offset="0.57" stop-color="#6742BD"/>
<stop offset="0.87" stop-color="#411D87"/>
<stop offset="0.99" stop-color="#3C148A"/>
</linearGradient>
<linearGradient id="paint4_linear_302_17886" x1="288.186" y1="421.041" x2="72.4552" y2="311.835" gradientUnits="userSpaceOnUse">
<stop stop-color="#85FFC4"/>
<stop offset="0.06" stop-color="#83F5C3"/>
<stop offset="0.16" stop-color="#7FDCC2"/>
<stop offset="0.29" stop-color="#78B2C1"/>
<stop offset="0.44" stop-color="#6F79BF"/>
<stop offset="0.57" stop-color="#6742BD"/>
<stop offset="0.87" stop-color="#411D87"/>
<stop offset="0.99" stop-color="#3C148A"/>
</linearGradient>
<linearGradient id="paint5_linear_302_17886" x1="213.618" y1="422.941" x2="215.176" y2="-172.348" gradientUnits="userSpaceOnUse">
<stop offset="0.04" stop-color="#85FFC4" stop-opacity="0.6"/>
<stop offset="0.09" stop-color="#AAFFD6" stop-opacity="0.41"/>
<stop offset="0.16" stop-color="#D8FFEC" stop-opacity="0.19"/>
<stop offset="0.21" stop-color="#F4FFF9" stop-opacity="0.05"/>
<stop offset="0.23" stop-color="white" stop-opacity="0"/>
</linearGradient>
<linearGradient id="paint6_linear_302_17886" x1="213.643" y1="413.249" x2="215.968" y2="-475.04" gradientUnits="userSpaceOnUse">
<stop stop-color="#85FFC4"/>
<stop offset="0.05" stop-color="#B8FFDC" stop-opacity="0.58"/>
<stop offset="0.1" stop-color="#DEFFEF" stop-opacity="0.27"/>
<stop offset="0.13" stop-color="#F5FFFA" stop-opacity="0.07"/>
<stop offset="0.14" stop-color="white" stop-opacity="0"/>
</linearGradient>
<linearGradient id="paint7_linear_302_17886" x1="237.67" y1="94.0522" x2="96.5051" y2="394.322" gradientUnits="userSpaceOnUse">
<stop stop-color="#85FFC4"/>
<stop offset="0.06" stop-color="#83F5C3"/>
<stop offset="0.16" stop-color="#7FDCC2"/>
<stop offset="0.29" stop-color="#78B2C1"/>
<stop offset="0.44" stop-color="#6F79BF"/>
<stop offset="0.57" stop-color="#6742BD"/>
<stop offset="0.87" stop-color="#411D87"/>
<stop offset="0.99" stop-color="#3C148A"/>
</linearGradient>
<linearGradient id="paint8_linear_302_17886" x1="111.158" y1="152.432" x2="619.743" y2="336.46" gradientUnits="userSpaceOnUse">
<stop stop-color="#85FFC4"/>
<stop offset="0.06" stop-color="#83F5C3"/>
<stop offset="0.16" stop-color="#7FDCC2"/>
<stop offset="0.29" stop-color="#78B2C1"/>
<stop offset="0.44" stop-color="#6F79BF"/>
<stop offset="0.57" stop-color="#6742BD"/>
<stop offset="0.87" stop-color="#411D87"/>
<stop offset="0.99" stop-color="#3C148A"/>
</linearGradient>
<linearGradient id="paint9_linear_302_17886" x1="143.118" y1="266.195" x2="409.294" y2="66.0148" gradientUnits="userSpaceOnUse">
<stop stop-color="#85FFC4"/>
<stop offset="0.06" stop-color="#83F5C3"/>
<stop offset="0.16" stop-color="#7FDCC2"/>
<stop offset="0.29" stop-color="#78B2C1"/>
<stop offset="0.44" stop-color="#6F79BF"/>
<stop offset="0.57" stop-color="#6742BD"/>
<stop offset="0.87" stop-color="#411D87"/>
<stop offset="0.99" stop-color="#3C148A"/>
</linearGradient>
<linearGradient id="paint10_linear_302_17886" x1="271.959" y1="21.466" x2="138.987" y2="650.562" gradientUnits="userSpaceOnUse">
<stop stop-color="#85FFC4"/>
<stop offset="0.1" stop-color="#84FBC3"/>
<stop offset="0.18" stop-color="#82F1C3"/>
<stop offset="0.26" stop-color="#80E0C2"/>
<stop offset="0.34" stop-color="#7CC7C1"/>
<stop offset="0.41" stop-color="#77A8C0"/>
<stop offset="0.48" stop-color="#7181BF"/>
<stop offset="0.54" stop-color="#6954BD"/>
<stop offset="0.57" stop-color="#6742BD"/>
<stop offset="0.87" stop-color="#411D87"/>
<stop offset="0.99" stop-color="#3C148A"/>
</linearGradient>
<linearGradient id="paint11_linear_302_17886" x1="280.59" y1="165.471" x2="260.976" y2="179.144" gradientUnits="userSpaceOnUse">
<stop stop-color="#85FFC4"/>
<stop offset="0.06" stop-color="#83F5C3"/>
<stop offset="0.16" stop-color="#7FDCC2"/>
<stop offset="0.29" stop-color="#78B2C1"/>
<stop offset="0.44" stop-color="#6F79BF"/>
<stop offset="0.57" stop-color="#6742BD"/>
<stop offset="0.87" stop-color="#411D87"/>
<stop offset="0.99" stop-color="#3C148A"/>
</linearGradient>
<linearGradient id="paint12_linear_302_17886" x1="297.205" y1="138.876" x2="196.019" y2="232.62" gradientUnits="userSpaceOnUse">
<stop stop-color="#85FFC4"/>
<stop offset="0.06" stop-color="#83F5C3"/>
<stop offset="0.16" stop-color="#7FDCC2"/>
<stop offset="0.29" stop-color="#78B2C1"/>
<stop offset="0.44" stop-color="#6F79BF"/>
<stop offset="0.57" stop-color="#6742BD"/>
<stop offset="0.87" stop-color="#411D87"/>
<stop offset="0.99" stop-color="#3C148A"/>
</linearGradient>
<linearGradient id="paint13_linear_302_17886" x1="136.67" y1="151.069" x2="316.659" y2="218.911" gradientUnits="userSpaceOnUse">
<stop stop-color="#85FFC4"/>
<stop offset="0.06" stop-color="#83F5C3"/>
<stop offset="0.16" stop-color="#7FDCC2"/>
<stop offset="0.29" stop-color="#78B2C1"/>
<stop offset="0.44" stop-color="#6F79BF"/>
<stop offset="0.57" stop-color="#6742BD"/>
<stop offset="0.87" stop-color="#6742BD"/>
<stop offset="0.99" stop-color="#6742BD"/>
</linearGradient>
<linearGradient id="paint14_linear_302_17886" x1="316.808" y1="150.834" x2="136.819" y2="218.676" gradientUnits="userSpaceOnUse">
<stop stop-color="#85FFC4"/>
<stop offset="0.06" stop-color="#83F5C3"/>
<stop offset="0.16" stop-color="#7FDCC2"/>
<stop offset="0.29" stop-color="#78B2C1"/>
<stop offset="0.44" stop-color="#6F79BF"/>
<stop offset="0.57" stop-color="#6742BD"/>
<stop offset="0.87" stop-color="#6742BD"/>
<stop offset="0.99" stop-color="#6742BD"/>
</linearGradient>
<linearGradient id="paint15_linear_302_17886" x1="266.443" y1="97.1123" x2="187.102" y2="272.315" gradientUnits="userSpaceOnUse">
<stop stop-color="#85FFC4"/>
<stop offset="0.06" stop-color="#83F5C3"/>
<stop offset="0.16" stop-color="#7FDCC2"/>
<stop offset="0.29" stop-color="#78B2C1"/>
<stop offset="0.44" stop-color="#6F79BF"/>
<stop offset="0.57" stop-color="#6742BD"/>
<stop offset="0.87" stop-color="#6742BD"/>
<stop offset="0.99" stop-color="#6742BD"/>
</linearGradient>
<linearGradient id="paint16_linear_302_17886" x1="440.28" y1="302.417" x2="438.472" y2="419.982" gradientUnits="userSpaceOnUse">
<stop stop-color="#85FFC4"/>
<stop offset="0.06" stop-color="#83F5C3"/>
<stop offset="0.16" stop-color="#7FDCC2"/>
<stop offset="0.29" stop-color="#78B2C1"/>
<stop offset="0.44" stop-color="#6F79BF"/>
<stop offset="0.57" stop-color="#6742BD"/>
<stop offset="0.87" stop-color="#411D87"/>
<stop offset="0.99" stop-color="#3C148A"/>
</linearGradient>
<linearGradient id="paint17_linear_302_17886" x1="367.784" y1="316.762" x2="367.91" y2="378.778" gradientUnits="userSpaceOnUse">
<stop stop-color="#85FFC4"/>
<stop offset="0.06" stop-color="#83F5C3"/>
<stop offset="0.16" stop-color="#7FDCC2"/>
<stop offset="0.29" stop-color="#78B2C1"/>
<stop offset="0.44" stop-color="#6F79BF"/>
<stop offset="0.57" stop-color="#6742BD"/>
<stop offset="0.87" stop-color="#411D87"/>
<stop offset="0.99" stop-color="#3C148A"/>
</linearGradient>
<linearGradient id="paint18_linear_302_17886" x1="404.909" y1="217.116" x2="400.044" y2="775.475" gradientUnits="userSpaceOnUse">
<stop stop-color="#85FFC4"/>
<stop offset="0.06" stop-color="#83F5C3"/>
<stop offset="0.16" stop-color="#7FDCC2"/>
<stop offset="0.29" stop-color="#78B2C1"/>
<stop offset="0.44" stop-color="#6F79BF"/>
<stop offset="0.57" stop-color="#6742BD"/>
<stop offset="0.87" stop-color="#411D87"/>
<stop offset="0.99" stop-color="#3C148A"/>
</linearGradient>
<linearGradient id="paint19_linear_302_17886" x1="403.81" y1="284.377" x2="402.805" y2="403.963" gradientUnits="userSpaceOnUse">
<stop stop-color="#6742BD"/>
<stop offset="0.06" stop-color="#684BBD"/>
<stop offset="0.16" stop-color="#6C64BE"/>
<stop offset="0.29" stop-color="#738EBF"/>
<stop offset="0.44" stop-color="#7CC7C1"/>
<stop offset="0.57" stop-color="#85FFC4"/>
<stop offset="0.87" stop-color="#85FFC4"/>
<stop offset="0.99" stop-color="#85FFC4"/>
</linearGradient>
<linearGradient id="paint20_linear_302_17886" x1="323.801" y1="373.236" x2="323.513" y2="406.926" gradientUnits="userSpaceOnUse">
<stop stop-color="#85FFC4"/>
<stop offset="0.06" stop-color="#83F5C3"/>
<stop offset="0.16" stop-color="#7FDCC2"/>
<stop offset="0.29" stop-color="#78B2C1"/>
<stop offset="0.44" stop-color="#6F79BF"/>
<stop offset="0.57" stop-color="#6742BD"/>
<stop offset="0.87" stop-color="#6742BD"/>
<stop offset="0.99" stop-color="#6742BD"/>
</linearGradient>
<linearGradient id="paint21_linear_302_17886" x1="-13.6755" y1="299.924" x2="-11.8678" y2="417.489" gradientUnits="userSpaceOnUse">
<stop stop-color="#85FFC4"/>
<stop offset="0.06" stop-color="#83F5C3"/>
<stop offset="0.16" stop-color="#7FDCC2"/>
<stop offset="0.29" stop-color="#78B2C1"/>
<stop offset="0.44" stop-color="#6F79BF"/>
<stop offset="0.57" stop-color="#6742BD"/>
<stop offset="0.87" stop-color="#411D87"/>
<stop offset="0.99" stop-color="#3C148A"/>
</linearGradient>
<linearGradient id="paint22_linear_302_17886" x1="58.8199" y1="314.212" x2="58.6938" y2="376.228" gradientUnits="userSpaceOnUse">
<stop stop-color="#85FFC4"/>
<stop offset="0.06" stop-color="#83F5C3"/>
<stop offset="0.16" stop-color="#7FDCC2"/>
<stop offset="0.29" stop-color="#78B2C1"/>
<stop offset="0.44" stop-color="#6F79BF"/>
<stop offset="0.57" stop-color="#6742BD"/>
<stop offset="0.87" stop-color="#411D87"/>
<stop offset="0.99" stop-color="#3C148A"/>
</linearGradient>
<linearGradient id="paint23_linear_302_17886" x1="21.6953" y1="214.566" x2="26.503" y2="772.925" gradientUnits="userSpaceOnUse">
<stop stop-color="#85FFC4"/>
<stop offset="0.06" stop-color="#83F5C3"/>
<stop offset="0.16" stop-color="#7FDCC2"/>
<stop offset="0.29" stop-color="#78B2C1"/>
<stop offset="0.44" stop-color="#6F79BF"/>
<stop offset="0.57" stop-color="#6742BD"/>
<stop offset="0.87" stop-color="#411D87"/>
<stop offset="0.99" stop-color="#3C148A"/>
</linearGradient>
<linearGradient id="paint24_linear_302_17886" x1="22.7374" y1="281.827" x2="23.8005" y2="401.414" gradientUnits="userSpaceOnUse">
<stop stop-color="#6742BD"/>
<stop offset="0.06" stop-color="#684BBD"/>
<stop offset="0.16" stop-color="#6C64BE"/>
<stop offset="0.29" stop-color="#738EBF"/>
<stop offset="0.44" stop-color="#7CC7C1"/>
<stop offset="0.57" stop-color="#85FFC4"/>
<stop offset="0.87" stop-color="#85FFC4"/>
<stop offset="0.99" stop-color="#85FFC4"/>
</linearGradient>
<linearGradient id="paint25_linear_302_17886" x1="97.8909" y1="373.122" x2="98.237" y2="407.677" gradientUnits="userSpaceOnUse">
<stop stop-color="#85FFC4"/>
<stop offset="0.06" stop-color="#83F5C3"/>
<stop offset="0.16" stop-color="#7FDCC2"/>
<stop offset="0.29" stop-color="#78B2C1"/>
<stop offset="0.44" stop-color="#6F79BF"/>
<stop offset="0.57" stop-color="#6742BD"/>
<stop offset="0.87" stop-color="#6742BD"/>
<stop offset="0.99" stop-color="#6742BD"/>
</linearGradient>
</defs>
</svg>
