<svg xmlns="http://www.w3.org/2000/svg" width="112" height="103" viewBox="0 0 112 103" fill="none">
    <path d="M5.08083 69.7322C5.08083 69.7322 5.0202 69.6716 4.99999 69.6514C4.61607 69.2472 4.25236 68.8633 3.90885 68.439C3.70679 68.2167 3.52493 67.9742 3.34307 67.7318C3.1006 67.4287 2.87832 67.1054 2.67625 66.8023C2.55502 66.6204 2.43378 66.4385 2.33275 66.2567C2.09027 65.8526 1.88821 65.4484 1.70635 65.0443C1.66594 64.9433 1.6053 64.8624 1.56489 64.7614C1.34262 64.2562 1.18098 63.7511 1.03953 63.2661C0.999119 63.1449 0.978896 63.0236 0.958689 62.8822C0.857657 62.4781 0.797036 62.0739 0.736416 61.6698C0.736416 61.5486 0.696025 61.4071 0.696025 61.2859C0.655612 60.7605 0.635386 60.2553 0.675799 59.73L0.00898067 69.813C0.00898067 69.813 0.00898067 69.8939 0.00898067 69.9545C-0.0112258 70.3586 0.00898067 70.7425 0.00898067 71.1467C0.00898067 71.2275 0.0292069 71.2881 0.0292069 71.3689C0.0292069 71.4902 0.0695977 71.6316 0.0695977 71.7529C0.0898042 71.9549 0.110028 72.1368 0.150441 72.3388C0.190854 72.5409 0.251458 72.743 0.291871 72.945C0.312077 73.0663 0.352507 73.2077 0.372714 73.329C0.372714 73.3896 0.392898 73.4704 0.413105 73.531C0.534344 73.9352 0.675792 74.3393 0.85765 74.7636C0.85765 74.7838 0.877866 74.804 0.898072 74.8445C0.938485 74.9455 0.999119 75.0263 1.03953 75.1273C1.18098 75.4304 1.32243 75.7335 1.48408 76.0366C1.5447 76.1377 1.60531 76.2387 1.66593 76.3397C1.76696 76.5216 1.8882 76.7035 2.00944 76.8853C2.11047 77.047 2.21151 77.2288 2.33275 77.3905C2.43378 77.5319 2.55502 77.6734 2.67625 77.8148C2.85811 78.0573 3.03997 78.2796 3.24203 78.522C3.34307 78.6433 3.42388 78.7847 3.54512 78.906C3.7876 79.1889 4.05028 79.4515 4.33317 79.7344C4.35338 79.7546 4.39381 79.795 4.41402 79.8153C4.73732 80.1386 5.08082 80.4619 5.44454 80.765C5.58598 80.8862 5.74764 81.0074 5.88908 81.1287C6.03053 81.2499 6.17199 81.3712 6.31343 81.4722C6.87922 81.9167 7.46518 82.3613 8.09159 82.7856C8.7584 83.2302 9.44543 83.6343 10.1527 84.0384C10.3749 84.1597 10.6174 84.2809 10.8599 84.4021C11.3449 84.6648 11.85 84.9073 12.3552 85.1498C12.6381 85.2912 12.921 85.4125 13.2241 85.5337C13.709 85.756 14.2142 85.958 14.7193 86.1399C15.0224 86.2611 15.3255 86.3824 15.6488 86.4834C15.8509 86.544 16.0327 86.6248 16.2348 86.7057C16.4369 86.7865 16.6592 86.8269 16.8814 86.9077C17.528 87.13 18.1949 87.3321 18.8819 87.5139C19.1042 87.5746 19.3062 87.6554 19.5083 87.716C19.6901 87.7564 19.872 87.7968 20.0538 87.8372C20.4782 87.9383 20.9025 88.0393 21.3269 88.1403C21.6097 88.201 21.8724 88.2818 22.1553 88.3424C22.3776 88.3828 22.6201 88.4232 22.8625 88.4636C23.1858 88.5243 23.5092 88.5849 23.8527 88.6455C24.0749 88.6859 24.2972 88.7263 24.5397 88.7667C24.9236 88.8274 25.3075 88.8678 25.6915 88.9284C25.9339 88.9688 26.1764 88.989 26.4189 89.0294C26.5199 89.0294 26.621 89.0496 26.722 89.0698C27.4292 89.1507 28.1365 89.2113 28.8437 89.2517C28.8841 89.2517 28.9447 89.2517 28.9851 89.2517C29.1266 89.2517 29.268 89.2517 29.4095 89.2719C29.9146 89.2921 30.3996 89.3325 30.9048 89.3527C31.127 89.3527 31.3695 89.3527 31.5918 89.3527C31.8342 89.3527 32.0767 89.3527 32.3192 89.3527C32.5213 89.3527 32.7435 89.3527 32.9456 89.3527C33.4912 89.3527 34.057 89.3325 34.6025 89.2921C34.7036 89.2921 34.8046 89.2921 34.9056 89.2921C34.9258 89.2921 34.9662 89.2921 34.9864 89.2921C35.6735 89.2517 36.3605 89.2113 37.0475 89.1507C37.1688 89.1507 37.29 89.1103 37.4113 89.1103C37.6537 89.09 37.8962 89.0496 38.1589 89.0294C38.5024 88.989 38.8459 88.9486 39.1692 88.9082C39.4319 88.8678 39.6744 88.8274 39.9371 88.7869C40.2402 88.7465 40.5433 88.6859 40.8464 88.6455C41.0282 88.6051 41.2303 88.5849 41.4121 88.5445C41.7354 88.4838 42.0588 88.403 42.4023 88.3222C42.766 88.2414 43.1297 88.1605 43.4934 88.0797C43.6146 88.0393 43.7561 88.0191 43.8773 87.9989C44.14 87.9383 44.3825 87.8372 44.6452 87.7766C45.211 87.615 45.7565 87.4533 46.3021 87.2917C46.4436 87.2513 46.6052 87.2108 46.7668 87.1502C47.1104 87.029 47.4337 86.9077 47.757 86.7663C47.9995 86.6855 48.2419 86.5844 48.4642 86.5036C49.2119 86.2005 49.9191 85.8772 50.6263 85.5337C56.668 82.5229 59.8607 78.2796 60.1436 73.8543L60.8104 63.7713C60.5073 68.1965 57.3147 72.4399 51.2931 75.4506C50.6061 75.7942 49.8786 76.1175 49.131 76.4206C48.9087 76.5216 48.6663 76.6024 48.4238 76.6832C47.9388 76.8651 47.4539 77.0268 46.9689 77.2086C46.4233 77.3905 45.8778 77.5521 45.312 77.7138C44.9281 77.8148 44.5441 77.9361 44.1602 78.0371C43.7965 78.1179 43.4328 78.1987 43.069 78.2796C42.5639 78.3806 42.0385 78.5018 41.5132 78.5827C41.2101 78.6433 40.907 78.6837 40.6039 78.7241C40.0179 78.8251 39.4117 78.906 38.8257 78.9666C38.5832 78.9868 38.3408 79.0272 38.0781 79.0474C37.2496 79.1282 36.4009 79.2091 35.5523 79.2495C35.4512 79.2495 35.3502 79.2495 35.2693 79.2495C34.5015 79.2899 33.7337 79.2899 32.986 79.2899C32.7435 79.2899 32.5011 79.2899 32.2586 79.2899C31.5312 79.2899 30.8037 79.2495 30.0763 79.2091C29.9348 79.2091 29.7934 79.2091 29.6317 79.1889C28.7831 79.1282 27.9344 79.0474 27.0857 78.9464C26.8432 78.9262 26.6007 78.8858 26.3381 78.8453C25.7319 78.7645 25.1055 78.6837 24.4993 78.5827C24.176 78.522 23.8325 78.4614 23.5092 78.4008C23.004 78.2998 22.4786 78.1987 21.9735 78.0775C21.5491 77.9765 21.1248 77.8956 20.7005 77.7744C20.2963 77.6734 19.9124 77.5723 19.5083 77.4511C18.8415 77.2692 18.1746 77.0672 17.5078 76.8449C17.1037 76.7035 16.6996 76.5822 16.2954 76.4408C15.9923 76.3195 15.669 76.2185 15.3659 76.0973C14.8608 75.8952 14.3758 75.6931 13.8909 75.4911C13.608 75.3698 13.3049 75.2284 13.022 75.1071C12.5168 74.8647 12.0116 74.6222 11.5267 74.3595C11.2842 74.2383 11.0417 74.117 10.8195 73.9756C10.1122 73.5714 9.42522 73.1673 8.7584 72.7228C8.132 72.2984 7.546 71.8539 6.98022 71.4093C6.83878 71.2881 6.69735 71.1871 6.5559 71.0658C6.03053 70.6213 5.52538 70.197 5.08083 69.7322Z" fill="url(#paint0_linear_572_9320)"/>
    <path d="M8.77853 72.7227C-2.57753 65.1654 -1.93094 54.1327 10.2132 48.0707C22.3573 42.0088 41.3918 43.2211 52.7479 50.7784C64.104 58.3356 63.4775 69.3684 51.3132 75.4303C39.1691 81.4923 20.1346 80.2799 8.77853 72.7227Z" fill="url(#paint1_linear_572_9320)"/>
    <path d="M13.1425 70.5396C4.04959 64.4978 4.55477 55.6474 14.2943 50.7978C24.0338 45.9482 39.2898 46.9182 48.3827 52.9599C57.4756 59.0016 56.9705 67.8521 47.2309 72.7017C37.5116 77.5512 22.2355 76.5813 13.1425 70.5396Z" fill="url(#paint2_linear_572_9320)"/>
    <path d="M14.5787 69.8332C6.19296 64.2562 6.67793 56.113 15.6294 51.6474C24.6011 47.1615 38.6446 48.0708 47.0303 53.6478C55.416 59.2248 54.9513 67.368 45.9796 71.8337C37.0281 76.2993 22.9644 75.4102 14.5787 69.8332Z" fill="url(#paint3_linear_572_9320)"/>
    <path d="M25.8091 59.0828C24.5967 57.5471 25.3847 55.9912 27.4458 54.9607C29.8504 53.7483 33.0632 53.7685 35.4678 54.6172C36.0538 54.8394 36.5589 55.0819 37.0641 55.3446L39.206 54.2736L40.9438 55.4254L38.8625 56.4762L40.3577 57.4663L42.439 56.4155L44.1768 57.5673L42.0955 58.618L46.4803 61.5278L44.4597 62.5381L42.3178 61.1236L28.052 68.2565L30.1939 69.671L28.2136 70.6611L23.8288 67.7514L21.7071 68.8223L19.9694 67.6706L22.0911 66.5996L20.5958 65.6095L18.4741 66.6804L16.7363 65.5287L18.9793 64.4173C18.5347 64.0334 18.1912 63.6495 17.9689 63.2453C17.2617 62.0127 17.7669 60.6185 19.7471 59.6284C21.5253 58.7393 23.7884 58.5776 25.8293 59.103L25.8091 59.0828ZM34.3766 56.2741C32.942 55.8295 31.184 55.9912 29.7897 56.6782C27.9105 57.6279 27.8297 59.002 29.6079 60.2144L33.4269 62.7604L39.7718 59.588L36.1346 57.1632C35.6496 56.8399 35.0232 56.4762 34.3564 56.2741M25.7283 66.5794L31.3052 63.7909L27.7287 61.4065C26.1728 60.376 24.0713 60.2952 22.4144 61.1236C21.3434 61.649 20.8382 62.3562 21.1211 63.0635C21.3434 63.508 21.8082 63.9324 22.5356 64.4173L25.7484 66.5592" fill="url(#paint4_linear_572_9320)"/>
    <path d="M26.0161 59.367C24.8037 57.8313 25.5918 56.2754 27.6528 55.2448C30.0574 54.0325 33.2702 54.0527 35.6748 54.9013C36.2608 55.1236 36.7659 55.3661 37.2711 55.6288L39.413 54.5578L41.1508 55.7096L39.0695 56.7603L40.5648 57.7505L42.646 56.6997L44.3838 57.8515L42.3025 58.9022L46.6873 61.812L44.6667 62.8223L42.5248 61.4078L28.259 68.5407L30.4009 69.9552L28.4206 70.9453L24.0358 68.0356L21.9142 69.1065L20.1764 67.9547L22.2981 66.8838L20.8028 65.8937L18.6811 66.9646L16.9434 65.8128L19.1863 64.7015C18.7417 64.3176 18.3982 63.9336 18.176 63.5295C17.4687 62.2969 17.9739 60.9027 19.9541 59.9125C21.7323 59.0235 23.9954 58.8618 26.0363 59.3872L26.0161 59.367ZM34.5836 56.5583C33.149 56.1137 31.391 56.2754 29.9968 56.9624C28.1176 57.9121 28.0367 59.3064 29.8149 60.4985L33.6339 63.0446L39.9788 59.8721L36.3416 57.4474C35.8567 57.124 35.2303 56.7603 34.5634 56.5583M25.9353 66.8636L31.5123 64.0751L27.9357 61.6907C26.3798 60.6602 24.2783 60.5794 22.6214 61.4078C21.5504 61.9332 21.0453 62.6404 21.3282 63.3477C21.5504 63.7922 22.0152 64.2165 22.7426 64.7015L25.9555 66.8434" fill="url(#paint5_linear_572_9320)"/>
    <path d="M5.08083 54.7586C5.08083 54.7586 5.0202 54.698 4.99999 54.6777C4.61607 54.2736 4.25236 53.8897 3.90885 53.4654C3.70679 53.2431 3.52493 53.0006 3.34307 52.7581C3.1006 52.455 2.87832 52.1317 2.67625 51.8286C2.55502 51.6468 2.43378 51.4649 2.33275 51.2831C2.09027 50.8789 1.88821 50.4748 1.70635 50.0707C1.66594 49.9696 1.6053 49.8888 1.56489 49.7878C1.34262 49.2826 1.18098 48.7774 1.03953 48.2925C0.999119 48.1712 0.978896 48.05 0.958689 47.9086C0.857657 47.5044 0.797036 47.1003 0.736416 46.6962C0.736416 46.5749 0.696025 46.4335 0.696025 46.3123C0.655612 45.7869 0.635386 45.2817 0.675799 44.7563L0.00898067 54.8394C0.00898067 54.8394 0.00898067 54.9202 0.00898067 54.9808C-0.0112258 55.385 0.00898067 55.7689 0.00898067 56.173C0.00898067 56.2539 0.0292069 56.3145 0.0292069 56.3953C0.0292069 56.5165 0.0695977 56.658 0.0695977 56.7792C0.0898042 56.9813 0.110028 57.1631 0.150441 57.3652C0.190854 57.5673 0.251458 57.7693 0.291871 57.9714C0.312077 58.0926 0.352507 58.2341 0.372714 58.3553C0.372714 58.4159 0.392898 58.4968 0.413105 58.5574C0.534344 58.9615 0.675792 59.3657 0.85765 59.79C0.85765 59.8102 0.877866 59.8304 0.898072 59.8708C0.938485 59.9719 0.999119 60.0527 1.03953 60.1537C1.18098 60.4568 1.32243 60.7599 1.48408 61.063C1.5447 61.164 1.60531 61.2651 1.66593 61.3661C1.76696 61.548 1.8882 61.7298 2.00944 61.9117C2.11047 62.0733 2.21151 62.2552 2.33275 62.4168C2.43378 62.5583 2.55502 62.6997 2.67625 62.8412C2.85811 63.0837 3.03997 63.3059 3.24203 63.5484C3.34307 63.6696 3.42388 63.8111 3.54512 63.9323C3.7876 64.2152 4.05028 64.4779 4.33317 64.7608C4.35338 64.781 4.39381 64.8214 4.41402 64.8416C4.73732 65.1649 5.08082 65.4882 5.44454 65.7913C5.58598 65.9126 5.74764 66.0338 5.88908 66.155C6.03053 66.2763 6.17199 66.3975 6.31343 66.4986C6.87922 66.9431 7.46518 67.3876 8.09159 67.812C8.7584 68.2565 9.44543 68.6607 10.1527 69.0648C10.3749 69.186 10.6174 69.3073 10.8599 69.4285C11.3449 69.6912 11.85 69.9337 12.3552 70.1761C12.6381 70.3176 12.921 70.4388 13.2241 70.5601C13.709 70.7823 14.2142 70.9844 14.7193 71.1663C15.0224 71.2875 15.3255 71.4087 15.6488 71.5098C15.8509 71.5704 16.0327 71.6512 16.2348 71.732C16.4369 71.8129 16.6592 71.8533 16.8814 71.9341C17.528 72.1564 18.1949 72.3584 18.8819 72.5403C19.1042 72.6009 19.3062 72.6817 19.5083 72.7424C19.6901 72.7828 19.872 72.8232 20.0538 72.8636C20.4782 72.9646 20.9025 73.0657 21.3269 73.1667C21.6097 73.2273 21.8724 73.3082 22.1553 73.3688C22.3776 73.4092 22.6201 73.4496 22.8625 73.49C23.1858 73.5506 23.5092 73.6113 23.8527 73.6719C24.0749 73.7123 24.2972 73.7527 24.5397 73.7931C24.9236 73.8537 25.3075 73.8941 25.6915 73.9548C25.9339 73.9952 26.1764 74.0154 26.4189 74.0558C26.5199 74.0558 26.621 74.076 26.722 74.0962C27.4292 74.177 28.1365 74.2377 28.8437 74.2781C28.8841 74.2781 28.9447 74.2781 28.9851 74.2781C29.1266 74.2781 29.268 74.2781 29.4095 74.2983C29.9146 74.3185 30.3996 74.3589 30.9048 74.3791C31.127 74.3791 31.3695 74.3791 31.5918 74.3791C31.8342 74.3791 32.0767 74.3791 32.3192 74.3791C32.5213 74.3791 32.7435 74.3791 32.9456 74.3791C33.4912 74.3791 34.057 74.3589 34.6025 74.3185C34.7036 74.3185 34.8046 74.3185 34.9056 74.3185C34.9258 74.3185 34.9662 74.3185 34.9864 74.3185C35.6735 74.2781 36.3605 74.2377 37.0475 74.177C37.1688 74.177 37.29 74.1366 37.4113 74.1366C37.6537 74.1164 37.8962 74.076 38.1589 74.0558C38.5024 74.0154 38.8459 73.975 39.1692 73.9345C39.4319 73.8941 39.6744 73.8537 39.9371 73.8133C40.2402 73.7729 40.5433 73.7123 40.8464 73.6719C41.0282 73.6315 41.2303 73.6112 41.4121 73.5708C41.7354 73.5102 42.0588 73.4294 42.4023 73.3486C42.766 73.2677 43.1297 73.1869 43.4934 73.1061C43.6146 73.0657 43.7561 73.0455 43.8773 73.0253C44.14 72.9646 44.3825 72.8636 44.6452 72.803C45.211 72.6413 45.7565 72.4797 46.3021 72.318C46.4436 72.2776 46.6052 72.2372 46.7668 72.1766C47.1104 72.0553 47.4337 71.9341 47.757 71.7927C47.9995 71.7118 48.2419 71.6108 48.4642 71.53C49.2119 71.2269 49.9191 70.9036 50.6263 70.5601C56.668 67.5493 59.8607 63.3059 60.1436 58.8807L60.8104 48.7977C60.5073 53.2229 57.3147 57.4662 51.2931 60.477C50.6061 60.8205 49.8786 61.1438 49.131 61.4469C48.9087 61.548 48.6663 61.6288 48.4238 61.7096C47.9388 61.8915 47.4539 62.0531 46.9689 62.235C46.4233 62.4168 45.8778 62.5785 45.312 62.7199C44.9281 62.821 44.5441 62.9422 44.1602 63.0432C43.7965 63.1241 43.4328 63.2049 43.069 63.2857C42.5639 63.3867 42.0385 63.508 41.5132 63.5888C41.2101 63.6494 40.907 63.6898 40.6039 63.7303C40.0179 63.8313 39.4117 63.9121 38.8257 63.9727C38.5832 63.9929 38.3408 64.0334 38.0781 64.0536C37.2496 64.1344 36.4009 64.2152 35.5523 64.2556C35.4512 64.2556 35.3502 64.2556 35.2693 64.2556C34.5015 64.296 33.7337 64.296 32.986 64.296C32.7435 64.296 32.5011 64.296 32.2586 64.296C31.5312 64.296 30.8037 64.2556 30.0763 64.2152C29.9348 64.2152 29.7934 64.2152 29.6317 64.195C28.7831 64.1344 27.9344 64.0536 27.0857 63.9525C26.8432 63.9323 26.6007 63.8919 26.3381 63.8515C25.7319 63.7707 25.1055 63.6898 24.4993 63.5888C24.176 63.5282 23.8325 63.4676 23.5092 63.407C23.004 63.3059 22.4786 63.2049 21.9735 63.0837C21.5491 62.9826 21.1248 62.9018 20.7005 62.7806C20.2963 62.6795 19.9124 62.5785 19.5083 62.4573C18.8415 62.2754 18.1746 62.0733 17.5078 61.8511C17.1037 61.7096 16.6996 61.5884 16.2954 61.4469C15.9923 61.3257 15.669 61.2247 15.3659 61.1034C14.8608 60.9014 14.3758 60.6993 13.8909 60.4972C13.608 60.376 13.3049 60.2547 13.022 60.1133C12.5168 59.8708 12.0116 59.6283 11.5267 59.3657C11.2842 59.2444 11.0417 59.1232 10.8195 59.0019C10.1122 58.5978 9.42522 58.1937 8.7584 57.7491C8.132 57.3248 7.546 56.8803 6.98022 56.4357C6.83878 56.3145 6.69735 56.2134 6.5559 56.0922C6.03053 55.6477 5.52538 55.2233 5.08083 54.7586Z" fill="url(#paint6_linear_572_9320)"/>
    <path d="M8.77853 57.749C-2.57753 50.1918 -1.93094 39.159 10.2132 33.0971C22.3573 27.0351 41.3918 28.2475 52.7479 35.8048C64.104 43.362 63.4775 54.3947 51.3132 60.4567C39.1691 66.5186 20.1346 65.3063 8.77853 57.749Z" fill="url(#paint7_linear_572_9320)"/>
    <path d="M13.1425 55.5654C4.04959 49.5237 4.55477 40.6732 14.2943 35.8237C24.0338 30.9741 39.2898 31.944 48.3827 37.9858C57.4756 44.0275 56.9705 52.878 47.2309 57.7275C37.5116 62.5771 22.2355 61.6072 13.1425 55.5654Z" fill="url(#paint8_linear_572_9320)"/>
    <path d="M14.5787 54.8601C6.19296 49.2831 6.67793 41.1399 15.6294 36.6742C24.6011 32.1884 38.6446 33.0977 47.0303 38.6747C55.416 44.2517 54.9513 52.3949 45.9796 56.8605C37.0281 61.3262 22.9644 60.4371 14.5787 54.8601Z" fill="url(#paint9_linear_572_9320)"/>
    <path d="M25.8091 44.0896C24.5967 42.5539 25.3847 40.998 27.4458 39.9675C29.8504 38.7551 33.0632 38.7753 35.4678 39.624C36.0538 39.8463 36.5589 40.0887 37.0641 40.3514L39.206 39.2805L40.9438 40.4323L38.8625 41.483L40.3577 42.4731L42.439 41.4224L44.1768 42.5741L42.0955 43.6249L46.4803 46.5346L44.4597 47.5449L42.3178 46.1305L28.052 53.2634L30.1939 54.6778L28.2136 55.668L23.8288 52.7582L21.7071 53.8292L19.9694 52.6774L22.0911 51.6065L20.5958 50.6163L18.4741 51.6873L16.7363 50.5355L18.9793 49.4242C18.5347 49.0402 18.1912 48.6563 17.9689 48.2522C17.2617 47.0196 17.7669 45.6253 19.7471 44.6352C21.5253 43.7461 23.7884 43.5845 25.8293 44.1098L25.8091 44.0896ZM34.3766 41.2809C32.942 40.8364 31.184 40.998 29.7897 41.6851C27.9105 42.6348 27.8297 44.0088 29.6079 45.2212L33.4269 47.7672L39.7718 44.5948L36.1346 42.17C35.6496 41.8467 35.0232 41.483 34.3564 41.2809M25.7283 51.5862L31.3052 48.7977L27.7287 46.4134C26.1728 45.3828 24.0713 45.302 22.4144 46.1305C21.3434 46.6559 20.8382 47.3631 21.1211 48.0703C21.3434 48.5149 21.8082 48.9392 22.5356 49.4242L25.7484 51.566" fill="url(#paint10_linear_572_9320)"/>
    <path d="M26.0161 44.3933C24.8037 42.8576 25.5918 41.3017 27.6528 40.2712C30.0574 39.0588 33.2702 39.079 35.6748 39.9277C36.2608 40.15 36.7659 40.3925 37.2711 40.6551L39.413 39.5842L41.1508 40.736L39.0695 41.7867L40.5648 42.7768L42.646 41.7261L44.3838 42.8779L42.3025 43.9286L46.6873 46.8383L44.6667 47.8486L42.5248 46.4342L28.259 53.5671L30.4009 54.9816L28.4206 55.9717L24.0358 53.0619L21.9142 54.1329L20.1764 52.9811L22.2981 51.9102L20.8028 50.92L18.6811 51.991L16.9434 50.8392L19.1863 49.7279C18.7417 49.3439 18.3982 48.96 18.176 48.5559C17.4687 47.3233 17.9739 45.929 19.9541 44.9389C21.7323 44.0498 23.9954 43.8882 26.0363 44.4135L26.0161 44.3933ZM34.5836 41.5846C33.149 41.1401 31.391 41.3017 29.9968 41.9888C28.1176 42.9385 28.0367 44.3125 29.8149 45.5249L33.6339 48.0709L39.9788 44.8985L36.3416 42.4737C35.8567 42.1504 35.2303 41.7867 34.5634 41.5846M25.9353 51.89L31.5123 49.1015L27.9357 46.7171C26.3798 45.6866 24.2783 45.6057 22.6214 46.4342C21.5504 46.9596 21.0453 47.6668 21.3282 48.374C21.5504 48.8186 22.0152 49.2429 22.7426 49.7279L25.9555 51.8697" fill="url(#paint11_linear_572_9320)"/>
    <path d="M5.08083 39.7849C5.08083 39.7849 5.0202 39.7243 4.99999 39.7041C4.61607 39.3 4.25236 38.9161 3.90885 38.4917C3.70679 38.2695 3.52493 38.027 3.34307 37.7845C3.1006 37.4814 2.87832 37.1581 2.67625 36.855C2.55502 36.6731 2.43378 36.4913 2.33275 36.3094C2.09027 35.9053 1.88821 35.5012 1.70635 35.097C1.66594 34.996 1.6053 34.9152 1.56489 34.8141C1.34262 34.309 1.18098 33.8038 1.03953 33.3189C0.999119 33.1976 0.978896 33.0764 0.958689 32.9349C0.857657 32.5308 0.797036 32.1267 0.736416 31.7225C0.736416 31.6013 0.696025 31.4599 0.696025 31.3386C0.655612 30.8132 0.635386 30.3081 0.675799 29.7827L0.00898067 39.8658C0.00898067 39.8658 0.00898067 39.9466 0.00898067 40.0072C-0.0112258 40.4113 0.00898067 40.7953 0.00898067 41.1994C0.00898067 41.2802 0.0292069 41.3408 0.0292069 41.4217C0.0292069 41.5429 0.0695977 41.6844 0.0695977 41.8056C0.0898042 42.0077 0.110028 42.1895 0.150441 42.3916C0.190854 42.5936 0.251458 42.7957 0.291871 42.9978C0.312077 43.119 0.352507 43.2605 0.372714 43.3817C0.372714 43.4423 0.392898 43.5231 0.413105 43.5838C0.534344 43.9879 0.675792 44.392 0.85765 44.8164C0.85765 44.8366 0.877866 44.8568 0.898072 44.8972C0.938485 44.9982 0.999119 45.079 1.03953 45.1801C1.18098 45.4832 1.32243 45.7863 1.48408 46.0894C1.5447 46.1904 1.60531 46.2914 1.66593 46.3925C1.76696 46.5743 1.8882 46.7562 2.00944 46.938C2.11047 47.0997 2.21151 47.2816 2.33275 47.4432C2.43378 47.5847 2.55502 47.7261 2.67625 47.8675C2.85811 48.11 3.03997 48.3323 3.24203 48.5748C3.34307 48.696 3.42388 48.8375 3.54512 48.9587C3.7876 49.2416 4.05028 49.5043 4.33317 49.7872C4.35338 49.8074 4.39381 49.8478 4.41402 49.868C4.73732 50.1913 5.08082 50.5146 5.44454 50.8177C5.58598 50.9389 5.74764 51.0602 5.88908 51.1814C6.03053 51.3027 6.17199 51.4239 6.31343 51.5249C6.87922 51.9695 7.46518 52.414 8.09159 52.8383C8.7584 53.2829 9.44543 53.687 10.1527 54.0911C10.3749 54.2124 10.6174 54.3336 10.8599 54.4549C11.3449 54.7176 11.85 54.96 12.3552 55.2025C12.6381 55.344 12.921 55.4652 13.2241 55.5864C13.709 55.8087 14.2142 56.0108 14.7193 56.1926C15.0224 56.3139 15.3255 56.4351 15.6488 56.5361C15.8509 56.5968 16.0327 56.6776 16.2348 56.7584C16.4369 56.8392 16.6592 56.8797 16.8814 56.9605C17.528 57.1827 18.1949 57.3848 18.8819 57.5667C19.1042 57.6273 19.3062 57.7081 19.5083 57.7687C19.6901 57.8091 19.872 57.8496 20.0538 57.89C20.4782 57.991 20.9025 58.092 21.3269 58.1931C21.6097 58.2537 21.8724 58.3345 22.1553 58.3951C22.3776 58.4356 22.6201 58.476 22.8625 58.5164C23.1858 58.577 23.5092 58.6376 23.8527 58.6982C24.0749 58.7387 24.2972 58.7791 24.5397 58.8195C24.9236 58.8801 25.3075 58.9205 25.6915 58.9811C25.9339 59.0215 26.1764 59.0417 26.4189 59.0822C26.5199 59.0822 26.621 59.1024 26.722 59.1226C27.4292 59.2034 28.1365 59.264 28.8437 59.3044C28.8841 59.3044 28.9447 59.3044 28.9851 59.3044C29.1266 59.3044 29.268 59.3044 29.4095 59.3246C29.9146 59.3448 30.3996 59.3853 30.9048 59.4055C31.127 59.4055 31.3695 59.4055 31.5918 59.4055C31.8342 59.4055 32.0767 59.4055 32.3192 59.4055C32.5213 59.4055 32.7435 59.4055 32.9456 59.4055C33.4912 59.4055 34.057 59.3853 34.6025 59.3448C34.7036 59.3448 34.8046 59.3448 34.9056 59.3448C34.9258 59.3448 34.9662 59.3448 34.9864 59.3448C35.6735 59.3044 36.3605 59.264 37.0475 59.2034C37.1688 59.2034 37.29 59.163 37.4113 59.163C37.6537 59.1428 37.8962 59.1024 38.1589 59.0822C38.5024 59.0417 38.8459 59.0013 39.1692 58.9609C39.4319 58.9205 39.6744 58.8801 39.9371 58.8397C40.2402 58.7993 40.5433 58.7387 40.8464 58.6982C41.0282 58.6578 41.2303 58.6376 41.4121 58.5972C41.7354 58.5366 42.0588 58.4558 42.4023 58.3749C42.766 58.2941 43.1297 58.2133 43.4934 58.1325C43.6146 58.092 43.7561 58.0718 43.8773 58.0516C44.14 57.991 44.3825 57.89 44.6452 57.8294C45.211 57.6677 45.7565 57.5061 46.3021 57.3444C46.4436 57.304 46.6052 57.2636 46.7668 57.203C47.1104 57.0817 47.4337 56.9605 47.757 56.819C47.9995 56.7382 48.2419 56.6372 48.4642 56.5563C49.2119 56.2532 49.9191 55.9299 50.6263 55.5864C56.668 52.5757 59.8607 48.3323 60.1436 43.9071L60.8104 33.824C60.5073 38.2492 57.3147 42.4926 51.2931 45.5034C50.6061 45.8469 49.8786 46.1702 49.131 46.4733C48.9087 46.5743 48.6663 46.6552 48.4238 46.736C47.9388 46.9178 47.4539 47.0997 46.9689 47.2614C46.4233 47.4432 45.8778 47.6049 45.312 47.7463C44.9281 47.8473 44.5441 47.9686 44.1602 48.0696C43.7965 48.1504 43.4328 48.2313 43.069 48.3121C42.5639 48.4333 42.0385 48.5344 41.5132 48.6152C41.2101 48.6758 40.907 48.7162 40.6039 48.7566C40.0179 48.8577 39.4117 48.9385 38.8257 48.9991C38.5832 49.0193 38.3408 49.0597 38.0781 49.0799C37.2496 49.1608 36.4009 49.2416 35.5523 49.282C35.4512 49.282 35.3502 49.282 35.2693 49.282C34.5015 49.3224 33.7337 49.3224 32.986 49.3224C32.7435 49.3224 32.5011 49.3224 32.2586 49.3224C31.5312 49.3224 30.8037 49.282 30.0763 49.2416C29.9348 49.2416 29.7934 49.2416 29.6317 49.2214C28.7831 49.1608 27.9344 49.0799 27.0857 48.9789C26.8432 48.9587 26.6007 48.9183 26.3381 48.8779C25.7319 48.797 25.1055 48.7162 24.4993 48.6152C24.176 48.5546 23.8325 48.4939 23.5092 48.4333C23.004 48.3323 22.4786 48.2313 21.9735 48.11C21.5491 48.009 21.1248 47.9282 20.7005 47.8069C20.2963 47.7059 19.9124 47.6049 19.5083 47.4836C18.8415 47.3018 18.1746 47.0997 17.5078 46.8774C17.1037 46.736 16.6996 46.6147 16.2954 46.4733C15.9923 46.3521 15.669 46.251 15.3659 46.1298C14.8608 45.9277 14.3758 45.7257 13.8909 45.5236C13.608 45.4024 13.3049 45.2811 13.022 45.1397C12.5168 44.8972 12.0116 44.6547 11.5267 44.392C11.2842 44.2708 11.0417 44.1495 10.8195 44.0081C10.1122 43.604 9.42522 43.1998 8.7584 42.7553C8.132 42.331 7.546 41.8864 6.98022 41.4419C6.83878 41.3206 6.69735 41.2196 6.5559 41.0984C6.03053 40.6538 5.52538 40.2295 5.08083 39.7647V39.7849Z" fill="url(#paint12_linear_572_9320)"/>
    <path d="M8.77853 42.7559C-2.57753 35.1986 -1.93094 24.1659 10.2132 18.1039C22.3573 12.042 41.3918 13.2544 52.7479 20.8116C64.104 28.3688 63.4775 39.4016 51.3132 45.4635C39.1691 51.5255 20.1346 50.3131 8.77853 42.7559Z" fill="url(#paint13_linear_572_9320)"/>
    <path d="M13.1425 40.5728C4.04959 34.531 4.55477 25.6806 14.2943 20.831C24.0338 15.9814 39.2898 16.9514 48.3827 22.9931C57.4756 29.0349 56.9705 37.8853 47.2309 42.7349C37.5116 47.5844 22.2355 46.6145 13.1425 40.5728Z" fill="url(#paint14_linear_572_9320)"/>
    <path d="M14.5787 39.8669C6.19296 34.2899 6.67793 26.1467 15.6294 21.6811C24.6011 17.1952 38.6446 18.1045 47.0303 23.6815C55.416 29.2585 54.9513 37.4017 45.9796 41.8674C37.0281 46.333 22.9644 45.4439 14.5787 39.8669Z" fill="url(#paint15_linear_572_9320)"/>
    <path d="M25.8091 29.116C24.5967 27.5803 25.3847 26.0244 27.4458 24.9939C29.8504 23.7815 33.0632 23.8017 35.4678 24.6504C36.0538 24.8726 36.5589 25.1151 37.0641 25.3778L39.206 24.3068L40.9438 25.4586L38.8625 26.5094L40.3577 27.4995L42.439 26.4487L44.1768 27.6005L42.0955 28.6512L46.4803 31.561L44.4597 32.5713L42.3178 31.1569L28.052 38.2898L30.1939 39.7042L28.2136 40.6943L23.8288 37.7846L21.7071 38.8555L19.9694 37.7038L22.0911 36.6328L20.5958 35.6427L18.4741 36.7136L16.7363 35.5619L18.9793 34.4505C18.5347 34.0666 18.1912 33.6827 17.9689 33.2785C17.2617 32.0459 17.7669 30.6517 19.7471 29.6616C21.5253 28.7725 23.7884 28.6108 25.8293 29.1362L25.8091 29.116ZM34.3766 26.3073C32.942 25.8628 31.184 26.0244 29.7897 26.7114C27.9105 27.6611 27.8297 29.0554 29.6079 30.2476L33.4269 32.7936L39.7718 29.6212L36.1346 27.1964C35.6496 26.8731 35.0232 26.5094 34.3564 26.3073M25.7283 36.6126L31.3052 33.8241L27.7287 31.4397C26.1728 30.4092 24.0713 30.3284 22.4144 31.1569C21.3434 31.6822 20.8382 32.3895 21.1211 33.0967C21.3434 33.5412 21.8082 33.9656 22.5356 34.4505L25.7484 36.5924" fill="url(#paint16_linear_572_9320)"/>
    <path d="M26.0161 29.4202C24.8037 27.8845 25.5918 26.3286 27.6528 25.2981C30.0574 24.0857 33.2702 24.1059 35.6748 24.9546C36.2608 25.1768 36.7659 25.4193 37.2711 25.682L39.413 24.611L41.1508 25.7628L39.0695 26.8136L40.5648 27.8037L42.646 26.7529L44.3838 27.9047L42.3025 28.9554L46.6873 31.8652L44.6667 32.8755L42.5248 31.4611L28.259 38.594L30.4009 40.0084L28.4206 40.9985L24.0358 38.0888L21.9142 39.1597L20.1764 38.008L22.2981 36.937L20.8028 35.9469L18.6811 37.0178L16.9434 35.8661L19.1863 34.7547C18.7417 34.3708 18.3982 33.9869 18.176 33.5827C17.4687 32.3501 17.9739 30.9559 19.9541 29.9658C21.7323 29.0767 23.9954 28.915 26.0363 29.4404L26.0161 29.4202ZM34.5836 26.6115C33.149 26.1669 31.391 26.3286 29.9968 27.0156C28.1176 27.9653 28.0367 29.3394 29.8149 30.5518L33.6339 33.0978L39.9788 29.9254L36.3416 27.5006C35.8567 27.1773 35.2303 26.8136 34.5634 26.6115M25.9353 36.9168L31.5123 34.1283L27.9357 31.7439C26.3798 30.7134 24.2783 30.6326 22.6214 31.4611C21.5504 31.9864 21.0453 32.6936 21.3282 33.4009C21.5504 33.8454 22.0152 34.2698 22.7426 34.7547L25.9555 36.8966" fill="url(#paint17_linear_572_9320)"/>
    <path d="M5.08083 25.5398C5.08083 25.5398 5.0202 25.4792 4.99999 25.459C4.61607 25.0549 4.25236 24.6709 3.90885 24.2466C3.70679 24.0243 3.52493 23.7819 3.34307 23.5394C3.1006 23.2363 2.87832 22.913 2.67625 22.6099C2.55502 22.428 2.43378 22.2462 2.33275 22.0643C2.09027 21.6602 1.88821 21.256 1.70635 20.8519C1.66594 20.7509 1.6053 20.6701 1.56489 20.569C1.34262 20.0639 1.18098 19.5587 1.03953 19.0737C0.999119 18.9525 0.978896 18.8313 0.958689 18.6898C0.857657 18.2857 0.797036 17.8816 0.736416 17.4774C0.736416 17.3562 0.696025 17.2147 0.696025 17.0935C0.655612 16.5681 0.635386 16.063 0.675799 15.5376L0.00898067 25.6206C0.00898067 25.6206 0.00898067 25.7015 0.00898067 25.7621C-0.0112258 26.1662 0.00898067 26.5501 0.00898067 26.9543C0.00898067 27.0351 0.0292069 27.0957 0.0292069 27.1765C0.0292069 27.2978 0.0695977 27.4392 0.0695977 27.5605C0.0898042 27.7625 0.110028 27.9444 0.150441 28.1465C0.190854 28.3485 0.251458 28.5506 0.291871 28.7527C0.312077 28.8739 0.352507 29.0153 0.372714 29.1366C0.372714 29.1972 0.392898 29.278 0.413105 29.3386C0.534344 29.7428 0.675792 30.1469 0.85765 30.5712C0.85765 30.5914 0.877866 30.6117 0.898072 30.6521C0.938485 30.7531 0.999119 30.8339 1.03953 30.935C1.18098 31.2381 1.32243 31.5412 1.48408 31.8443C1.5447 31.9453 1.60531 32.0463 1.66593 32.1474C1.76696 32.3292 1.8882 32.5111 2.00944 32.6929C2.11047 32.8546 2.21151 33.0364 2.33275 33.1981C2.43378 33.3395 2.55502 33.481 2.67625 33.6224C2.85811 33.8649 3.03997 34.0872 3.24203 34.3297C3.34307 34.4509 3.42388 34.5923 3.54512 34.7136C3.7876 34.9965 4.05028 35.2592 4.33317 35.542C4.35338 35.5623 4.39381 35.6027 4.41402 35.6229C4.73732 35.9462 5.08082 36.2695 5.44454 36.5726C5.58598 36.6938 5.74764 36.8151 5.88908 36.9363C6.03053 37.0575 6.17199 37.1788 6.31343 37.2798C6.87922 37.7243 7.46518 38.1689 8.09159 38.5932C8.7584 39.0378 9.44543 39.4419 10.1527 39.846C10.3749 39.9673 10.6174 40.0885 10.8599 40.2097C11.3449 40.4724 11.85 40.7149 12.3552 40.9574C12.6381 41.0988 12.921 41.2201 13.2241 41.3413C13.709 41.5636 14.2142 41.7657 14.7193 41.9475C15.0224 42.0687 15.3255 42.19 15.6488 42.291C15.8509 42.3516 16.0327 42.4325 16.2348 42.5133C16.4369 42.5941 16.6592 42.6345 16.8814 42.7154C17.528 42.9376 18.1949 43.1397 18.8819 43.3216C19.1042 43.3822 19.3062 43.463 19.5083 43.5236C19.6901 43.564 19.872 43.6044 20.0538 43.6449C20.4782 43.7459 20.9025 43.8469 21.3269 43.948C21.6097 44.0086 21.8724 44.0894 22.1553 44.15C22.3776 44.1904 22.6201 44.2308 22.8625 44.2713C23.1858 44.3319 23.5092 44.3925 23.8527 44.4531C24.0749 44.4935 24.2972 44.5339 24.5397 44.5744C24.9236 44.635 25.3075 44.6754 25.6915 44.736C25.9339 44.7764 26.1764 44.7966 26.4189 44.837C26.5199 44.837 26.621 44.8573 26.722 44.8775C27.4292 44.9583 28.1365 45.0189 28.8437 45.0593C28.8841 45.0593 28.9447 45.0593 28.9851 45.0593C29.1266 45.0593 29.268 45.0593 29.4095 45.0795C29.9146 45.0997 30.3996 45.1401 30.9048 45.1603C31.127 45.1603 31.3695 45.1603 31.5918 45.1603C31.8342 45.1603 32.0767 45.1603 32.3192 45.1603C32.5213 45.1603 32.7435 45.1603 32.9456 45.1603C33.4912 45.1603 34.057 45.1401 34.6025 45.0997C34.7036 45.0997 34.8046 45.0997 34.9056 45.0997C34.9258 45.0997 34.9662 45.0997 34.9864 45.0997C35.6735 45.0593 36.3605 45.0189 37.0475 44.9583C37.1688 44.9583 37.29 44.9179 37.4113 44.9179C37.6537 44.8977 37.8962 44.8572 38.1589 44.837C38.5024 44.7966 38.8459 44.7562 39.1692 44.7158C39.4319 44.6754 39.6744 44.635 39.9371 44.5946C40.2402 44.5541 40.5433 44.4935 40.8464 44.4531C41.0282 44.4127 41.2303 44.3925 41.4121 44.3521C41.7354 44.2915 42.0588 44.2106 42.4023 44.1298C42.766 44.049 43.1297 43.9682 43.4934 43.8873C43.6146 43.8469 43.7561 43.8267 43.8773 43.8065C44.14 43.7459 44.3825 43.6449 44.6452 43.5842C45.211 43.4226 45.7565 43.2609 46.3021 43.0993C46.4436 43.0589 46.6052 43.0185 46.7668 42.9578C47.1104 42.8366 47.4337 42.7154 47.757 42.5739C47.9995 42.4931 48.2419 42.3921 48.4642 42.3112C49.2119 42.0081 49.9191 41.6848 50.6263 41.3413C56.668 38.3305 59.8607 34.0872 60.1436 29.662L60.8104 19.5789C60.5073 24.0041 57.3147 28.2475 51.2931 31.2583C50.6061 31.6018 49.8786 31.9251 49.131 32.2282C48.9087 32.3292 48.6663 32.41 48.4238 32.4909C47.9388 32.6727 47.4539 32.8546 46.9689 33.0162C46.4233 33.1981 45.8778 33.3597 45.312 33.5012C44.9281 33.6022 44.5441 33.7235 44.1602 33.8245C43.7965 33.9053 43.4328 33.9861 43.069 34.067C42.5639 34.1882 42.0385 34.2892 41.5132 34.3701C41.2101 34.4307 40.907 34.4711 40.6039 34.5115C40.0179 34.6125 39.4117 34.6934 38.8257 34.754C38.5832 34.7742 38.3408 34.8146 38.0781 34.8348C37.2496 34.9156 36.4009 34.9965 35.5523 35.0369C35.4512 35.0369 35.3502 35.0369 35.2693 35.0369C34.5015 35.0773 33.7337 35.0773 32.986 35.0773C32.7435 35.0773 32.5011 35.0773 32.2586 35.0773C31.5312 35.0773 30.8037 35.0369 30.0763 34.9965C29.9348 34.9965 29.7934 34.9965 29.6317 34.9763C28.7831 34.9156 27.9344 34.8348 27.0857 34.7338C26.8432 34.7136 26.6007 34.6732 26.3381 34.6328C25.7319 34.5519 25.1055 34.4711 24.4993 34.3701C24.176 34.3094 23.8325 34.2488 23.5092 34.1882C23.004 34.0872 22.4786 33.9861 21.9735 33.8649C21.5491 33.7639 21.1248 33.683 20.7005 33.5618C20.2963 33.4608 19.9124 33.3597 19.5083 33.2385C18.8415 33.0566 18.1746 32.8546 17.5078 32.6323C17.1037 32.4909 16.6996 32.3696 16.2954 32.2282C15.9923 32.1069 15.669 32.0059 15.3659 31.8847C14.8608 31.6826 14.3758 31.4805 13.8909 31.2785C13.608 31.1572 13.3049 31.036 13.022 30.8945C12.5168 30.6521 12.0116 30.4096 11.5267 30.1469C11.2842 30.0257 11.0417 29.9044 10.8195 29.7832C10.1122 29.3791 9.42522 28.9749 8.7584 28.5304C8.132 28.106 7.546 27.6615 6.98022 27.217C6.83878 27.0957 6.69735 26.9947 6.5559 26.8734C6.03053 26.4289 5.52538 26.0046 5.08083 25.5398Z" fill="url(#paint18_linear_572_9320)"/>
    <path d="M8.77853 28.5107C-2.57753 20.9535 -1.93094 9.92075 10.2132 3.8588C22.3573 -2.20316 41.3918 -0.990766 52.7479 6.56647C64.104 14.1237 63.4775 25.1565 51.3132 31.2184C39.1691 37.2804 20.1346 36.068 8.77853 28.5107Z" fill="url(#paint19_linear_572_9320)"/>
    <path d="M13.1425 26.3277C4.04959 20.2859 4.55477 11.4355 14.2943 6.58589C24.0338 1.73633 39.2898 2.70624 48.3827 8.74799C57.4756 14.7897 56.9705 23.6402 47.2309 28.4898C37.5116 33.3393 22.2355 32.3694 13.1425 26.3277Z" fill="url(#paint20_linear_572_9320)"/>
    <path d="M14.5787 25.6218C6.19296 20.0448 6.67793 11.9016 15.6294 7.43593C24.6011 2.95009 38.6446 3.85938 47.0303 9.43638C55.416 15.0134 54.9513 23.1566 45.9796 27.6222C37.0281 32.0879 22.9644 31.1988 14.5787 25.6218Z" fill="url(#paint21_linear_572_9320)"/>
    <path d="M25.8091 14.8709C24.5967 13.3352 25.3847 11.7793 27.4458 10.7488C29.8504 9.53636 33.0632 9.55657 35.4678 10.4052C36.0538 10.6275 36.5589 10.87 37.0641 11.1327L39.206 10.0617L40.9438 11.2135L38.8625 12.2642L40.3577 13.2544L42.439 12.2036L44.1768 13.3554L42.0955 14.4061L46.4803 17.3159L44.4597 18.3262L42.3178 16.9117L28.052 24.0446L30.1939 25.4591L28.2136 26.4492L23.8288 23.5395L21.7071 24.6104L19.9694 23.4586L22.0911 22.3877L20.5958 21.3976L18.4741 22.4685L16.7363 21.3168L18.9793 20.2054C18.5347 19.8215 18.1912 19.4376 17.9689 19.0334C17.2617 17.8008 17.7669 16.4066 19.7471 15.4165C21.5253 14.5274 23.7884 14.3657 25.8293 14.8911L25.8091 14.8709ZM34.3766 12.0622C32.942 11.6176 31.184 11.7793 29.7897 12.4663C27.9105 13.416 27.8297 14.7901 29.6079 16.0024L33.4269 18.5485L39.7718 15.376L36.1346 12.9513C35.6496 12.628 35.0232 12.2642 34.3564 12.0622M25.7283 22.3675L31.3052 19.579L27.7287 17.1946C26.1728 16.1641 24.0713 16.0833 22.4144 16.9117C21.3434 17.4371 20.8382 18.1443 21.1211 18.8516C21.3434 19.2961 21.8082 19.7204 22.5356 20.2054L25.7484 22.3473" fill="url(#paint22_linear_572_9320)"/>
    <path d="M26.0161 15.1551C24.8037 13.6194 25.5918 12.0635 27.6528 11.0329C30.0574 9.82054 33.2702 9.84075 35.6748 10.6894C36.2608 10.9117 36.7659 11.1542 37.2711 11.4169L39.413 10.3459L41.1508 11.4977L39.0695 12.5484L40.5648 13.5385L42.646 12.4878L44.3838 13.6396L42.3025 14.6903L46.6873 17.6L44.6667 18.6104L42.5248 17.1959L28.259 24.3288L30.4009 25.7433L28.4206 26.7334L24.0358 23.8237L21.9142 24.8946L20.1764 23.7428L22.2981 22.6719L20.8028 21.6818L18.6811 22.7527L16.9434 21.6009L19.1863 20.4896C18.7417 20.1057 18.3982 19.7217 18.176 19.3176C17.4687 18.085 17.9739 16.6908 19.9541 15.7006C21.7323 14.8116 23.9954 14.6499 26.0363 15.1753L26.0161 15.1551ZM34.5836 12.3464C33.149 11.9018 31.391 12.0635 29.9968 12.7505C28.1176 13.7002 28.0367 15.0742 29.8149 16.2866L33.6339 18.8326L39.9788 15.6602L36.3416 13.2354C35.8567 12.9121 35.2303 12.5484 34.5634 12.3464M25.9353 22.6517L31.5123 19.8632L27.9357 17.4788C26.3798 16.4483 24.2783 16.3675 22.6214 17.1959C21.5504 17.7213 21.0453 18.4285 21.3282 19.1357C21.5504 19.5803 22.0152 20.0046 22.7426 20.4896L25.9555 22.6315" fill="url(#paint23_linear_572_9320)"/>
    <path d="M49.6154 71.47C49.6154 71.47 49.575 71.3892 49.575 71.369C49.3527 70.8638 49.1507 70.3587 48.9688 69.8737C48.8678 69.5908 48.7668 69.3079 48.6859 69.0251C48.5647 68.6613 48.4838 68.2774 48.403 67.9137C48.3626 67.7116 48.302 67.4894 48.2616 67.2873C48.1808 66.8225 48.1201 66.378 48.0797 65.9335C48.0797 65.8324 48.0595 65.7314 48.0595 65.6304C48.0393 65.0848 48.0595 64.5594 48.0999 64.034C48.0999 63.9128 48.1404 63.7714 48.1404 63.6501C48.1808 63.246 48.2616 62.8419 48.3626 62.4377C48.3828 62.3165 48.4232 62.1953 48.4434 62.074C48.5849 61.5688 48.7465 61.0839 48.9486 60.6191L44.8265 69.8535C44.8265 69.8535 44.7861 69.9343 44.7659 69.9748C44.6042 70.3385 44.4627 70.7224 44.3617 71.1063C44.3415 71.1872 44.3213 71.2478 44.3011 71.3286C44.2607 71.4498 44.2405 71.5711 44.2203 71.7125C44.1799 71.8944 44.1192 72.0964 44.0788 72.2783C44.0384 72.4804 44.0182 72.7026 43.998 72.9047C43.998 73.0259 43.9576 73.1674 43.9576 73.2886C43.9576 73.3492 43.9374 73.4301 43.9374 73.4907C43.9172 73.915 43.897 74.3596 43.9374 74.7839C43.9374 74.8041 43.9374 74.8445 43.9374 74.8647C43.9374 74.9658 43.9576 75.0668 43.9778 75.1678C43.998 75.5113 44.0182 75.8346 44.0788 76.1782C44.0788 76.2994 44.1395 76.4004 44.1597 76.5217C44.2001 76.7237 44.2405 76.946 44.3011 77.1481C44.3415 77.3501 44.3617 77.532 44.4224 77.7341C44.4628 77.8957 44.5436 78.0776 44.584 78.2594C44.6648 78.5423 44.7658 78.8252 44.8669 79.1081C44.9275 79.2698 44.9477 79.4112 45.0083 79.5729C45.1498 79.9164 45.2912 80.2599 45.4529 80.6236C45.4529 80.664 45.4731 80.7044 45.4933 80.7246C45.6954 81.149 45.8974 81.5531 46.1197 81.9774C46.2005 82.1391 46.3218 82.3007 46.4228 82.4826C46.5238 82.6442 46.6046 82.8059 46.7057 82.9675C47.0694 83.5737 47.4735 84.2001 47.9181 84.8063C48.3828 85.4529 48.888 86.0793 49.4133 86.7057C49.575 86.9078 49.7771 87.1099 49.9387 87.2917C50.3024 87.7161 50.6864 88.1202 51.0905 88.5243C51.3128 88.7466 51.5351 88.9689 51.7775 89.1912C52.1615 89.5549 52.5454 89.9186 52.9495 90.2823C53.192 90.5046 53.4345 90.7066 53.6971 90.9289C53.8588 91.0704 54.0002 91.2118 54.1619 91.333C54.3235 91.4745 54.5256 91.5957 54.6872 91.7372C55.2328 92.1615 55.7784 92.5858 56.3442 92.99C56.5261 93.1112 56.6877 93.2527 56.8696 93.3941C57.0312 93.4951 57.1929 93.5962 57.3343 93.6972C57.698 93.9397 58.0617 94.1822 58.4255 94.4246C58.6679 94.5863 58.8902 94.7479 59.1327 94.8894C59.3348 95.0106 59.5368 95.1319 59.7389 95.2531C60.0218 95.4148 60.3047 95.5966 60.6078 95.7583C60.8098 95.8795 60.9917 96.0007 61.1937 96.1018C61.5373 96.2836 61.8808 96.4655 62.2243 96.6474C62.4466 96.7686 62.6688 96.8898 62.8911 96.9909C62.9921 97.0313 63.073 97.0919 63.174 97.1323C63.8004 97.4556 64.447 97.7587 65.0936 98.0416C65.134 98.0416 65.1744 98.082 65.2149 98.1022C65.3361 98.1628 65.4775 98.2033 65.5988 98.2639C66.0635 98.4659 66.5081 98.668 66.9728 98.8499C67.1951 98.9307 67.3972 99.0115 67.6194 99.0923C67.8417 99.1732 68.064 99.2742 68.2862 99.355C68.4883 99.4359 68.6702 99.5167 68.8722 99.5773C69.3976 99.7592 69.923 99.941 70.4483 100.103C70.5494 100.143 70.6302 100.163 70.7312 100.204C70.7514 100.204 70.7919 100.204 70.8121 100.224C71.4789 100.426 72.1457 100.628 72.8125 100.81C72.9337 100.85 73.055 100.871 73.1762 100.891C73.4187 100.951 73.6612 101.012 73.9037 101.073C74.227 101.153 74.5705 101.234 74.8938 101.315C75.1564 101.376 75.3989 101.416 75.6616 101.457C75.9647 101.517 76.2678 101.578 76.5709 101.638C76.7528 101.679 76.9548 101.719 77.1367 101.739C77.4802 101.8 77.8035 101.82 78.1268 101.881C78.4905 101.941 78.8745 101.982 79.2382 102.022C79.3594 102.022 79.5009 102.063 79.6221 102.083C79.8848 102.103 80.1475 102.103 80.4102 102.144C80.9961 102.184 81.5619 102.224 82.1277 102.245C82.2893 102.245 82.451 102.265 82.6127 102.285C82.9764 102.285 83.3199 102.285 83.6836 102.285C83.9463 102.285 84.1888 102.285 84.4515 102.285C85.2395 102.265 86.0276 102.204 86.8156 102.123C93.5242 101.396 97.9898 98.5266 99.7882 94.465L103.91 85.2307C102.092 89.272 97.6261 92.1413 90.9377 92.8889C90.1699 92.9698 89.3818 93.0102 88.5736 93.0506C88.3311 93.0506 88.0684 93.0506 87.8259 93.0506C87.3208 93.0506 86.7954 93.0506 86.27 93.0304C85.7043 93.0102 85.1183 92.9698 84.5525 92.9092C84.1484 92.8687 83.7644 92.8485 83.3603 92.8081C82.9966 92.7677 82.6126 92.7071 82.2489 92.6667C81.7236 92.5858 81.2184 92.5252 80.693 92.4242C80.3899 92.3636 80.0869 92.303 79.7838 92.2423C79.1978 92.1211 78.6118 91.9999 78.0258 91.8584C77.7833 91.7978 77.5408 91.7372 77.2983 91.6766C76.4901 91.4745 75.6818 91.232 74.8534 90.9895C74.7523 90.9693 74.6715 90.9289 74.5705 90.8885C73.843 90.646 73.1156 90.4035 72.4084 90.1409C72.1861 90.06 71.9638 89.9792 71.7415 89.8782C71.0747 89.6155 70.3877 89.3326 69.7209 89.0497C69.5794 88.9891 69.4582 88.9285 69.3168 88.8881C68.5287 88.5445 67.7609 88.1606 66.993 87.7767C66.7708 87.6555 66.5485 87.5544 66.3262 87.4332C65.7806 87.1503 65.2351 86.8472 64.6895 86.5441C64.4066 86.3824 64.1035 86.2006 63.8206 86.0389C63.3761 85.7763 62.9315 85.4934 62.487 85.2105C62.1232 84.968 61.7595 84.7457 61.3958 84.483C61.0523 84.2608 60.729 84.0183 60.3855 83.7758C59.8197 83.3717 59.2741 82.9473 58.7285 82.523C58.385 82.2603 58.0618 81.9976 57.7384 81.7147C57.496 81.4925 57.2333 81.2904 56.9908 81.0681C56.5867 80.7044 56.2028 80.3407 55.8188 79.977C55.5966 79.7547 55.3541 79.5324 55.1318 79.3102C54.7277 78.906 54.364 78.5019 53.98 78.0776C53.7982 77.8755 53.6163 77.6734 53.4345 77.4714C52.9091 76.845 52.4039 76.2186 51.9392 75.5922C51.4946 74.9658 51.0905 74.3596 50.7268 73.7534C50.6258 73.5917 50.5449 73.4301 50.4439 73.2886C50.1004 72.7026 49.7771 72.1166 49.5144 71.5307L49.6154 71.47Z" fill="url(#paint24_linear_572_9320)"/>
    <path d="M103.966 85.1998C107.904 76.3983 98.7822 63.7553 83.5934 56.961C68.4046 50.1668 52.8999 51.794 48.9628 60.5955C45.0257 69.3971 54.147 82.0401 69.3358 88.8344C84.5246 95.6287 100.029 94.0014 103.966 85.1998Z" fill="url(#paint25_linear_572_9320)"/>
    <path d="M56.8907 75.0267C50.4651 66.1964 54.0012 58.0734 64.8117 56.9014C75.6222 55.7295 89.6051 61.9329 96.0307 70.7631C102.456 79.5933 98.9203 87.7164 88.1098 88.8883C77.2993 90.0603 63.3164 83.8569 56.8907 75.0267Z" fill="url(#paint26_linear_572_9320)"/>
    <path d="M58.4674 74.8446C52.5469 66.7013 55.8204 59.2249 65.762 58.154C75.7238 57.0628 88.5953 62.7813 94.5159 70.9245C100.436 79.0677 97.1831 86.5441 87.2213 87.6151C77.2595 88.7062 64.388 82.9878 58.4674 74.8446Z" fill="url(#paint27_linear_572_9320)"/>
    <path d="M72.7505 68.6619C72.1444 66.8029 73.4174 65.6107 75.7209 65.3682C78.3882 65.0853 81.3989 66.1967 83.359 67.8334C83.8237 68.2375 84.2278 68.6417 84.5916 69.066L86.976 68.8033L88.2085 70.4805L85.8848 70.7432L86.9355 72.1778L89.2593 71.9151L90.4919 73.5923L88.1681 73.855L91.2597 78.1185L89.0168 78.361L87.5013 76.2797L71.6392 78.0175L73.1547 80.0786L70.9522 80.321L67.8606 76.0575L65.4964 76.3201L64.2638 74.643L66.628 74.3803L65.5772 72.9457L63.2131 73.2084L61.9805 71.5312L64.4659 71.2685C64.183 70.7634 64.0011 70.2784 63.9405 69.8137C63.698 68.4194 64.6679 67.2676 66.8502 67.0454C68.8305 66.8231 70.9926 67.4495 72.7505 68.6619ZM81.7627 69.0054C80.5705 68.0961 78.8529 67.6314 77.3374 67.793C75.236 68.0153 74.6904 69.3085 75.9432 71.0462L78.6508 74.7642L85.7029 73.9964L83.1367 70.4603C82.7932 69.9955 82.3284 69.4297 81.7627 69.0054ZM70.1035 75.6938L76.2867 75.0269L73.7609 71.5514C72.6697 70.0561 70.7097 69.2479 68.8709 69.4499C67.6989 69.5712 66.9513 70.0561 66.9715 70.824C67.0321 71.3291 67.315 71.8747 67.8202 72.5819L70.1035 75.714" fill="url(#paint28_linear_572_9320)"/>
    <path d="M72.8345 69.0051C72.2283 67.1461 73.5013 65.954 75.8049 65.7115C78.4721 65.4286 81.4829 66.54 83.4429 68.1767C83.9077 68.5808 84.3118 68.9849 84.6755 69.4093L87.0599 69.1466L88.2925 70.8237L85.9688 71.0864L87.0195 72.5211L89.3432 72.2584L90.5758 73.9355L88.2521 74.1982L91.3437 78.4618L89.1008 78.7043L87.5853 76.6432L71.7232 78.381L73.2387 80.4622L71.0361 80.7047L67.9446 76.4411L65.5804 76.7038L64.3478 75.0267L66.712 74.764L65.6612 73.3293L63.2971 73.592L62.0645 71.9149L64.5498 71.6522C64.267 71.147 64.0851 70.6621 64.0245 70.1973C63.782 68.8031 64.7519 67.6513 66.9342 67.429C68.9145 67.2068 71.0766 67.8332 72.8345 69.0456V69.0051ZM81.8466 69.3487C80.6544 68.4394 78.9369 67.9746 77.4214 68.1363C75.3199 68.3585 74.7744 69.6518 76.0272 71.3895L78.7348 75.1075L85.7869 74.3397L83.2207 70.8035C82.8772 70.3388 82.4124 69.773 81.8466 69.3487ZM70.1875 76.037L76.3707 75.3702L73.8449 71.8947C72.7537 70.3994 70.7937 69.5911 68.9549 69.7932C67.7829 69.9144 67.0353 70.3994 67.0555 71.1672C67.1161 71.6724 67.399 72.218 67.9041 72.9252L70.1875 76.0572" fill="url(#paint29_linear_572_9320)"/>
    <defs>
        <linearGradient id="paint0_linear_572_9320" x1="2.41231" y1="74.8584" x2="102.89" y2="72.7871" gradientUnits="userSpaceOnUse">
            <stop stop-color="#85FFC4"/>
            <stop offset="0.06" stop-color="#83F5C3"/>
            <stop offset="0.16" stop-color="#7FDCC2"/>
            <stop offset="0.29" stop-color="#78B2C1"/>
            <stop offset="0.44" stop-color="#6F79BF"/>
            <stop offset="0.57" stop-color="#6742BD"/>
            <stop offset="0.87" stop-color="#411D87"/>
            <stop offset="0.99" stop-color="#3C148A"/>
        </linearGradient>
        <linearGradient id="paint1_linear_572_9320" x1="35.2652" y1="101.336" x2="16.8164" y2="-61.4086" gradientUnits="userSpaceOnUse">
            <stop stop-color="#85FFC4"/>
            <stop offset="0.06" stop-color="#83F5C3"/>
            <stop offset="0.16" stop-color="#7FDCC2"/>
            <stop offset="0.29" stop-color="#78B2C1"/>
            <stop offset="0.44" stop-color="#6F79BF"/>
            <stop offset="0.57" stop-color="#6742BD"/>
            <stop offset="0.87" stop-color="#411D87"/>
            <stop offset="0.99" stop-color="#3C148A"/>
        </linearGradient>
        <linearGradient id="paint2_linear_572_9320" x1="61.8459" y1="77.3836" x2="-28.2684" y2="32.0584" gradientUnits="userSpaceOnUse">
            <stop stop-color="#85FFC4"/>
            <stop offset="0.06" stop-color="#83F5C3"/>
            <stop offset="0.16" stop-color="#7FDCC2"/>
            <stop offset="0.29" stop-color="#78B2C1"/>
            <stop offset="0.44" stop-color="#6F79BF"/>
            <stop offset="0.57" stop-color="#6742BD"/>
            <stop offset="0.87" stop-color="#411D87"/>
            <stop offset="0.99" stop-color="#3C148A"/>
        </linearGradient>
        <linearGradient id="paint3_linear_572_9320" x1="-21.9062" y1="75.2954" x2="166.691" y2="26.7838" gradientUnits="userSpaceOnUse">
            <stop stop-color="#85FFC4"/>
            <stop offset="0.1" stop-color="#84FBC3"/>
            <stop offset="0.18" stop-color="#82F1C3"/>
            <stop offset="0.26" stop-color="#80E0C2"/>
            <stop offset="0.34" stop-color="#7CC7C1"/>
            <stop offset="0.41" stop-color="#77A8C0"/>
            <stop offset="0.48" stop-color="#7181BF"/>
            <stop offset="0.54" stop-color="#6954BD"/>
            <stop offset="0.57" stop-color="#6742BD"/>
            <stop offset="0.87" stop-color="#411D87"/>
            <stop offset="0.99" stop-color="#3C148A"/>
        </linearGradient>
        <linearGradient id="paint4_linear_572_9320" x1="16.0126" y1="53.616" x2="22.3801" y2="57.0908" gradientUnits="userSpaceOnUse">
            <stop stop-color="#85FFC4"/>
            <stop offset="0.06" stop-color="#83F5C3"/>
            <stop offset="0.16" stop-color="#7FDCC2"/>
            <stop offset="0.29" stop-color="#78B2C1"/>
            <stop offset="0.44" stop-color="#6F79BF"/>
            <stop offset="0.57" stop-color="#6742BD"/>
            <stop offset="0.87" stop-color="#411D87"/>
            <stop offset="0.99" stop-color="#3C148A"/>
        </linearGradient>
        <linearGradient id="paint5_linear_572_9320" x1="6.57758" y1="52.6799" x2="45.6172" y2="67.5223" gradientUnits="userSpaceOnUse">
            <stop stop-color="#85FFC4"/>
            <stop offset="0.06" stop-color="#83F5C3"/>
            <stop offset="0.16" stop-color="#7FDCC2"/>
            <stop offset="0.29" stop-color="#78B2C1"/>
            <stop offset="0.44" stop-color="#6F79BF"/>
            <stop offset="0.57" stop-color="#6742BD"/>
            <stop offset="0.87" stop-color="#411D87"/>
            <stop offset="0.99" stop-color="#3C148A"/>
        </linearGradient>
        <linearGradient id="paint6_linear_572_9320" x1="2.41168" y1="59.884" x2="102.889" y2="57.8127" gradientUnits="userSpaceOnUse">
            <stop stop-color="#85FFC4"/>
            <stop offset="0.06" stop-color="#83F5C3"/>
            <stop offset="0.16" stop-color="#7FDCC2"/>
            <stop offset="0.29" stop-color="#78B2C1"/>
            <stop offset="0.44" stop-color="#6F79BF"/>
            <stop offset="0.57" stop-color="#6742BD"/>
            <stop offset="0.87" stop-color="#411D87"/>
            <stop offset="0.99" stop-color="#3C148A"/>
        </linearGradient>
        <linearGradient id="paint7_linear_572_9320" x1="35.2646" y1="86.3614" x2="16.8158" y2="-76.383" gradientUnits="userSpaceOnUse">
            <stop stop-color="#85FFC4"/>
            <stop offset="0.06" stop-color="#83F5C3"/>
            <stop offset="0.16" stop-color="#7FDCC2"/>
            <stop offset="0.29" stop-color="#78B2C1"/>
            <stop offset="0.44" stop-color="#6F79BF"/>
            <stop offset="0.57" stop-color="#6742BD"/>
            <stop offset="0.87" stop-color="#411D87"/>
            <stop offset="0.99" stop-color="#3C148A"/>
        </linearGradient>
        <linearGradient id="paint8_linear_572_9320" x1="61.8544" y1="62.3816" x2="-28.278" y2="17.0654" gradientUnits="userSpaceOnUse">
            <stop stop-color="#85FFC4"/>
            <stop offset="0.06" stop-color="#83F5C3"/>
            <stop offset="0.16" stop-color="#7FDCC2"/>
            <stop offset="0.29" stop-color="#78B2C1"/>
            <stop offset="0.44" stop-color="#6F79BF"/>
            <stop offset="0.57" stop-color="#6742BD"/>
            <stop offset="0.87" stop-color="#411D87"/>
            <stop offset="0.99" stop-color="#3C148A"/>
        </linearGradient>
        <linearGradient id="paint9_linear_572_9320" x1="-21.9158" y1="60.3034" x2="166.709" y2="11.8009" gradientUnits="userSpaceOnUse">
            <stop stop-color="#85FFC4"/>
            <stop offset="0.1" stop-color="#84FBC3"/>
            <stop offset="0.18" stop-color="#82F1C3"/>
            <stop offset="0.26" stop-color="#80E0C2"/>
            <stop offset="0.34" stop-color="#7CC7C1"/>
            <stop offset="0.41" stop-color="#77A8C0"/>
            <stop offset="0.48" stop-color="#7181BF"/>
            <stop offset="0.54" stop-color="#6954BD"/>
            <stop offset="0.57" stop-color="#6742BD"/>
            <stop offset="0.87" stop-color="#411D87"/>
            <stop offset="0.99" stop-color="#3C148A"/>
        </linearGradient>
        <linearGradient id="paint10_linear_572_9320" x1="16.003" y1="38.6242" x2="22.3794" y2="42.1171" gradientUnits="userSpaceOnUse">
            <stop stop-color="#85FFC4"/>
            <stop offset="0.06" stop-color="#83F5C3"/>
            <stop offset="0.16" stop-color="#7FDCC2"/>
            <stop offset="0.29" stop-color="#78B2C1"/>
            <stop offset="0.44" stop-color="#6F79BF"/>
            <stop offset="0.57" stop-color="#6742BD"/>
            <stop offset="0.87" stop-color="#411D87"/>
            <stop offset="0.99" stop-color="#3C148A"/>
        </linearGradient>
        <linearGradient id="paint11_linear_572_9320" x1="6.57695" y1="37.7055" x2="45.6165" y2="52.5479" gradientUnits="userSpaceOnUse">
            <stop stop-color="#85FFC4"/>
            <stop offset="0.06" stop-color="#83F5C3"/>
            <stop offset="0.16" stop-color="#7FDCC2"/>
            <stop offset="0.29" stop-color="#78B2C1"/>
            <stop offset="0.44" stop-color="#6F79BF"/>
            <stop offset="0.57" stop-color="#6742BD"/>
            <stop offset="0.87" stop-color="#411D87"/>
            <stop offset="0.99" stop-color="#3C148A"/>
        </linearGradient>
        <linearGradient id="paint12_linear_572_9320" x1="2.42018" y1="44.8825" x2="102.879" y2="42.8202" gradientUnits="userSpaceOnUse">
            <stop stop-color="#85FFC4"/>
            <stop offset="0.06" stop-color="#83F5C3"/>
            <stop offset="0.16" stop-color="#7FDCC2"/>
            <stop offset="0.29" stop-color="#78B2C1"/>
            <stop offset="0.44" stop-color="#6F79BF"/>
            <stop offset="0.57" stop-color="#6742BD"/>
            <stop offset="0.87" stop-color="#411D87"/>
            <stop offset="0.99" stop-color="#3C148A"/>
        </linearGradient>
        <linearGradient id="paint13_linear_572_9320" x1="35.255" y1="71.3696" x2="16.8332" y2="-91.3657" gradientUnits="userSpaceOnUse">
            <stop stop-color="#85FFC4"/>
            <stop offset="0.06" stop-color="#83F5C3"/>
            <stop offset="0.16" stop-color="#7FDCC2"/>
            <stop offset="0.29" stop-color="#78B2C1"/>
            <stop offset="0.44" stop-color="#6F79BF"/>
            <stop offset="0.57" stop-color="#6742BD"/>
            <stop offset="0.87" stop-color="#411D87"/>
            <stop offset="0.99" stop-color="#3C148A"/>
        </linearGradient>
        <linearGradient id="paint14_linear_572_9320" x1="61.8538" y1="47.4084" x2="-28.2786" y2="2.09215" gradientUnits="userSpaceOnUse">
            <stop stop-color="#85FFC4"/>
            <stop offset="0.06" stop-color="#83F5C3"/>
            <stop offset="0.16" stop-color="#7FDCC2"/>
            <stop offset="0.29" stop-color="#78B2C1"/>
            <stop offset="0.44" stop-color="#6F79BF"/>
            <stop offset="0.57" stop-color="#6742BD"/>
            <stop offset="0.87" stop-color="#411D87"/>
            <stop offset="0.99" stop-color="#3C148A"/>
        </linearGradient>
        <linearGradient id="paint15_linear_572_9320" x1="-21.9164" y1="45.3297" x2="166.708" y2="-3.17285" gradientUnits="userSpaceOnUse">
            <stop stop-color="#85FFC4"/>
            <stop offset="0.1" stop-color="#84FBC3"/>
            <stop offset="0.18" stop-color="#82F1C3"/>
            <stop offset="0.26" stop-color="#80E0C2"/>
            <stop offset="0.34" stop-color="#7CC7C1"/>
            <stop offset="0.41" stop-color="#77A8C0"/>
            <stop offset="0.48" stop-color="#7181BF"/>
            <stop offset="0.54" stop-color="#6954BD"/>
            <stop offset="0.57" stop-color="#6742BD"/>
            <stop offset="0.87" stop-color="#411D87"/>
            <stop offset="0.99" stop-color="#3C148A"/>
        </linearGradient>
        <linearGradient id="paint16_linear_572_9320" x1="16.0205" y1="23.6408" x2="22.3788" y2="27.1427" gradientUnits="userSpaceOnUse">
            <stop stop-color="#85FFC4"/>
            <stop offset="0.06" stop-color="#83F5C3"/>
            <stop offset="0.16" stop-color="#7FDCC2"/>
            <stop offset="0.29" stop-color="#78B2C1"/>
            <stop offset="0.44" stop-color="#6F79BF"/>
            <stop offset="0.57" stop-color="#6742BD"/>
            <stop offset="0.87" stop-color="#411D87"/>
            <stop offset="0.99" stop-color="#3C148A"/>
        </linearGradient>
        <linearGradient id="paint17_linear_572_9320" x1="6.57632" y1="22.7316" x2="45.6159" y2="37.574" gradientUnits="userSpaceOnUse">
            <stop stop-color="#85FFC4"/>
            <stop offset="0.06" stop-color="#83F5C3"/>
            <stop offset="0.16" stop-color="#7FDCC2"/>
            <stop offset="0.29" stop-color="#78B2C1"/>
            <stop offset="0.44" stop-color="#6F79BF"/>
            <stop offset="0.57" stop-color="#6742BD"/>
            <stop offset="0.87" stop-color="#411D87"/>
            <stop offset="0.99" stop-color="#3C148A"/>
        </linearGradient>
        <linearGradient id="paint18_linear_572_9320" x1="2.42593" y1="30.6502" x2="102.885" y2="28.5879" gradientUnits="userSpaceOnUse">
            <stop stop-color="#85FFC4"/>
            <stop offset="0.06" stop-color="#83F5C3"/>
            <stop offset="0.16" stop-color="#7FDCC2"/>
            <stop offset="0.29" stop-color="#78B2C1"/>
            <stop offset="0.44" stop-color="#6F79BF"/>
            <stop offset="0.57" stop-color="#6742BD"/>
            <stop offset="0.87" stop-color="#411D87"/>
            <stop offset="0.99" stop-color="#3C148A"/>
        </linearGradient>
        <linearGradient id="paint19_linear_572_9320" x1="35.2788" y1="57.1284" x2="16.83" y2="-105.616" gradientUnits="userSpaceOnUse">
            <stop stop-color="#85FFC4"/>
            <stop offset="0.06" stop-color="#83F5C3"/>
            <stop offset="0.16" stop-color="#7FDCC2"/>
            <stop offset="0.29" stop-color="#78B2C1"/>
            <stop offset="0.44" stop-color="#6F79BF"/>
            <stop offset="0.57" stop-color="#6742BD"/>
            <stop offset="0.87" stop-color="#411D87"/>
            <stop offset="0.99" stop-color="#3C148A"/>
        </linearGradient>
        <linearGradient id="paint20_linear_572_9320" x1="61.8506" y1="33.158" x2="-28.2637" y2="-12.1672" gradientUnits="userSpaceOnUse">
            <stop stop-color="#85FFC4"/>
            <stop offset="0.06" stop-color="#83F5C3"/>
            <stop offset="0.16" stop-color="#7FDCC2"/>
            <stop offset="0.29" stop-color="#78B2C1"/>
            <stop offset="0.44" stop-color="#6F79BF"/>
            <stop offset="0.57" stop-color="#6742BD"/>
            <stop offset="0.87" stop-color="#411D87"/>
            <stop offset="0.99" stop-color="#3C148A"/>
        </linearGradient>
        <linearGradient id="paint21_linear_572_9320" x1="-21.9196" y1="31.0793" x2="166.705" y2="-17.4233" gradientUnits="userSpaceOnUse">
            <stop stop-color="#85FFC4"/>
            <stop offset="0.1" stop-color="#84FBC3"/>
            <stop offset="0.18" stop-color="#82F1C3"/>
            <stop offset="0.26" stop-color="#80E0C2"/>
            <stop offset="0.34" stop-color="#7CC7C1"/>
            <stop offset="0.41" stop-color="#77A8C0"/>
            <stop offset="0.48" stop-color="#7181BF"/>
            <stop offset="0.54" stop-color="#6954BD"/>
            <stop offset="0.57" stop-color="#6742BD"/>
            <stop offset="0.87" stop-color="#411D87"/>
            <stop offset="0.99" stop-color="#3C148A"/>
        </linearGradient>
        <linearGradient id="paint22_linear_572_9320" x1="16.0173" y1="9.39046" x2="22.3756" y2="12.8923" gradientUnits="userSpaceOnUse">
            <stop stop-color="#85FFC4"/>
            <stop offset="0.06" stop-color="#83F5C3"/>
            <stop offset="0.16" stop-color="#7FDCC2"/>
            <stop offset="0.29" stop-color="#78B2C1"/>
            <stop offset="0.44" stop-color="#6F79BF"/>
            <stop offset="0.57" stop-color="#6742BD"/>
            <stop offset="0.87" stop-color="#411D87"/>
            <stop offset="0.99" stop-color="#3C148A"/>
        </linearGradient>
        <linearGradient id="paint23_linear_572_9320" x1="6.5731" y1="8.48137" x2="45.6127" y2="23.3238" gradientUnits="userSpaceOnUse">
            <stop stop-color="#85FFC4"/>
            <stop offset="0.06" stop-color="#83F5C3"/>
            <stop offset="0.16" stop-color="#7FDCC2"/>
            <stop offset="0.29" stop-color="#78B2C1"/>
            <stop offset="0.44" stop-color="#6F79BF"/>
            <stop offset="0.57" stop-color="#6742BD"/>
            <stop offset="0.87" stop-color="#411D87"/>
            <stop offset="0.99" stop-color="#3C148A"/>
        </linearGradient>
        <linearGradient id="paint24_linear_572_9320" x1="45.3134" y1="75.371" x2="140.268" y2="108.288" gradientUnits="userSpaceOnUse">
            <stop stop-color="#85FFC4"/>
            <stop offset="0.06" stop-color="#83F5C3"/>
            <stop offset="0.16" stop-color="#7FDCC2"/>
            <stop offset="0.29" stop-color="#78B2C1"/>
            <stop offset="0.44" stop-color="#6F79BF"/>
            <stop offset="0.57" stop-color="#6742BD"/>
            <stop offset="0.87" stop-color="#411D87"/>
            <stop offset="0.99" stop-color="#3C148A"/>
        </linearGradient>
        <linearGradient id="paint25_linear_572_9320" x1="66.9468" y1="111.591" x2="106.126" y2="-47.4481" gradientUnits="userSpaceOnUse">
            <stop stop-color="#85FFC4"/>
            <stop offset="0.06" stop-color="#83F5C3"/>
            <stop offset="0.16" stop-color="#7FDCC2"/>
            <stop offset="0.29" stop-color="#78B2C1"/>
            <stop offset="0.44" stop-color="#6F79BF"/>
            <stop offset="0.57" stop-color="#6742BD"/>
            <stop offset="0.87" stop-color="#411D87"/>
            <stop offset="0.99" stop-color="#3C148A"/>
        </linearGradient>
        <linearGradient id="paint26_linear_572_9320" x1="100.201" y1="98.3582" x2="31.3884" y2="24.5865" gradientUnits="userSpaceOnUse">
            <stop stop-color="#85FFC4"/>
            <stop offset="0.06" stop-color="#83F5C3"/>
            <stop offset="0.16" stop-color="#7FDCC2"/>
            <stop offset="0.29" stop-color="#78B2C1"/>
            <stop offset="0.44" stop-color="#6F79BF"/>
            <stop offset="0.57" stop-color="#6742BD"/>
            <stop offset="0.87" stop-color="#411D87"/>
            <stop offset="0.99" stop-color="#3C148A"/>
        </linearGradient>
        <linearGradient id="paint27_linear_572_9320" x1="22.3545" y1="67.3438" x2="216.089" y2="87.2742" gradientUnits="userSpaceOnUse">
            <stop stop-color="#85FFC4"/>
            <stop offset="0.1" stop-color="#84FBC3"/>
            <stop offset="0.18" stop-color="#82F1C3"/>
            <stop offset="0.26" stop-color="#80E0C2"/>
            <stop offset="0.34" stop-color="#7CC7C1"/>
            <stop offset="0.41" stop-color="#77A8C0"/>
            <stop offset="0.48" stop-color="#7181BF"/>
            <stop offset="0.54" stop-color="#6954BD"/>
            <stop offset="0.57" stop-color="#6742BD"/>
            <stop offset="0.87" stop-color="#411D87"/>
            <stop offset="0.99" stop-color="#3C148A"/>
        </linearGradient>
        <linearGradient id="paint28_linear_572_9320" x1="65.4606" y1="60.1667" x2="70.2091" y2="65.657" gradientUnits="userSpaceOnUse">
            <stop stop-color="#85FFC4"/>
            <stop offset="0.06" stop-color="#83F5C3"/>
            <stop offset="0.16" stop-color="#7FDCC2"/>
            <stop offset="0.29" stop-color="#78B2C1"/>
            <stop offset="0.44" stop-color="#6F79BF"/>
            <stop offset="0.57" stop-color="#6742BD"/>
            <stop offset="0.87" stop-color="#411D87"/>
            <stop offset="0.99" stop-color="#3C148A"/>
        </linearGradient>
        <linearGradient id="paint29_linear_572_9320" x1="56.9174" y1="56.0344" x2="88.3807" y2="83.479" gradientUnits="userSpaceOnUse">
            <stop stop-color="#85FFC4"/>
            <stop offset="0.06" stop-color="#83F5C3"/>
            <stop offset="0.16" stop-color="#7FDCC2"/>
            <stop offset="0.29" stop-color="#78B2C1"/>
            <stop offset="0.44" stop-color="#6F79BF"/>
            <stop offset="0.57" stop-color="#6742BD"/>
            <stop offset="0.87" stop-color="#411D87"/>
            <stop offset="0.99" stop-color="#3C148A"/>
        </linearGradient>
    </defs>
</svg>
