<svg width="54" height="48" viewBox="0 0 54 48" fill="none" xmlns="http://www.w3.org/2000/svg">
<path d="M46.1007 37.125H10.3834V7.875C10.3834 7.66875 10.1965 7.5 9.96805 7.5H7.06083C6.8324 7.5 6.64551 7.66875 6.64551 7.875V40.125C6.64551 40.3313 6.8324 40.5 7.06083 40.5H46.1007C46.3291 40.5 46.516 40.3313 46.516 40.125V37.5C46.516 37.2937 46.3291 37.125 46.1007 37.125ZM14.9519 33.375H17.8591C18.0875 33.375 18.2744 33.2063 18.2744 33V26.25C18.2744 26.0437 18.0875 25.875 17.8591 25.875H14.9519C14.7234 25.875 14.5365 26.0437 14.5365 26.25V33C14.5365 33.2063 14.7234 33.375 14.9519 33.375ZM22.8429 33.375H25.7501C25.9785 33.375 26.1654 33.2063 26.1654 33V18C26.1654 17.7937 25.9785 17.625 25.7501 17.625H22.8429C22.6145 17.625 22.4276 17.7937 22.4276 18V33C22.4276 33.2063 22.6145 33.375 22.8429 33.375ZM30.7339 33.375H33.6411C33.8696 33.375 34.0564 33.2063 34.0564 33V21.6562C34.0564 21.45 33.8696 21.2812 33.6411 21.2812H30.7339C30.5055 21.2812 30.3186 21.45 30.3186 21.6562V33C30.3186 33.2063 30.5055 33.375 30.7339 33.375ZM38.6249 33.375H41.5322C41.7606 33.375 41.9475 33.2063 41.9475 33V14.25C41.9475 14.0437 41.7606 13.875 41.5322 13.875H38.6249C38.3965 13.875 38.2096 14.0437 38.2096 14.25V33C38.2096 33.2063 38.3965 33.375 38.6249 33.375Z" fill="#411D87"/>
</svg>
