<svg width="54" height="48" viewBox="0 0 54 48" fill="none" xmlns="http://www.w3.org/2000/svg">
<path d="M24.7417 3L6.46777 9V27C6.46777 36.9422 14.6482 45 24.7417 45C34.8352 45 43.0157 36.9422 43.0157 27V9L24.7417 3ZM39.5893 27C39.5893 35.0766 32.9412 41.625 24.7417 41.625C16.5422 41.625 9.89414 35.0766 9.89414 27V11.5312L24.7417 6.375L39.5893 11.5312V27Z" fill="#411D87"/>
<path d="M18.2209 21.8502C18.0639 21.6908 17.8773 21.5642 17.6718 21.4779C17.4663 21.3916 17.2459 21.3472 17.0233 21.3472C16.8008 21.3472 16.5804 21.3916 16.3749 21.4779C16.1694 21.5642 15.9828 21.6908 15.8258 21.8502C15.668 22.0089 15.5429 22.1975 15.4575 22.4052C15.3721 22.613 15.3281 22.8357 15.3281 23.0606C15.3281 23.2856 15.3721 23.5083 15.4575 23.7161C15.5429 23.9238 15.668 24.1124 15.8258 24.2711L21.9148 30.4257L22.0136 30.5256C22.1621 30.676 22.3385 30.7953 22.5327 30.8767C22.7269 30.9581 22.9351 31 23.1453 31C23.3555 31 23.5637 30.9581 23.7579 30.8767C23.9521 30.7953 24.1285 30.676 24.277 30.5256L34.794 19.8954C34.9428 19.7452 35.0608 19.5669 35.1414 19.3707C35.2219 19.1744 35.2634 18.964 35.2634 18.7515C35.2634 18.539 35.2219 18.3286 35.1414 18.1323C35.0608 17.936 34.9428 17.7577 34.794 17.6076L34.6622 17.4744C34.5137 17.324 34.3373 17.2047 34.1431 17.1233C33.9489 17.0419 33.7408 17 33.5305 17C33.3203 17 33.1121 17.0419 32.9179 17.1233C32.7237 17.2047 32.5473 17.324 32.3988 17.4744L23.143 26.8252L18.2209 21.8502Z" fill="#411D87"/>
</svg>
