<svg width="54" height="48" viewBox="0 0 54 48" fill="none" xmlns="http://www.w3.org/2000/svg">
<path d="M25.5183 12.8837H23.2188C23.0084 12.8837 22.8363 13.0512 22.8363 13.2558V26.0605C22.8363 26.1814 22.8937 26.293 22.9941 26.3628L30.8965 31.9767C31.0686 32.0977 31.3077 32.0651 31.432 31.8977L32.7992 30.0837C32.9283 29.9116 32.8901 29.6791 32.718 29.5628L25.9007 24.7674V13.2558C25.9007 13.0512 25.7286 12.8837 25.5183 12.8837ZM36.0262 16.3814L43.5223 18.1628C43.7613 18.2186 43.9956 18.0419 43.9956 17.8047L44.0338 10.293C44.0338 9.9814 43.6657 9.80466 43.4171 10L35.8828 15.7256C35.8258 15.7684 35.7825 15.8261 35.7577 15.8918C35.7329 15.9576 35.7277 16.0288 35.7427 16.0973C35.7577 16.1658 35.7922 16.2288 35.8424 16.2791C35.8925 16.3293 35.9562 16.3648 36.0262 16.3814V16.3814ZM44.0434 30.386L41.3327 29.4791C41.2382 29.4476 41.1348 29.4533 41.0446 29.495C40.9543 29.5367 40.8844 29.6111 40.8499 29.7023C40.759 29.9395 40.6634 30.1721 40.563 30.4047C39.7121 32.3628 38.493 34.1256 36.9345 35.6372C35.3933 37.1413 33.5668 38.3402 31.5563 39.1674C29.4735 40.0242 27.2346 40.4639 24.9733 40.4605C22.6881 40.4605 20.4747 40.0279 18.3903 39.1674C16.3797 38.3402 14.5532 37.1413 13.012 35.6372C11.4583 34.1256 10.2393 32.3628 9.38352 30.4047C8.50778 28.3771 8.05911 26.1993 8.06406 24C8.06406 21.7767 8.50866 19.6186 9.39308 17.5907C10.244 15.6326 11.4631 13.8698 13.0216 12.3581C14.5628 10.854 16.3893 9.65515 18.3999 8.82791C20.4747 7.96745 22.6929 7.53489 24.9781 7.53489C27.2632 7.53489 29.4767 7.96745 31.561 8.82791C33.5716 9.65515 35.3981 10.854 36.9393 12.3581C37.4269 12.8372 37.8859 13.3349 38.3066 13.8605L41.1654 11.6837C37.403 7.00466 31.5467 3.99535 24.9685 4.00001C13.514 4.00466 4.31601 13.0558 4.43075 24.2047C4.54549 35.1581 13.7005 44 24.9781 44C33.8462 44 41.3997 38.5302 44.2776 30.8698C44.3493 30.6744 44.2442 30.4558 44.0434 30.386V30.386Z" fill="#411D87"/>
</svg>
