<svg width="54" height="48" viewBox="0 0 54 48" fill="none" xmlns="http://www.w3.org/2000/svg">
<path d="M40.3978 21.72H37.1885V11.08C37.1885 7.72175 34.4842 5 31.1475 5H19.4431C16.1064 5 13.4021 7.72175 13.4021 11.08V21.72H10.1929C9.35751 21.72 8.68262 22.3992 8.68262 23.24V41.48C8.68262 42.3207 9.35751 43 10.1929 43H40.3978C41.2331 43 41.908 42.3207 41.908 41.48V23.24C41.908 22.3992 41.2331 21.72 40.3978 21.72ZM16.8002 11.08C16.8002 9.61225 17.9848 8.42 19.4431 8.42H31.1475C32.6058 8.42 33.7904 9.61225 33.7904 11.08V21.72H16.8002V11.08ZM38.51 39.58H12.0807V25.14H38.51V39.58ZM23.9738 32.9775V35.495C23.9738 35.704 24.1437 35.875 24.3514 35.875H26.2392C26.4469 35.875 26.6168 35.704 26.6168 35.495V32.9775C27.0064 32.696 27.2971 32.2973 27.4473 31.8389C27.5974 31.3805 27.5991 30.8859 27.4522 30.4264C27.3053 29.967 27.0173 29.5662 26.6297 29.282C26.2421 28.9977 25.7749 28.8446 25.2953 28.8446C24.8157 28.8446 24.3485 28.9977 23.9609 29.282C23.5733 29.5662 23.2853 29.967 23.1384 30.4264C22.9915 30.8859 22.9932 31.3805 23.1433 31.8389C23.2935 32.2973 23.5843 32.696 23.9738 32.9775V32.9775Z" fill="#411D87"/>
</svg>
